<svg width="70" height="70" viewBox="0 0 70 70" fill="none" xmlns="http://www.w3.org/2000/svg">
<path d="M70 35C70 54.33 54.33 70 35 70C15.67 70 0 54.33 0 35C0 15.67 15.67 0 35 0C54.33 0 70 15.67 70 35Z" fill="#3671E5"/>
<path d="M33.3692 54.3871V15.6136H35.8531V54.3871H33.3692ZM39.9577 28.4119C39.8365 27.1901 39.3165 26.241 38.3976 25.5644C37.4788 24.8879 36.2318 24.5497 34.6566 24.5497C33.5863 24.5497 32.6826 24.7011 31.9455 25.004C31.2084 25.2969 30.6429 25.7058 30.2491 26.2309C29.8654 26.7559 29.6736 27.3517 29.6736 28.0181C29.6534 28.5734 29.7695 29.0581 30.0219 29.4721C30.2845 29.8861 30.6429 30.2445 31.0973 30.5474C31.5517 30.8403 32.0767 31.0977 32.6725 31.3199C33.2682 31.5319 33.9043 31.7137 34.5809 31.8651L37.3677 32.5316C38.7207 32.8345 39.9627 33.2384 41.0936 33.7432C42.2245 34.2481 43.2039 34.8691 44.0319 35.6062C44.8599 36.3433 45.5011 37.2116 45.9554 38.2113C46.4199 39.2109 46.6572 40.357 46.6673 41.6494C46.6572 43.5477 46.1725 45.1935 45.2133 46.587C44.2641 47.9703 42.8909 49.0457 41.0936 49.8131C39.3064 50.5703 37.1506 50.949 34.6263 50.949C32.1222 50.949 29.9412 50.5653 28.0833 49.7979C26.2355 49.0305 24.7915 47.8946 23.7515 46.3901C22.7216 44.8755 22.1814 43.0024 22.1309 40.7709H28.4771C28.5477 41.811 28.8456 42.6793 29.3707 43.376C29.9058 44.0627 30.6177 44.5827 31.5062 44.9361C32.4049 45.2794 33.4197 45.451 34.5506 45.451C35.6613 45.451 36.6256 45.2895 37.4434 44.9664C38.2714 44.6432 38.9126 44.1939 39.367 43.6184C39.8213 43.0428 40.0485 42.3815 40.0485 41.6343C40.0485 40.9375 39.8415 40.3519 39.4276 39.8773C39.0237 39.4028 38.4279 38.9989 37.6403 38.6657C36.8628 38.3324 35.9087 38.0295 34.7778 37.7569L31.4002 36.9087C28.785 36.2726 26.7201 35.278 25.2055 33.925C23.6909 32.5719 22.9387 30.7494 22.9488 28.4573C22.9387 26.5792 23.4385 24.9384 24.4482 23.5349C25.4681 22.1314 26.8665 21.0358 28.6437 20.2482C30.4208 19.4606 32.4402 19.0668 34.702 19.0668C37.0042 19.0668 39.0136 19.4606 40.7301 20.2482C42.4567 21.0358 43.7997 22.1314 44.7589 23.5349C45.7182 24.9384 46.2129 26.5641 46.2432 28.4119H39.9577Z" fill="white"/>
</svg>
