<svg width="70" height="70" viewBox="0 0 70 70" fill="none" xmlns="http://www.w3.org/2000/svg">
<path d="M19.1041 43.1296V21.8339H20.4683V43.1296H19.1041ZM22.7227 28.8631C22.6561 28.1921 22.3705 27.6708 21.8659 27.2992C21.3612 26.9277 20.6763 26.7419 19.8112 26.7419C19.2233 26.7419 18.727 26.8251 18.3221 26.9915C17.9173 27.1523 17.6067 27.3769 17.3905 27.6653C17.1797 27.9536 17.0744 28.2808 17.0744 28.6469C17.0633 28.9519 17.127 29.2181 17.2657 29.4454C17.4099 29.6728 17.6067 29.8697 17.8563 30.0361C18.1059 30.1969 18.3942 30.3383 18.7214 30.4603C19.0486 30.5768 19.398 30.6766 19.7696 30.7598L21.3002 31.1258C22.0433 31.2922 22.7255 31.514 23.3466 31.7913C23.9677 32.0686 24.5056 32.4096 24.9604 32.8145C25.4151 33.2193 25.7673 33.6963 26.0169 34.2453C26.272 34.7943 26.4023 35.4238 26.4078 36.1336C26.4023 37.1762 26.1361 38.0802 25.6092 38.8455C25.0879 39.6052 24.3337 40.1959 23.3466 40.6173C22.365 41.0333 21.181 41.2412 19.7945 41.2412C18.4192 41.2412 17.2213 41.0305 16.2009 40.609C15.186 40.1875 14.393 39.5637 13.8218 38.7373C13.2561 37.9055 12.9594 36.8767 12.9317 35.6511H16.4172C16.456 36.2223 16.6196 36.6993 16.908 37.0819C17.2019 37.459 17.5929 37.7446 18.0809 37.9388C18.5745 38.1273 19.1318 38.2216 19.7529 38.2216C20.363 38.2216 20.8926 38.1329 21.3418 37.9554C21.7966 37.7779 22.1487 37.5311 22.3983 37.215C22.6478 36.8989 22.7726 36.5357 22.7726 36.1253C22.7726 35.7426 22.6589 35.421 22.4315 35.1603C22.2097 34.8997 21.8825 34.6779 21.4499 34.4948C21.0229 34.3118 20.4988 34.1455 19.8777 33.9957L18.0227 33.5299C16.5863 33.1805 15.4522 32.6342 14.6204 31.8911C13.7885 31.148 13.3753 30.147 13.3809 28.8881C13.3753 27.8566 13.6499 26.9554 14.2044 26.1846C14.7646 25.4137 15.5326 24.812 16.5087 24.3794C17.4847 23.9468 18.5939 23.7306 19.8361 23.7306C21.1006 23.7306 22.2042 23.9468 23.1469 24.3794C24.0953 24.812 24.8328 25.4137 25.3597 26.1846C25.8865 26.9554 26.1583 27.8483 26.1749 28.8631H22.7227ZM28.7308 41V38.4046L34.7951 32.7895C35.3108 32.2904 35.7434 31.8412 36.0928 31.4419C36.4477 31.0426 36.7167 30.6516 36.8997 30.269C37.0827 29.8808 37.1742 29.4621 37.1742 29.0129C37.1742 28.5138 37.0605 28.084 36.8331 27.7235C36.6058 27.3575 36.2952 27.0774 35.9015 26.8833C35.5077 26.6837 35.0613 26.5838 34.5622 26.5838C34.0409 26.5838 33.5861 26.6892 33.1979 26.9C32.8097 27.1107 32.5102 27.4129 32.2995 27.8067C32.0888 28.2004 31.9834 28.669 31.9834 29.2125H28.5644C28.5644 28.0978 28.8168 27.1301 29.3214 26.3093C29.8261 25.4886 30.5332 24.8536 31.4427 24.4044C32.3522 23.9552 33.4003 23.7306 34.5871 23.7306C35.8072 23.7306 36.8692 23.9468 37.7731 24.3794C38.6826 24.8064 39.3897 25.3998 39.8944 26.1596C40.399 26.9194 40.6514 27.79 40.6514 28.7716C40.6514 29.4149 40.5238 30.0499 40.2687 30.6766C40.0192 31.3033 39.5727 31.9993 38.9294 32.7646C38.2861 33.5243 37.3794 34.4366 36.2092 35.5014L33.722 37.9388V38.0552H40.876V41H28.7308ZM49.7083 41.2329C48.5326 41.2329 47.4844 41.0166 46.5638 40.5841C45.6488 40.1515 44.9223 39.5553 44.3844 38.7956C43.8464 38.0358 43.5664 37.1651 43.5442 36.1835H47.038C47.0768 36.8435 47.3541 37.3786 47.8699 37.789C48.3856 38.1994 48.9984 38.4046 49.7083 38.4046C50.2739 38.4046 50.7731 38.2798 51.2056 38.0303C51.6437 37.7752 51.9848 37.423 52.2288 36.9738C52.4784 36.519 52.6031 35.9977 52.6031 35.4099C52.6031 34.811 52.4756 34.2841 52.2205 33.8294C51.9709 33.3746 51.6243 33.0197 51.1807 32.7646C50.737 32.5095 50.2296 32.3791 49.6584 32.3736C49.1592 32.3736 48.674 32.4762 48.2026 32.6814C47.7368 32.8866 47.3735 33.1666 47.1129 33.5216L43.9102 32.9476L44.7171 23.9635H55.132V26.9083H47.6868L47.246 31.1757H47.3458C47.6453 30.7542 48.0972 30.4049 48.7017 30.1276C49.3062 29.8503 49.9828 29.7116 50.7315 29.7116C51.7574 29.7116 52.6725 29.9529 53.4766 30.4354C54.2807 30.9178 54.9157 31.5806 55.3816 32.4235C55.8474 33.2609 56.0776 34.2259 56.072 35.3184C56.0776 36.4664 55.8114 37.4868 55.2734 38.3796C54.741 39.267 53.9951 39.9657 53.0357 40.4759C52.0818 40.9806 50.9727 41.2329 49.7083 41.2329Z" fill="white"/>
<rect x="8.00024" y="46" width="15" height="23" rx="1.00601" fill="#3671E5"/>
<rect x="27.0002" y="33" width="15" height="36" rx="1.00601" fill="#3671E5"/>
<rect x="45.9377" y="13.2415" width="15.046" height="55.7586" rx="1.00601" fill="#3671E5"/>
<path d="M53.4603 0L66.4905 22.569H40.4301L53.4603 0Z" fill="#3671E5"/>
</svg>
