<svg width="27" height="27" viewBox="0 0 27 27" fill="none" xmlns="http://www.w3.org/2000/svg">
<path fill-rule="evenodd" clip-rule="evenodd" d="M25.0338 0.555664H2.29955C1.52011 0.555664 0.888885 1.18689 0.888885 1.96633V24.7006C0.888885 25.48 1.52011 26.1112 2.29955 26.1112H14.5381V16.2148H11.2082V12.3585H14.5381V9.51289C14.5381 6.21111 16.5544 4.41455 19.4997 4.41455C20.9104 4.41455 22.1217 4.51933 22.4757 4.56661V8.01661H20.4338C18.8314 8.01661 18.5222 8.77816 18.5222 9.89494V12.3572H22.3415L21.8432 16.2136H18.5209V26.1112H25.0338C25.8132 26.1112 26.4444 25.48 26.4444 24.7006V1.96633C26.4444 1.18689 25.8132 0.555664 25.0338 0.555664Z" fill="white"/>
</svg>
