<svg width="313" height="49" viewBox="0 0 313 49" fill="none" xmlns="http://www.w3.org/2000/svg">
<g clip-path="url(#clip0_32_104)">
<path d="M6.50016 48.061C5.35433 48.061 4.37377 47.6534 3.5585 46.8381C2.74183 46.0215 2.3335 45.0402 2.3335 43.8944V23.061C2.3335 21.9152 2.74183 20.934 3.5585 20.1173C4.37377 19.302 5.35433 18.8944 6.50016 18.8944H25.2502V14.7277C25.2502 12.9916 24.6425 11.5159 23.4272 10.3006C22.212 9.08534 20.7363 8.4777 19.0002 8.4777C17.5766 8.4777 16.3182 8.9027 15.2252 9.7527C14.1307 10.6041 13.3925 11.6721 13.0106 12.9569C12.837 13.4777 12.5682 13.9027 12.2043 14.2319C11.8391 14.5624 11.4134 14.7277 10.9272 14.7277C10.2328 14.7277 9.67725 14.493 9.26058 14.0235C8.84391 13.5555 8.70502 13.0263 8.84391 12.436C9.36475 10.1096 10.5627 8.17353 12.4377 6.6277C14.3127 5.08326 16.5002 4.31104 19.0002 4.31104C21.8821 4.31104 24.3391 5.32631 26.371 7.35687C28.4016 9.38881 29.4168 11.8458 29.4168 14.7277V18.8944H31.5002C32.646 18.8944 33.6272 19.302 34.4439 20.1173C35.2592 20.934 35.6668 21.9152 35.6668 23.061V43.8944C35.6668 45.0402 35.2592 46.0215 34.4439 46.8381C33.6272 47.6534 32.646 48.061 31.5002 48.061H6.50016ZM19.0002 37.6444C20.146 37.6444 21.1272 37.2367 21.9439 36.4215C22.7592 35.6048 23.1668 34.6235 23.1668 33.4777C23.1668 32.3319 22.7592 31.3506 21.9439 30.534C21.1272 29.7187 20.146 29.311 19.0002 29.311C17.8543 29.311 16.8738 29.7187 16.0585 30.534C15.2418 31.3506 14.8335 32.3319 14.8335 33.4777C14.8335 34.6235 15.2418 35.6048 16.0585 36.4215C16.8738 37.2367 17.8543 37.6444 19.0002 37.6444Z" fill="#3671E5"/>
</g>
<path opacity="0.3" fill-rule="evenodd" clip-rule="evenodd" d="M277.183 8.60856C258.928 21.03 258 11.9072 240.82 10.8742C236.605 10.6207 232.584 13.0016 228.465 13.9356C224.347 14.8696 219.618 12.0676 215.5 13.9356C211.382 15.8036 207.874 18.341 203.755 21.143C199.637 23.9449 195.519 22.0768 191.4 24.8788C187.282 27.6807 182.947 30.4622 178.828 30.4622C174.71 30.4622 170.592 27.6806 166.473 27.6806C162.355 27.6806 158.784 34.4411 154.118 31.4164C141.763 23.407 128.707 26.2894 117.053 34.2183C112.935 37.0203 108.816 40.0203 104.698 37.2183C100.58 34.4163 96.2446 31.4164 92.1263 31.4164C88.0079 31.4164 83.8896 34.4163 79.7712 37.2183C71.3989 42.9145 61 40.3741 55.061 48.2275H57.2286C59.1794 48.2275 63.2978 48.2275 67.4161 48.2275C71.5345 48.2275 75.6529 48.2275 79.7712 48.2275C83.8896 48.2275 88.0079 48.2275 92.1263 48.2275C96.2446 48.2275 100.58 48.2275 104.698 48.2275C108.816 48.2275 112.935 48.2275 117.053 48.2275C121.171 48.2275 125.29 48.2275 129.408 48.2275C133.527 48.2275 137.645 48.2275 141.763 48.2275C145.882 48.2275 150 48.2275 154.118 48.2275C158.237 48.2275 162.355 48.2275 166.473 48.2275C170.592 48.2275 174.71 48.2275 178.828 48.2275C182.947 48.2275 187.282 48.2275 191.4 48.2275C195.519 48.2275 199.637 48.2275 203.755 48.2275C207.874 48.2275 211.992 48.2275 216.11 48.2275C220.229 48.2275 224.347 48.2275 228.465 48.2275C232.584 48.2275 236.702 48.2275 240.82 48.2275C244.939 48.2275 249.057 48.2275 253.176 48.2275C257.294 48.2275 261.412 48.2275 265.531 48.2275C269.649 48.2275 273.984 48.2275 278.102 48.2275C282.221 48.2275 286.339 48.2275 290.457 48.2275C294.576 48.2275 298.694 48.2275 302.812 48.2275C306.931 48.2275 311.049 48.2275 313 48.2275V0.199729C302.812 -0.15304 285.35 3.0511 277.183 8.60856Z" fill="#3671E5"/>
<defs>
<clipPath id="clip0_32_104">
<rect width="36" height="44" fill="white" transform="translate(0 4.22754)"/>
</clipPath>
</defs>
</svg>
