<svg width="28" height="28" viewBox="0 0 28 28" fill="none" xmlns="http://www.w3.org/2000/svg">
<path d="M18.2096 13.9723C18.2096 14.8215 17.9578 15.6515 17.486 16.3576C17.0142 17.0636 16.3437 17.6139 15.5592 17.9389C14.7747 18.2638 13.9115 18.3488 13.0786 18.1832C12.2458 18.0175 11.4808 17.6086 10.8804 17.0082C10.28 16.4077 9.87105 15.6427 9.70539 14.8099C9.53973 13.9771 9.62476 13.1138 9.94971 12.3293C10.2747 11.5448 10.8249 10.8743 11.531 10.4026C12.237 9.9308 13.0671 9.679 13.9162 9.679C15.0538 9.68254 16.1438 10.136 16.9482 10.9404C17.7526 11.7448 18.206 12.8348 18.2096 13.9723ZM27.3329 8.069V19.8757C27.3329 21.8683 26.5413 23.7794 25.1323 25.1884C23.7233 26.5974 21.8122 27.389 19.8196 27.389H8.0129C6.02024 27.389 4.10919 26.5974 2.70017 25.1884C1.29115 23.7794 0.499565 21.8683 0.499565 19.8757V8.069C0.499565 6.07634 1.29115 4.16529 2.70017 2.75627C4.10919 1.34724 6.02024 0.555664 8.0129 0.555664H19.8196C21.8122 0.555664 23.7233 1.34724 25.1323 2.75627C26.5413 4.16529 27.3329 6.07634 27.3329 8.069ZM20.3562 13.9723C20.3562 12.6986 19.9785 11.4535 19.2709 10.3945C18.5633 9.33541 17.5575 8.50998 16.3807 8.02255C15.204 7.53512 13.9091 7.40759 12.6599 7.65607C11.4106 7.90456 10.2631 8.51791 9.36246 9.41856C8.46181 10.3192 7.84846 11.4667 7.59998 12.7159C7.35149 13.9652 7.47902 15.2601 7.96645 16.4368C8.45388 17.6136 9.27931 18.6194 10.3384 19.327C11.3974 20.0346 12.6425 20.4123 13.9162 20.4123C15.6242 20.4123 17.2623 19.7338 18.47 18.5261C19.6777 17.3184 20.3562 15.6803 20.3562 13.9723ZM22.5029 6.99566C22.5029 6.67724 22.4085 6.36596 22.2316 6.1012C22.0547 5.83643 21.8032 5.63007 21.509 5.50822C21.2148 5.38636 20.8911 5.35448 20.5788 5.4166C20.2665 5.47872 19.9796 5.63206 19.7545 5.85722C19.5293 6.08238 19.376 6.36926 19.3138 6.68157C19.2517 6.99388 19.2836 7.3176 19.4055 7.61178C19.5273 7.90597 19.7337 8.15742 19.9984 8.33433C20.2632 8.51124 20.5745 8.60566 20.8929 8.60566C21.3199 8.60566 21.7294 8.43604 22.0313 8.13411C22.3333 7.83217 22.5029 7.42266 22.5029 6.99566Z" fill="white"/>
</svg>
