<svg width="356" height="333" viewBox="0 0 356 333" fill="none" xmlns="http://www.w3.org/2000/svg">
<g opacity="0.3">
<path d="M24.0206 65.6125H817.92" stroke="url(#paint0_linear_3353_328)" stroke-width="0.656115"/>
<path d="M2.84839 69.8078C2.38706 69.8078 1.97583 69.7286 1.61468 69.5702C1.25587 69.4117 0.97045 69.1915 0.758424 68.9096C0.548728 68.6254 0.43456 68.2957 0.41592 67.9206H1.29664C1.31528 68.1512 1.3945 68.3504 1.5343 68.5182C1.6741 68.6836 1.857 68.8118 2.083 68.9026C2.30901 68.9935 2.55948 69.0389 2.83441 69.0389C3.14197 69.0389 3.41457 68.9853 3.65223 68.8782C3.88988 68.771 4.07628 68.6219 4.21142 68.4308C4.34655 68.2398 4.41412 68.0184 4.41412 67.7668C4.41412 67.5035 4.34888 67.2717 4.21841 67.0713C4.08793 66.8686 3.89687 66.7101 3.64524 66.596C3.3936 66.4818 3.08605 66.4247 2.72258 66.4247H2.14941V65.6558H2.72258C3.00683 65.6558 3.25614 65.6046 3.47049 65.5021C3.68718 65.3995 3.8561 65.2551 3.97726 65.0687C4.10074 64.8823 4.16249 64.6633 4.16249 64.4116C4.16249 64.1693 4.1089 63.9585 4.00172 63.7791C3.89454 63.5997 3.7431 63.4599 3.54738 63.3597C3.35399 63.2595 3.12566 63.2094 2.86237 63.2094C2.6154 63.2094 2.3824 63.2548 2.16339 63.3457C1.9467 63.4342 1.76962 63.5635 1.63216 63.7336C1.49469 63.9014 1.42013 64.1041 1.40848 64.3417H0.569697C0.583677 63.9666 0.69668 63.6381 0.908706 63.3562C1.12073 63.0719 1.398 62.8506 1.7405 62.6921C2.08533 62.5337 2.46395 62.4545 2.87635 62.4545C3.31904 62.4545 3.69883 62.5442 4.0157 62.7236C4.33257 62.9007 4.57605 63.1348 4.74614 63.4261C4.91623 63.7173 5.00127 64.0319 5.00127 64.3697C5.00127 64.7728 4.89526 65.1165 4.68323 65.4007C4.47354 65.685 4.18812 65.8818 3.82697 65.9914V66.0473C4.27899 66.1218 4.63197 66.3141 4.88594 66.6239C5.1399 66.9315 5.26689 67.3124 5.26689 67.7668C5.26689 68.1559 5.16087 68.5054 4.94885 68.8153C4.73915 69.1228 4.45257 69.3651 4.08909 69.5422C3.72562 69.7193 3.31205 69.8078 2.84839 69.8078ZM8.93307 69.8078C8.523 69.8078 8.1537 69.7263 7.82518 69.5632C7.49665 69.4001 7.23337 69.1764 7.03532 68.8921C6.83728 68.6079 6.72893 68.284 6.71029 67.9206H7.54908C7.5817 68.2444 7.72848 68.5124 7.98944 68.7244C8.25272 68.9341 8.56727 69.0389 8.93307 69.0389C9.22664 69.0389 9.4876 68.9702 9.71594 68.8327C9.9466 68.6953 10.1272 68.5065 10.2576 68.2666C10.3905 68.0242 10.4569 67.7505 10.4569 67.4452C10.4569 67.133 10.3881 66.8546 10.2507 66.61C10.1155 66.363 9.92913 66.1684 9.69147 66.0263C9.45382 65.8842 9.18238 65.8119 8.87715 65.8096C8.65814 65.8073 8.4333 65.8411 8.20263 65.911C7.97196 65.9785 7.78207 66.0659 7.63296 66.1731L6.82213 66.0752L7.2555 62.5523H10.9741V63.3212H7.98245L7.73081 65.4322H7.77275C7.91954 65.3157 8.10361 65.219 8.32495 65.1421C8.5463 65.0652 8.77696 65.0268 9.01695 65.0268C9.45498 65.0268 9.84525 65.1316 10.1878 65.3413C10.5326 65.5487 10.8029 65.8329 10.9986 66.1941C11.1966 66.5552 11.2956 66.9676 11.2956 67.4313C11.2956 67.8879 11.1931 68.2957 10.9881 68.6545C10.7854 69.011 10.5058 69.2929 10.1493 69.5003C9.79282 69.7053 9.38741 69.8078 8.93307 69.8078ZM15.0186 69.8078C14.4921 69.8078 14.0435 69.6645 13.6731 69.3779C13.3026 69.089 13.0195 68.6708 12.8238 68.1233C12.6281 67.5734 12.5302 66.9094 12.5302 66.1312C12.5302 65.3576 12.6281 64.6971 12.8238 64.1495C13.0219 63.5997 13.3061 63.1803 13.6766 62.8913C14.0494 62.6001 14.4967 62.4545 15.0186 62.4545C15.5405 62.4545 15.9867 62.6001 16.3572 62.8913C16.73 63.1803 17.0142 63.5997 17.2099 64.1495C17.408 64.6971 17.507 65.3576 17.507 66.1312C17.507 66.9094 17.4092 67.5734 17.2134 68.1233C17.0177 68.6708 16.7346 69.089 16.3642 69.3779C15.9937 69.6645 15.5452 69.8078 15.0186 69.8078ZM15.0186 69.0389C15.5405 69.0389 15.9459 68.7873 16.2349 68.284C16.5238 67.7808 16.6682 67.0631 16.6682 66.1312C16.6682 65.5114 16.6018 64.9836 16.469 64.5479C16.3385 64.1122 16.1498 63.7802 15.9028 63.5519C15.6582 63.3236 15.3635 63.2094 15.0186 63.2094C14.5014 63.2094 14.0971 63.4645 13.8059 63.9748C13.5146 64.4827 13.369 65.2015 13.369 66.1312C13.369 66.7509 13.4343 67.2775 13.5647 67.7109C13.6952 68.1442 13.8828 68.4739 14.1274 68.6999C14.3744 68.9259 14.6715 69.0389 15.0186 69.0389Z" fill="#3671E5"/>
<path d="M24.0206 98.4187H817.92" stroke="url(#paint1_linear_3353_328)" stroke-width="0.656115"/>
<path d="M24.0206 131.222H817.92" stroke="url(#paint2_linear_3353_328)" stroke-width="0.656115"/>
<path d="M1.1905 135.315V134.686L3.55308 132.099C3.83034 131.796 4.05868 131.533 4.23808 131.31C4.41749 131.083 4.5503 130.871 4.63651 130.673C4.72504 130.473 4.76931 130.263 4.76931 130.044C4.76931 129.793 4.70873 129.575 4.58758 129.391C4.46875 129.207 4.30565 129.065 4.09829 128.964C3.89092 128.864 3.65793 128.814 3.3993 128.814C3.12437 128.814 2.88438 128.871 2.67934 128.985C2.47664 129.097 2.31937 129.254 2.20753 129.457C2.09802 129.66 2.04327 129.898 2.04327 130.17H1.21846C1.21846 129.751 1.31516 129.383 1.50854 129.066C1.70193 128.749 1.96521 128.502 2.2984 128.325C2.63391 128.148 3.0102 128.059 3.42726 128.059C3.84665 128.059 4.21828 128.148 4.54214 128.325C4.86601 128.502 5.11997 128.741 5.30404 129.041C5.4881 129.342 5.58014 129.676 5.58014 130.044C5.58014 130.308 5.53237 130.565 5.43685 130.817C5.34365 131.066 5.18055 131.344 4.94756 131.652C4.71689 131.957 4.39652 132.33 3.98645 132.77L2.37878 134.49V134.546H5.70596V135.315H1.1905ZM9.38612 135.413C8.97605 135.413 8.60675 135.331 8.27823 135.168C7.9497 135.005 7.68642 134.781 7.48837 134.497C7.29032 134.213 7.18198 133.889 7.16334 133.525H8.00213C8.03475 133.849 8.18153 134.117 8.44249 134.329C8.70577 134.539 9.02032 134.644 9.38612 134.644C9.67969 134.644 9.94065 134.575 10.169 134.437C10.3996 134.3 10.5802 134.111 10.7107 133.871C10.8435 133.629 10.9099 133.355 10.9099 133.05C10.9099 132.738 10.8412 132.459 10.7037 132.215C10.5686 131.968 10.3822 131.773 10.1445 131.631C9.90686 131.489 9.63542 131.417 9.3302 131.414C9.11118 131.412 8.88634 131.446 8.65568 131.516C8.42501 131.583 8.23512 131.671 8.086 131.778L7.27518 131.68L7.70855 128.157H11.4272V128.926H8.4355L8.18386 131.037H8.2258C8.37259 130.92 8.55666 130.824 8.778 130.747C8.99935 130.67 9.23001 130.631 9.47 130.631C9.90803 130.631 10.2983 130.736 10.6408 130.946C10.9856 131.153 11.2559 131.438 11.4516 131.799C11.6497 132.16 11.7487 132.572 11.7487 133.036C11.7487 133.493 11.6462 133.9 11.4411 134.259C11.2384 134.616 10.9588 134.898 10.6024 135.105C10.2459 135.31 9.84046 135.413 9.38612 135.413ZM15.4717 135.413C14.9451 135.413 14.4966 135.269 14.1261 134.983C13.7557 134.694 13.4726 134.276 13.2769 133.728C13.0811 133.178 12.9833 132.514 12.9833 131.736C12.9833 130.962 13.0811 130.302 13.2769 129.754C13.4749 129.204 13.7592 128.785 14.1296 128.496C14.5024 128.205 14.9498 128.059 15.4717 128.059C15.9936 128.059 16.4398 128.205 16.8102 128.496C17.183 128.785 17.4673 129.204 17.663 129.754C17.861 130.302 17.9601 130.962 17.9601 131.736C17.9601 132.514 17.8622 133.178 17.6665 133.728C17.4708 134.276 17.1877 134.694 16.8172 134.983C16.4468 135.269 15.9982 135.413 15.4717 135.413ZM15.4717 134.644C15.9936 134.644 16.399 134.392 16.6879 133.889C16.9768 133.385 17.1213 132.668 17.1213 131.736C17.1213 131.116 17.0549 130.588 16.9221 130.153C16.7916 129.717 16.6029 129.385 16.3559 129.157C16.1112 128.928 15.8165 128.814 15.4717 128.814C14.9544 128.814 14.5502 129.069 14.2589 129.58C13.9677 130.087 13.8221 130.806 13.8221 131.736C13.8221 132.356 13.8873 132.882 14.0178 133.316C14.1483 133.749 14.3358 134.079 14.5805 134.305C14.8274 134.531 15.1245 134.644 15.4717 134.644Z" fill="#3671E5"/>
<path d="M24.0206 164.028H817.92" stroke="url(#paint3_linear_3353_328)" stroke-width="0.656115"/>
<path d="M24.0206 196.834H817.92" stroke="url(#paint4_linear_3353_328)" stroke-width="0.656115"/>
<path d="M4.20839 193.77V200.927H3.34164V194.678H3.2997L1.55224 195.839V194.958L3.34164 193.77H4.20839ZM8.50366 201.025C8.09359 201.025 7.72429 200.944 7.39576 200.78C7.06724 200.617 6.80396 200.394 6.60591 200.109C6.40786 199.825 6.29952 199.501 6.28088 199.138H7.11966C7.15228 199.462 7.29907 199.73 7.56003 199.942C7.82331 200.151 8.13785 200.256 8.50366 200.256C8.79723 200.256 9.05819 200.187 9.28652 200.05C9.51719 199.913 9.69776 199.724 9.82824 199.484C9.96104 199.242 10.0274 198.968 10.0274 198.663C10.0274 198.35 9.95871 198.072 9.82125 197.827C9.68611 197.58 9.49971 197.386 9.26206 197.244C9.0244 197.101 8.75296 197.029 8.44774 197.027C8.22872 197.025 8.00388 197.058 7.77322 197.128C7.54255 197.196 7.35266 197.283 7.20354 197.39L6.39272 197.293L6.82609 193.77H10.5447V194.539H7.55304L7.3014 196.649H7.34334C7.49013 196.533 7.67419 196.436 7.89554 196.359C8.11689 196.282 8.34755 196.244 8.58754 196.244C9.02557 196.244 9.41583 196.349 9.75834 196.559C10.1032 196.766 10.3734 197.05 10.5692 197.411C10.7672 197.772 10.8662 198.185 10.8662 198.649C10.8662 199.105 10.7637 199.513 10.5587 199.872C10.356 200.228 10.0764 200.51 9.71989 200.718C9.36341 200.923 8.958 201.025 8.50366 201.025ZM14.5892 201.025C14.0626 201.025 13.6141 200.882 13.2437 200.595C12.8732 200.306 12.5901 199.888 12.3944 199.341C12.1987 198.791 12.1008 198.127 12.1008 197.348C12.1008 196.575 12.1987 195.914 12.3944 195.367C12.5924 194.817 12.8767 194.398 13.2472 194.109C13.6199 193.817 14.0673 193.672 14.5892 193.672C15.1111 193.672 15.5573 193.817 15.9278 194.109C16.3006 194.398 16.5848 194.817 16.7805 195.367C16.9786 195.914 17.0776 196.575 17.0776 197.348C17.0776 198.127 16.9797 198.791 16.784 199.341C16.5883 199.888 16.3052 200.306 15.9348 200.595C15.5643 200.882 15.1158 201.025 14.5892 201.025ZM14.5892 200.256C15.1111 200.256 15.5165 200.005 15.8054 199.501C16.0944 198.998 16.2388 198.28 16.2388 197.348C16.2388 196.729 16.1724 196.201 16.0396 195.765C15.9091 195.33 15.7204 194.998 15.4734 194.769C15.2288 194.541 14.934 194.427 14.5892 194.427C14.072 194.427 13.6677 194.682 13.3765 195.192C13.0852 195.7 12.9396 196.419 12.9396 197.348C12.9396 197.968 13.0048 198.495 13.1353 198.928C13.2658 199.362 13.4534 199.691 13.698 199.917C13.945 200.143 14.242 200.256 14.5892 200.256Z" fill="#3671E5"/>
<path d="M24.0206 229.64H817.92" stroke="url(#paint5_linear_3353_328)" stroke-width="0.656115"/>
<path d="M24.0206 262.447H817.92" stroke="#3671E5" stroke-width="0.656115"/>
<path d="M9.37503 266.637C8.96495 266.637 8.59566 266.556 8.26713 266.393C7.93861 266.23 7.67532 266.006 7.47728 265.722C7.27923 265.437 7.17089 265.114 7.15225 264.75H7.99103C8.02365 265.074 8.17044 265.342 8.4314 265.554C8.69468 265.764 9.00922 265.869 9.37503 265.869C9.6686 265.869 9.92956 265.8 10.1579 265.662C10.3886 265.525 10.5691 265.336 10.6996 265.096C10.8324 264.854 10.8988 264.58 10.8988 264.275C10.8988 263.963 10.8301 263.684 10.6926 263.44C10.5575 263.193 10.3711 262.998 10.1334 262.856C9.89577 262.714 9.62433 262.642 9.31911 262.639C9.10009 262.637 8.87525 262.671 8.64459 262.741C8.41392 262.808 8.22403 262.896 8.07491 263.003L7.26409 262.905L7.69746 259.382H11.4161V260.151H8.42441L8.17277 262.262H8.21471C8.3615 262.145 8.54556 262.049 8.76691 261.972C8.98825 261.895 9.21892 261.856 9.45891 261.856C9.89694 261.856 10.2872 261.961 10.6297 262.171C10.9745 262.378 11.2448 262.663 11.4405 263.024C11.6386 263.385 11.7376 263.797 11.7376 264.261C11.7376 264.718 11.6351 265.125 11.43 265.484C11.2273 265.841 10.9477 266.122 10.5913 266.33C10.2348 266.535 9.82937 266.637 9.37503 266.637ZM15.4606 266.637C14.934 266.637 14.4855 266.494 14.115 266.208C13.7446 265.919 13.4615 265.5 13.2658 264.953C13.07 264.403 12.9722 263.739 12.9722 262.961C12.9722 262.187 13.07 261.527 13.2658 260.979C13.4638 260.429 13.7481 260.01 14.1185 259.721C14.4913 259.43 14.9387 259.284 15.4606 259.284C15.9825 259.284 16.4287 259.43 16.7991 259.721C17.1719 260.01 17.4562 260.429 17.6519 260.979C17.8499 261.527 17.949 262.187 17.949 262.961C17.949 263.739 17.8511 264.403 17.6554 264.953C17.4597 265.5 17.1766 265.919 16.8061 266.208C16.4357 266.494 15.9871 266.637 15.4606 266.637ZM15.4606 265.869C15.9825 265.869 16.3879 265.617 16.6768 265.114C16.9657 264.61 17.1102 263.893 17.1102 262.961C17.1102 262.341 17.0438 261.813 16.911 261.378C16.7805 260.942 16.5918 260.61 16.3448 260.381C16.1002 260.153 15.8054 260.039 15.4606 260.039C14.9433 260.039 14.5391 260.294 14.2478 260.804C13.9566 261.312 13.811 262.031 13.811 262.961C13.811 263.581 13.8762 264.107 14.0067 264.54C14.1372 264.974 14.3247 265.304 14.5694 265.53C14.8163 265.756 15.1134 265.869 15.4606 265.869Z" fill="#3671E5"/>
<path d="M24.0206 295.253H817.92" stroke="#3671E5" stroke-width="0.656115"/>
<path d="M24.0551 327.727H817.955" stroke="#3671E5" stroke-width="0.656115"/>
<path d="M24.0551 327.727H817.955" stroke="url(#paint6_linear_3353_328)" stroke-width="0.656115"/>
<path d="M15.4775 332.25C14.9509 332.25 14.5024 332.107 14.132 331.82C13.7615 331.531 13.4784 331.113 13.2827 330.565C13.087 330.016 12.9891 329.351 12.9891 328.573C12.9891 327.8 13.087 327.139 13.2827 326.592C13.4807 326.042 13.765 325.622 14.1355 325.333C14.5083 325.042 14.9556 324.897 15.4775 324.897C15.9994 324.897 16.4456 325.042 16.8161 325.333C17.1889 325.622 17.4731 326.042 17.6688 326.592C17.8669 327.139 17.9659 327.8 17.9659 328.573C17.9659 329.351 17.868 330.016 17.6723 330.565C17.4766 331.113 17.1935 331.531 16.8231 331.82C16.4526 332.107 16.0041 332.25 15.4775 332.25ZM15.4775 331.481C15.9994 331.481 16.4048 331.229 16.6938 330.726C16.9827 330.223 17.1271 329.505 17.1271 328.573C17.1271 327.954 17.0607 327.426 16.9279 326.99C16.7974 326.554 16.6087 326.222 16.3617 325.994C16.1171 325.766 15.8223 325.652 15.4775 325.652C14.9603 325.652 14.556 325.907 14.2648 326.417C13.9735 326.925 13.8279 327.644 13.8279 328.573C13.8279 329.193 13.8931 329.72 14.0236 330.153C14.1541 330.586 14.3417 330.916 14.5863 331.142C14.8333 331.368 15.1304 331.481 15.4775 331.481Z" fill="#3671E5"/>
</g>
<defs>
<linearGradient id="paint0_linear_3353_328" x1="420.97" y1="65.6125" x2="24.0206" y2="65.6125" gradientUnits="userSpaceOnUse">
<stop stop-color="#3671E5" stop-opacity="0"/>
<stop offset="1" stop-color="#3671E5"/>
</linearGradient>
<linearGradient id="paint1_linear_3353_328" x1="420.97" y1="98.4187" x2="24.0206" y2="98.4187" gradientUnits="userSpaceOnUse">
<stop stop-color="#3671E5" stop-opacity="0"/>
<stop offset="1" stop-color="#3671E5"/>
</linearGradient>
<linearGradient id="paint2_linear_3353_328" x1="420.97" y1="131.222" x2="24.0206" y2="131.222" gradientUnits="userSpaceOnUse">
<stop stop-color="#3671E5" stop-opacity="0"/>
<stop offset="1" stop-color="#3671E5"/>
</linearGradient>
<linearGradient id="paint3_linear_3353_328" x1="420.97" y1="164.028" x2="24.0206" y2="164.028" gradientUnits="userSpaceOnUse">
<stop stop-color="#3671E5" stop-opacity="0"/>
<stop offset="1" stop-color="#3671E5"/>
</linearGradient>
<linearGradient id="paint4_linear_3353_328" x1="420.97" y1="196.834" x2="24.0206" y2="196.834" gradientUnits="userSpaceOnUse">
<stop stop-color="#3671E5" stop-opacity="0"/>
<stop offset="1" stop-color="#3671E5"/>
</linearGradient>
<linearGradient id="paint5_linear_3353_328" x1="420.97" y1="229.64" x2="24.0206" y2="229.64" gradientUnits="userSpaceOnUse">
<stop stop-color="#3671E5" stop-opacity="0"/>
<stop offset="1" stop-color="#3671E5"/>
</linearGradient>
<linearGradient id="paint6_linear_3353_328" x1="421.005" y1="327.727" x2="24.0551" y2="327.727" gradientUnits="userSpaceOnUse">
<stop stop-color="#3671E5" stop-opacity="0"/>
<stop offset="1" stop-color="#3671E5"/>
</linearGradient>
</defs>
</svg>
