<svg width="26" height="27" viewBox="0 0 26 27" fill="none" xmlns="http://www.w3.org/2000/svg">
<path d="M22.8263 0.555664C23.5794 0.555664 24.3016 0.854825 24.8341 1.38734C25.3666 1.91985 25.6658 2.64209 25.6658 3.39517V23.2717C25.6658 24.0248 25.3666 24.747 24.8341 25.2795C24.3016 25.8121 23.5794 26.1112 22.8263 26.1112H2.94975C2.19667 26.1112 1.47443 25.8121 0.941917 25.2795C0.409406 24.747 0.110245 24.0248 0.110245 23.2717V3.39517C0.110245 2.64209 0.409406 1.91985 0.941917 1.38734C1.47443 0.854825 2.19667 0.555664 2.94975 0.555664H22.8263ZM22.1164 22.5618V15.0371C22.1164 13.8096 21.6288 12.6324 20.7608 11.7644C19.8928 10.8964 18.7155 10.4087 17.488 10.4087C16.2812 10.4087 14.8757 11.147 14.1942 12.2544V10.6785H10.2331V22.5618H14.1942V15.5625C14.1942 14.4692 15.0744 13.5748 16.1677 13.5748C16.6948 13.5748 17.2004 13.7842 17.5731 14.157C17.9459 14.5297 18.1553 15.0353 18.1553 15.5625V22.5618H22.1164ZM5.61889 8.44949C6.25148 8.44949 6.85816 8.1982 7.30547 7.75089C7.75278 7.30358 8.00407 6.6969 8.00407 6.06431C8.00407 4.74394 6.93926 3.66492 5.61889 3.66492C4.98253 3.66492 4.37224 3.91771 3.92227 4.36769C3.4723 4.81766 3.2195 5.42795 3.2195 6.06431C3.2195 7.38468 4.29852 8.44949 5.61889 8.44949M7.59234 22.5618V10.6785H3.65963V22.5618H7.59234V22.5618Z" fill="white"/>
</svg>
