<svg width="694" height="442" viewBox="0 0 694 442" fill="none" xmlns="http://www.w3.org/2000/svg">
<path d="M478.902 350.18L479.205 344.657L478.524 343.749L477.238 343.22L475.348 341.102L475.726 338.908L512.634 335.049L512.105 333.385L510.97 332.25L510.592 331.191L511.046 326.425L509.231 322.112L509.609 320.145L509.836 317.346L511.5 314.471L511.349 313.639L510.063 312.882V310.462L508.701 309.024L506.508 304.409L496.752 269.759L462.188 272.786L463.171 274.299L462.188 324.987L465.516 350.104L466.196 349.726L467.179 349.802L467.633 350.104L468.238 350.029L469.751 347.154V345.414L470.583 344.582L471.642 344.96L474.213 349.802V350.483L471.717 352.147L474.364 351.845L478.07 350.634L478.902 350.18Z" fill="#EDEFF1"/>
<path d="M4.5386 429.314H6.35377L6.88319 429.844L6.12687 430.752L4.68986 430.903L2.79906 431.887L0.000671387 431.811L1.66458 431.13L1.89147 430.298L3.78228 430.071L4.5386 429.314ZM10.8161 428.028L11.7993 428.407H12.48L12.8581 429.314L13.085 428.861L13.7657 429.012L14.5977 430.147V430.525L11.4211 431.962L9.60594 431.887L8.84962 431.508L8.01767 432.038H6.50503L5.67308 430.979L9.22779 430.601L10.8161 428.028ZM14.9002 427.953L15.6565 428.028L16.1859 428.558V429.314L15.2027 429.39L14.522 428.558L14.9002 427.953ZM16.791 428.18L17.7742 428.104L17.6986 428.861L16.8666 429.314L16.791 428.18ZM17.0179 429.844L19.5894 429.768L19.7406 430.601L18.7574 430.676L18.5305 430.298L17.9255 430.752L17.6229 430.298L16.9423 430.147L17.0179 429.844ZM142.794 435.594L144.382 435.669L143.626 437.107L142.794 437.031L142.492 436.426L142.87 435.442L142.794 435.594ZM142.038 433.248L142.492 432.265L142.34 430.525L144.155 430.147L147.559 433.475L148.542 436.048L149.979 437.258L150.206 441.117H149.147L148.164 439.376L145.819 437.561H145.366L146.197 439.679L147.483 439.83L147.634 441.419L146.954 441.495L143.853 438.166L143.777 437.485L145.214 436.729V435.972L144.836 435.367L143.626 434.913L142.34 433.929L143.399 434.005L143.777 433.702L143.323 433.022L142.87 433.4L142.038 433.248ZM139.315 426.364L140.298 426.44L142.113 428.331L141.962 428.936L141.357 428.861L141.281 430.222L141.66 430.601V431.735L141.054 431.962L140.752 432.87L140.147 432.568L139.844 430.903L140.676 429.844L139.088 428.18L139.164 427.272L139.315 426.364ZM140.449 425.229L141.886 425.38L143.777 425.456L146.349 427.877L146.197 428.255L145.366 428.709L144.534 428.558L144.458 428.028L143.55 426.818L143.323 427.347L144.08 428.331L143.929 429.239L143.323 429.163L142.34 429.314L142.265 428.028L140.298 425.91L140.449 425.229ZM130.844 418.496L131.525 418.193H132.735L133.264 417.815L136.365 419.479L136.441 420.614L136.063 420.992H135.458L134.399 420.463L135.231 421.446H136.592L136.97 422.959H136.29L134.626 421.825L133.794 421.673L134.248 422.657L134.323 423.338L134.928 422.884L136.214 423.792L137.197 423.716L137.046 424.321L138.483 427.574V430.147L138.786 431.735L138.18 431.962L137.273 430.449L136.895 429.314L135.685 428.104L135.533 426.061L135.08 424.775H134.55L134.777 425.607V425.986L133.718 426.742L133.794 424.246L132.584 423.035L131.6 421.295L130.693 420.387L130.844 418.496ZM136.29 416.756L137.122 418.118L138.937 418.042L139.693 419.631L139.239 420.085L140.752 422.506V423.489L139.844 424.094V424.624L138.332 426.061L137.954 425.002L137.878 424.019L138.332 423.489V422.657L137.197 421.219L136.819 418.42L136.138 417.285L136.29 416.756ZM93.4063 402.911L90.381 406.013V407.223L91.9693 406.618L92.5743 405.181L94.2382 403.365L93.4063 402.911ZM69.5065 415.47V415.924L70.8679 416.831L71.0192 415.772L71.473 416.453L74.1201 416.529L74.6495 416.075L74.8008 414.713L74.4226 414.184H73.3638V413.578L73.6663 413.124V412.822L72.5318 412.595L70.036 415.318L69.5065 415.47ZM63.3803 420.16L64.5148 424.548H66.1031L67.9183 422.657L68.1452 423.565L72.91 420.539L73.4394 419.782L72.6831 418.95V418.42L73.0613 417.437L72.3806 417.361L70.8679 418.118V417.21L68.8259 416.756L67.0107 416.983L66.8594 419.555L66.2544 418.042L65.1199 417.966L64.3636 418.42L63.3803 420.16ZM61.7164 426.364L61.7921 425.834L63.3803 424.851L63.8341 425.078L64.8174 425.229L65.8006 426.137L64.1367 425.986L63.8341 425.532L63.0778 425.986L61.7164 426.364ZM57.7836 428.861L56.9516 429.466L58.0861 430.525L58.6912 429.995L58.6155 429.012L57.7836 428.861ZM53.0188 422.884L54.0776 422.959L54.3801 423.413L53.0188 423.489V422.884ZM42.5059 431.887V432.265L43.0353 432.341L42.9597 431.887H42.5059ZM42.2034 429.466L41.447 430.222V430.601L41.9765 431.433L42.7328 430.676L42.2034 430.601V429.466ZM40.6907 428.861L40.4638 429.617L39.4806 429.693L39.1781 429.844V430.828L38.7999 431.508H39.2537L39.7831 430.828L40.3882 430.752L41.0689 429.995L41.2202 429.012L40.6907 428.861ZM37.3629 427.347L37.2117 428.709L38.2705 429.314L39.1781 428.861V428.104L40.4638 427.877L40.3882 427.423L39.7075 427.272L39.1781 427.726L38.4974 427.347H37.3629ZM33.6569 427.272L34.4133 427.801L34.1864 428.709L33.1275 427.877L33.6569 427.272ZM30.4804 428.255L31.5392 428.331L31.0098 428.936L30.4804 428.255ZM27.8333 430.525L29.1947 431.357L27.9089 431.433L27.8333 430.525ZM8.62273 406.921L9.53031 407.375L8.92526 407.829L8.62273 406.921ZM8.0933 402.154L8.39583 403.062L9.00089 402.154H8.0933ZM26.4719 387.553L27.6064 387.478L28.2871 387.78L29.119 387.402L30.1022 387.326L31.3124 387.931L31.9174 389.369L31.8418 390.05L30.9342 391.563L29.119 391.412L27.5307 390.05L26.7744 389.747L25.9425 388.234L26.4719 387.553ZM10.5135 376.659L10.5892 378.096L12.1018 379.609V379.988L11.4967 379.836L10.211 379.231L9.98411 378.399L9.75721 377.189L10.5135 376.659ZM24.3542 359.031V359.939L25.7912 361.301H27.5307L27.9845 362.133V363.344L29.5728 364.781L30.9342 365.689L30.8586 366.219L30.3291 367.051L29.2703 366.143L27.682 366.219L27.077 365.613L26.3963 364.025L25.2618 362.36L23.2954 362.285L22.539 361.755L23.2954 360.166L24.3542 359.031ZM37.0604 355.627H37.8167L37.8923 356.459H37.136L37.0604 355.627ZM49.3128 370.531L49.9935 370.607V371.514L48.7077 371.136L49.3128 370.531ZM145.971 429.314L145.063 429.617L144.987 430.449H145.895L145.971 429.314ZM26.7744 425.91L25.7912 425.607L22.6903 426.061L20.5726 427.12L20.497 428.558L21.934 429.087L23.0685 428.407L24.3542 428.331L27.9089 429.39L27.9845 428.407L26.7744 427.574V425.91ZM28.3627 427.65L28.0602 426.591L28.9678 426.742L29.0434 427.801H30.4048L30.7073 425.91L30.9342 427.726L32.825 427.65L35.2452 425.153L35.8503 425.229L35.3209 426.213L36.3797 426.893L39.5562 426.742L41.5227 425.834L42.5815 425.759L42.8084 426.893L43.2622 426.515L43.5648 425.456L48.027 425.607L49.464 424.397L48.4808 423.565L48.9346 422.657L50.9011 422.808L50.7498 421.9L52.6406 422.052L53.17 421.219L54.002 421.371L57.481 419.933L57.6323 418.647L61.8677 416.831L63.3803 415.394L64.2879 414.94L65.2711 415.545L67.0107 414.864L67.8426 413.427L68.2208 412.444L69.5065 411.763L70.641 411.233L70.9436 410.174L70.1116 408.888L68.4477 408.736L68.2964 407.753L68.9015 406.542L69.9603 406.391L70.9436 405.256L72.3806 405.181L74.9521 402.76L75.2546 401.701L76.3891 399.961L79.2631 396.859L81.1539 396.178L82.5909 395.497L84.1792 396.102L85.238 398.069H84.1035L83.0447 396.934L80.7757 398.447L79.49 398.523L79.3387 400.868L76.9941 404.575L77.4479 406.089H79.1875L78.7337 406.845L77.6748 406.921L75.8596 408.283V408.963L77.2967 409.72L79.8681 409.266L80.927 407.98L81.9858 408.056L84.2548 406.769L84.633 405.029L85.8431 404.954L90.6079 405.559L91.3642 404.727L92.1205 401.322L90.9104 402.154L91.3642 400.49L90.1541 399.431L90.7592 398.296L90.8348 399.431H93.4063L93.9357 398.674L95.1458 398.599L94.9189 399.885L96.3559 399.961L94.9189 400.944L98.0198 401.776L95.3727 402.079L94.3895 402.987L95.0702 404.046L98.5493 402.76L100.289 404.046L100.818 403.365L101.272 404.424L104.297 406.164H106.491L109.44 405.786L112.692 406.618L114.205 408.056L117.609 408.358L118.97 407.223L119.575 409.039L118.214 409.569L119.121 410.476L124.718 413.351L125.777 415.243L129.861 418.345L132.357 416.831L131.903 415.167L129.256 413.654L131.6 414.562L131.979 414.032L132.659 415.016V417.058L134.248 416.605L135.836 417.966L133.945 410.552L134.853 411.536L135.912 416.075L137.575 417.966L139.391 417.664L140.752 420.312H141.433L141.886 424.548L144.458 424.926L145.668 426.591L147.029 427.423L147.332 429.541L145.971 431.508L148.164 432.719L149.071 430.903L148.92 433.248L148.315 433.929L149.374 435.215L149.903 433.4L149.752 432.492L150.357 432.643L150.811 434.383L150.055 435.442L150.508 437.409L150.887 437.712L151.114 436.502L151.643 436.956L151.416 438.469L152.324 438.62L152.021 439.301L153.307 439.225V438.469H152.551L152.626 437.183L152.021 436.729L153.307 436.502L153.685 435.896V434.686L154.063 435.669L153.609 437.031L154.517 439.982L155.878 440.057L157.542 436.88L157.618 435.442L156.635 432.416L156.559 431.508L156.937 430.601L156.408 430.071L155.122 430.147L153.231 428.634H151.946L150.433 427.574H149.298L148.92 426.364L147.861 426.137L147.71 425.002L146.954 424.624L147.029 423.338L143.172 417.739L141.811 416.605V415.697L138.559 413.049L138.029 412.217L136.819 410.703L135.382 410.25V408.585L134.475 407.602L133.189 407.072L131.6 408.056L130.39 409.644L130.088 411.46L128.953 411.536L127.063 413.578L126.458 413.351V411.46L124.642 409.796L122.903 408.283L122.525 406.769L120.634 405.786L120.785 404.122L118.667 404.046L118.138 404.878H117.23L116.701 404.348L115.793 404.954L114.432 404.046V339.134L109.213 336.033L107.852 335.654L106.188 336.486L104.524 336.562L102.785 335.352L99.5325 334.898L95.1458 332.174L90.8348 331.872L89.3222 332.25L89.1709 330.888L87.8095 330.358L88.6415 329.602L88.4902 328.921L86.07 328.089H84.2548L83.9523 328.391L83.2716 327.937L83.3472 325.97L82.7422 325.29L80.8514 327.484L80.2463 327.408V326.803L81.5321 326.197V325.592L80.095 323.776L79.2631 323.701L75.8596 326.046H72.91L73.2125 325.365L71.8511 325.29L67.9183 327.862H66.5569L66.1031 327.257L64.061 328.391L61.3383 331.191L59.2206 333.233L58.0861 334.141L56.1197 334.217L54.4558 333.914L52.7162 332.931L50.5985 335.881L50.5229 337.697L52.4893 339.513L54.0776 342.917L54.2289 346.927L56.4222 348.44L58.9937 348.742L59.5231 349.348L58.3886 351.088L58.9181 353.13L57.6323 351.163V349.348L56.4978 349.121L56.5735 350.029L57.1029 351.617L59.2962 354.417H58.2374L56.5735 355.249L51.8843 353.357L51.8086 351.844L52.8675 350.861V349.802L51.2792 349.423L49.5397 349.575L45.9093 349.726L47.0438 351.466L45.6068 350.104L39.2537 351.012L38.6487 352.147L42.3546 355.703L41.7496 356.762L41.5227 358.275L40.9933 358.88L40.9176 360.318L44.2454 363.041L47.3464 363.192L50.8254 364.63H52.3381L52.9431 364.176L55.8171 364.252L55.8928 363.646L56.8004 364.479L56.876 365.992L54.9852 365.916L55.0608 368.413L55.439 370.834L53.2456 372.876L51.8086 372.801L50.296 372.195L49.5397 372.271L47.1951 373.86L45.9093 374.011L44.8505 371.893H42.5059L40.842 373.406L40.4638 374.768L37.968 376.129L33.9595 379.383L33.7326 381.728L34.262 383.392L35.0183 384.3L35.7746 383.997L36.4553 384.754L35.8503 385.208L34.7158 385.889L35.5477 387.024L33.5813 387.856L34.1864 389.52L35.4721 391.26L36.0772 394.362L39.1025 395.497L41.0689 394.892L42.3546 394.059L42.7328 395.648L42.9597 398.977L41.5227 400.036V403.365L41.0689 404.046H39.7831L41.0689 404.954L42.6572 404.878L42.9597 404.122L46.4388 403.668L47.9514 405.635L48.9346 405.105L49.9178 408.963L50.6742 409.342L51.4305 408.812L51.5061 406.996L52.1868 406.24L52.7162 407.072L52.8675 408.283L54.0776 408.585L57.6323 407.677L57.7836 408.585L56.2709 409.417L55.0608 410.703L52.9431 415.999L49.6909 417.512L48.6321 418.647L48.4052 419.706L47.6489 419.252L40.6151 421.749L39.2537 424.851L38.2705 424.548L38.6487 423.716L37.5142 422.657L34.8671 422.506L30.8586 424.926L29.1947 425.91H27.4551L27.077 427.726L28.3627 427.65Z" fill="#EDEFF1"/>
<path d="M98.1703 289.808L100.439 288.143L101.044 286.328L100.288 285.117L98.9266 284.966L98.0947 283.756L98.9266 278.535L100.137 278.308L101.952 275.887L103.162 270.592L104.977 267.868L108.608 266.582L109.591 265.598L109.288 264.161L107.549 262.27L106.641 257.882L105.582 256.52L104.599 253.948L105.28 252.359L106.339 250.089L106.717 247.895L106.339 244.188L107.095 233.899L109.742 233.445L112.54 234.504L113.448 236.547H114.961L116.776 234.353L119.347 221.114L154.289 227.317L184.542 231.857L171.382 325.744L143.171 321.658L94.6156 293.288L94.9938 291.094L96.5064 289.732L98.1703 289.808Z" fill="#EDEFF1"/>
<path d="M434.432 274.223L435.113 272.558L436.021 272.937L436.55 272.18L435.945 271.65L436.172 270.516L435.34 269.835L435.794 269.078L435.718 267.943L434.886 267.868L435.491 267.262L436.475 267.868L436.701 266.809L436.399 265.976L436.475 265.447L437.987 265.901L437.685 264.766L438.895 263.782L438.517 263.101L437.685 263.177L437.231 262.496L437.912 261.815L439.122 261.664L439.5 261.059L440.559 260.908L440.483 260.302L439.802 259.621V259.243H440.937L441.239 258.714L440.18 257.957L440.105 257.503L431.634 258.108L433.752 254.25L435.038 253.115V251.451L433.827 249.559L403.726 251.072L374.154 251.602L377.255 270.062L376.725 299.567L378.692 301.307L380.809 300.323L383.23 300.929L383.381 309.932L422.936 308.948L423.844 307.813L424.222 305.544L423.088 303.804L422.709 302.139L423.39 301.61V301.004L422.104 300.172L422.029 299.643L423.239 298.962L422.331 298.13L423.617 292.758L426.189 291.548V290.942L425.357 289.883L427.55 285.798H428.987L430.121 284.89L429.895 280.956L432.239 277.552L433.6 277.098L433.222 274.752L434.432 274.223Z" fill="#EDEFF1"/>
<path d="M45.0782 273.164L47.6496 277.098L46.5908 277.173L45.2294 275.736L45.0782 273.164ZM46.5152 265.75L47.8765 268.852L49.843 269.608L50.3724 269.154L49.3892 267.263L47.4227 265.447L46.5152 265.75ZM31.4644 251.375V253.191L32.977 254.099L36.3048 253.948L37.0611 253.191L34.7166 253.04L31.4644 251.375ZM27.0021 251.451L29.4979 251.829L30.5568 253.494H27.6828L27.0021 251.451ZM63.2299 285.874L62.4735 283.604L62.6248 281.334L62.3223 275.358L60.9609 271.726L60.0533 270.667L59.5995 269.532L54.3053 263.026L51.5825 263.102L50.0699 261.664L50.9018 260.303L50.3724 257.503L48.7085 256.596L45.7588 256.142L43.6411 255.158L42.5067 253.721L39.1032 248.727L37.0611 247.063L34.2628 246.685L31.9182 244.945L28.3635 243.81L26.2458 243.583L24.355 241.692L24.5062 239.573L25.1113 235.942L26.4727 232.083L25.4138 230.873L22.3885 223.761L20.3465 220.962L20.0439 218.693L18.8338 216.953L18.9851 215.061L17.4724 211.278L15.2791 209.236L15.7329 203.864L17.5481 203.259L18.9095 200.914L18.6069 198.493L17.8506 197.812H15.9598L14.069 195.315L12.9345 192.667V186.993L13.8421 183.816L13.9934 182.227L15.8842 182.378L15.8085 183.589L15.2035 184.119V186.01L18.0019 188.431V184.875L16.943 182.303L17.3212 181.471L16.5649 180.185L18.6826 179.05L17.2455 176.78L16.1867 177.158L15.0522 180.033L15.4304 181.017L14.8253 181.773L14.1446 181.698L10.0605 177.083L10.5899 172.846L9.75797 169.896L4.84188 160.212L5.44694 152.117L7.18648 149.393L7.33774 144.551L3.17798 136.154L3.40487 132.22L8.62349 126.545L9.90923 124.73L9.8336 123.671L12.8589 116.71L12.9345 110.355L13.6152 108.464L63.608 122.536L51.2044 170.274L52.0363 172.922L105.281 252.359L104.601 253.948L105.584 256.52L106.643 257.882L107.55 262.27L109.29 264.161L109.592 265.598L108.609 266.582L104.979 267.868L103.164 270.592L101.953 275.887L100.138 278.308L98.9282 278.535L98.0962 283.755L98.9282 284.966L100.29 285.117L101.046 286.328L100.441 288.143L98.1719 289.808L96.508 289.732L63.2299 285.874Z" fill="#EDEFF1"/>
<path d="M275.906 241.162L263.427 240.405L224.325 236.774L184.543 231.857L193.241 165.054L227.199 169.366L255.561 171.938L280.596 173.754L279.537 190.474L275.906 241.162Z" fill="#EDEFF1"/>
<path d="M653.235 131.917L653.537 131.085L651.117 121.779L651.041 121.552L639.772 124.125V124.654L639.092 124.881L638.713 124.352L630.772 126.167L632.89 138.499L634.251 139.634L631.604 142.206L632.89 143.87L636.974 140.466L638.26 139.483H638.865L640.68 137.137L641.739 137.213L643.932 136.381H645.52L649.529 134.338L651.646 133.657L652.403 132.901L653.537 133.279L653.235 131.917Z" fill="#EDEFF1"/>
<path d="M614.436 168.004L613.226 168.231L612.092 169.063L611.184 170.652L616.932 191.154L625.176 189.414L623.512 183.664L622.68 184.043L620.184 182.076L619.806 180.79L618.445 180.033L618.293 177.234L616.705 175.569L615.873 174.964L614.966 174.132L614.663 171.711L614.89 170.122L615.646 168.458L614.436 168.004Z" fill="#EDEFF1"/>
<path d="M561.114 333.309L558.089 332.779L556.803 332.099L555.139 333.158V335.049L556.198 336.638L555.82 339.891L554.232 340.345L553.475 339.513L553.022 337.092L515.13 339.588L512.634 335.049L475.726 338.907L475.348 341.101L477.238 343.22L478.524 343.749L479.205 344.657L478.902 350.18L478.07 350.634L478.448 350.937L479.205 350.71L479.734 350.104L487.676 348.062L494.634 347.683L500.76 349.121L507.189 352.904L509.004 353.509L510.668 355.022L510.592 357.065H512.407L513.844 356.308L515.735 356.384L517.248 355.778L519.441 354.265L521.786 352.071L522.618 351.769L523.071 352.147H524.13L524.508 351.542L524.13 350.634L523.676 350.18L523.828 349.575L525.34 348.743L529.122 348.44L529.727 349.196L530.483 349.272L532.223 350.029L534.492 351.39L535.399 352.677L536.231 353.584L538.349 354.644V356.459L540.467 357.897L541.223 357.972L542.433 359.032L542.963 360.242L543.719 360.393L544.324 361.982L544.853 362.436L545.61 361.604L547.803 361.679L548.181 362.739L549.013 363.42V364.403L551.206 366.067L551.358 373.33L549.996 377.718L550.753 378.626L550.601 381.198L549.996 382.257L550.526 383.165L552.265 384.905L552.492 386.04L553.097 386.797L552.795 385.359L553.778 384.905L554.383 382.182L552.114 381.274L552.19 380.82L554.156 380.517L554.837 382.484L555.669 382.938L555.744 381.425L556.576 381.652L557.03 382.257L556.955 382.787L554.761 385.965L554.61 386.797L553.324 388.234V389.066L556.123 391.941L560.131 397.918L561.492 399.507V400.868L563.61 404.349L565.35 404.802L565.879 403.895L564.291 404.122L562.022 400.717L562.173 399.658L563.308 399.053V397.918L562.854 396.934L563.535 396.254L563.837 396.934L564.367 397.313V400.339L563.459 399.885L562.854 400.566L563.913 401.776L564.669 403.743L565.577 403.289L567.316 404.197L568.904 405.862L570.115 409.72L572.459 413.351L573.064 412.368L575.182 411.99L577.602 412.973L577.829 414.259L580.325 417.134L580.401 417.966L582.064 420.009L581.535 420.387V422.43L583.577 423.489H584.712L586.754 422.127L587.888 422.354L588.72 422.657L590.46 421.371L590.611 420.841L591.518 421.068L593.334 419.782L594.317 418.042L593.787 415.621L593.636 414.638L594.468 411.611L594.922 411.46L595.376 412.671L595.981 411.309L595.376 405.862L595.073 397.918L594.317 392.773L593.787 391.487L588.796 383.09L584.863 376.205L583.199 373.709L582.216 370.985L582.064 368.413L582.745 368.186V367.505L581.913 365.84L578.888 362.814L573.14 355.476L568.829 347.608L565.577 339.513L565.123 336.713L564.215 335.957L563.837 333.082L561.114 333.309ZM568.072 435.064L569.358 434.989L568.829 434.232L568.072 435.064ZM573.594 434.232V433.702L574.804 433.551L577.602 431.055L578.737 430.601L580.552 429.92L580.779 430.903L582.064 431.509L580.098 432.416H578.283L575.333 434.308L573.594 434.232ZM586.602 428.482L584.333 429.541L583.577 430.525L584.409 430.601L586.602 428.482ZM589.476 426.288L588.644 426.515L587.586 428.028L588.417 427.877L589.552 426.667L589.476 426.288ZM595.754 414.411L594.468 418.647L593.863 419.404L593.107 421.371L592.199 422.581L591.67 423.867L590.233 425.532V426.213L592.275 424.094L594.09 421.446L594.544 419.933L596.132 416.226L595.754 414.411Z" fill="#EDEFF1"/>
<path d="M568.755 309.857V310.916L565.578 315.606L564.671 315.758L565.805 316.136V317.649L565.125 318.481L564.671 323.02L562.931 327.711L563.309 329.224L563.839 333.082L561.116 333.309L558.091 332.78L556.805 332.099L555.141 333.158V335.049L556.2 336.638L555.822 339.891L554.234 340.345L553.477 339.513L553.023 337.092L515.132 339.589L512.636 335.049L512.107 333.385L510.972 332.25L510.594 331.191L511.048 326.425L509.232 322.113L509.611 320.146L509.838 317.346L511.501 314.471L511.35 313.639L510.064 312.883V310.462L508.703 309.024L506.51 304.409L496.753 269.76L514.073 267.566L530.258 265.296L530.183 266.734L528.746 267.49L527.687 269.911L527.838 270.895L532.452 273.769L534.418 273.542L536.763 276.569L537.065 277.855L540.242 281.713L542.208 282.999L543.267 283.151L544.931 284.361L545.763 286.025L547.275 287.236L548.637 287.614L550.679 289.657L550.755 290.716L552.721 292.834L556.503 294.574L559.225 299.643L559.452 301.686L562.402 303.275L564.293 306.906L564.898 309.251L568.074 309.554L568.755 309.857Z" fill="#EDEFF1"/>
<path d="M232.344 415.47L232.192 417.891L233.478 419.328L233.554 420.236L229.923 423.64L229.848 424.548L231.285 426.969L232.571 430.147V432.114L232.192 433.022L232.268 435.594L235.369 437.183L236.201 438.015L237.109 437.183L238.697 434.459L242.1 432.265L244.596 431.887L246.487 431.13L247.773 430.222L250.193 427.574L248.075 426.742L247.016 425.683L247.092 424.397L246.714 423.943H245.201L245.352 422.052L244.823 421.144L242.857 419.404L239.453 417.966L237.335 417.815L234.84 415.772L233.932 415.318L232.344 415.47ZM220.772 402.608L219.94 403.743L219.864 405.029L221.906 406.845L223.343 407.223L223.797 407.98L224.1 410.25L226.823 410.401L230.831 408.434L230.755 406.542L229.697 406.164L227.049 404.197L225.688 403.97L223.495 404.954L222.36 402.911L220.772 402.608ZM219.638 411.309L220.318 410.25L222.209 410.023L222.663 411.384L219.638 411.309ZM214.343 404.727L215.629 407.753L217.974 407.299L218.201 405.786L217.142 404.651L214.343 404.727ZM211.242 399.658L210.41 401.474H214.192L217.822 402.684L219.713 401.474L219.864 400.339L216.234 400.49L211.242 399.658ZM199.141 391.639L197.704 393.227L195.511 393.681L196.116 395.346L197.78 397.464L197.855 398.221L199.444 397.994L201.183 398.069L202.469 398.977L205.116 398.372V397.842L204.36 397.237L203.982 395.648L203.377 395.421L202.998 396.178L202.091 395.194L202.242 394.135L200.881 391.639L200.049 391.109L199.141 391.639ZM175.09 382.257L171.914 384.451L172.065 386.191L173.88 387.099L175.317 388.083L177.359 388.385L179.326 386.721L179.174 385.284L179.779 383.997V382.938L179.023 382.257H175.09ZM166.922 385.889L166.695 386.797L165.258 387.478L164.804 388.839L165.561 389.445L166.393 388.31L167.83 387.856L168.132 385.889H166.922Z" fill="#EDEFF1"/>
<path d="M117.609 135.095L99.1543 131.009L105.583 102.79L107.776 98.4022L108.079 96.8135L108.684 96.1326L108.003 94.6195L105.81 93.7116L105.961 90.5341L108.986 86.1462L110.877 85.5409L112.087 83.8009L112.012 82.5904L113.373 81.38L115.793 77.219L118.97 73.5875L118.592 71.1666L115.945 68.8213L114.735 66.0978L115.566 62.8446L115.037 59.8184L124.642 17.3763L135.382 19.6459L131.752 36.2899L134.55 41.8883L133.34 45.5197L136.063 49.1512L137.5 49.6807L140.449 55.9601V57.5488L142.189 59.8184H142.87L143.929 61.4072H146.349V62.6176L140.979 75.4789L140.601 78.5807L141.66 78.959L142.87 80.926L144.987 79.8669L147.71 78.0512L149.147 79.4886L149.525 81.38L149.147 83.8009L151.038 91.1394L153.004 93.7873L154.744 94.8464L155.046 97.1161V100.218L156.786 101.958L157.996 100.218L163.215 101.428L164.803 100.521L171.61 101.807L173.728 99.3101L175.089 98.8561L175.996 100.218L177.207 103.32L177.887 103.395L171.459 144.854L135.231 138.65L117.609 135.095Z" fill="#EDEFF1"/>
<path d="M464.154 197.736L463.398 201.67V203.183L465.213 205.831V206.361L464.986 207.042L465.667 208.479L465.44 210.295L464.23 211.657L463.247 214.834L460.373 218.844L460.297 224.14H459.541L460.221 225.577V226.258L458.557 228.301L458.633 229.133L459.767 230.797L459.692 231.478L456.893 231.932L456.44 232.84L455.532 232.386L454.776 232.764L454.473 235.261L455.759 236.623L455.456 238.438L454.322 238.665L449.103 236.396L446.078 239.195L446.305 240.557H444.187L443.128 239.422L441.767 236.547V235.11L442.372 234.656L442.448 233.672L441.162 232.235L440.481 230.343L438.439 227.242L434.809 226.258L429.212 220.887L428.91 219.071L431.027 213.321L430.725 211.884L431.632 211.052V210.068L429.515 208.933L427.246 208.404L424.674 209.311L423.691 207.571L424.145 206.134L423.615 204.318L417.111 197.963L415.447 196.828L413.556 192.365L412.649 188.28L413.708 185.48L414.237 184.951L414.313 183.211L413.783 182.53L414.539 181.395L415.901 180.941L416.582 180.714L417.338 179.806V177.991L418.624 176.175L419.002 175.797L419.077 173.149L418.397 172.089L417.64 171.863L416.808 170.652L417.565 167.626L419.834 167.021H421.649L424.825 165.659L426.111 163.994L426.187 162.179L427.019 161.195L428.002 158.774L427.926 156.807L425.809 154.159H424.901L424.22 153.327L424.372 152.117L423.086 150.831L421.195 149.847L421.573 149.393L456.288 147.275L456.364 150.755L458.935 154.235L459.843 157.337L461.053 159.758L464.154 197.736Z" fill="#EDEFF1"/>
<path d="M468.465 159.077L464.608 160.817L461.053 159.758L464.154 197.736L463.398 201.67V203.184L465.213 205.831V206.361L464.986 207.042L465.666 208.479L465.44 210.295L464.229 211.657L463.246 214.834L460.372 218.844L460.297 224.14H459.54L460.221 225.577L461.053 226.182L461.507 225.426L460.977 224.14L464.456 223.762L464.608 224.669L465.44 224.821L465.742 224.14L465.288 223.156L465.515 222.551L466.498 223.156L467.784 222.854L469.07 223.308L471.641 224.896L473.003 222.778L475.65 221.114L477.919 223.61L479.129 222.021L479.356 219.979L482.23 218.239L482.381 219.222L483.818 220.13L486.087 219.979L486.995 219.449L487.07 216.877L488.961 214.078L492.44 210.749L492.365 209.463L493.272 206.588L494.936 207.345L500.003 203.94L499.701 202.654L498.566 201.065L499.323 199.628L494.331 156.353L494.255 155.294L469.751 157.866L468.465 159.077Z" fill="#EDEFF1"/>
<path d="M413.784 135.019L415.372 136.229L415.826 137.062L414.616 139.558L414.54 141.449L416.053 145.61L418.095 146.745L420.591 147.275L421.574 149.393L421.196 149.847L423.087 150.831L424.373 152.117L424.221 153.327L424.902 154.159H425.81L427.927 156.807L428.003 158.774L427.02 161.195L426.188 162.179L426.112 163.994L424.826 165.659L421.65 167.021H419.835L417.566 167.626L416.809 170.652L417.641 171.863L418.398 172.09L419.078 173.149L419.003 175.797L418.625 176.175L417.339 177.991V179.806L416.582 180.714L415.902 180.941L414.54 181.395L413.784 182.53L414.313 183.211L414.238 184.951L413.708 185.48L412.574 184.875L411.742 184.043L411.288 182.832L410.003 181.849L399.187 182.454L378.615 183.362L359.026 183.286L357.665 179.958L358.195 178.293L357.589 175.797L357.741 173.603L356.758 173.073L356.455 168.458L354.337 164.675L354.186 161.876L352.522 158.623L351.539 155.824V154.765L351.085 153.479V151.738L350.707 151.058L350.178 149.771L349.951 148.788L348.967 147.88L349.724 144.627L351.009 140.769L350.48 139.255L349.497 138.953L349.194 137.742L349.951 137.364L350.026 136.532L349.043 135.397L349.119 134.187L350.783 134.262H372.111L399.565 133.581L413.633 133.052L413.784 135.019Z" fill="#EDEFF1"/>
<path d="M339.816 192.895L306.765 191.987L279.537 190.474L275.907 241.162L327.11 243.356L374.002 243.432L373.624 207.042L371.203 206.512L369.237 202.957L367.346 201.065L367.724 199.325L369.766 197.358L369.842 196.45L368.708 194.862L368.027 195.618L366.514 195.164L364.321 192.895H339.816Z" fill="#EDEFF1"/>
<path d="M516.038 240.557L500.534 241.616L496.601 242.221L483.441 242.978L481.474 243.583L464.382 245.096L463.852 244.642H461.054L461.961 247.063L461.508 247.744L443.885 248.879L444.642 246.836L445.7 247.517L446.23 247.214L447.137 244.113L446.381 243.356L447.137 241.843L447.289 241.162L446.305 240.557L446.079 239.195L449.104 236.396L454.322 238.665L455.457 238.439L455.76 236.623L454.474 235.261L454.776 232.764L455.533 232.386L456.44 232.84L456.894 231.932L459.692 231.478L459.768 230.797L458.634 229.133L458.558 228.301L460.222 226.258V225.577L461.054 226.182L461.508 225.426L460.978 224.14L464.457 223.762L464.608 224.669L465.44 224.821L465.743 224.14L465.289 223.156L465.516 222.551L466.499 223.156L467.785 222.854L469.071 223.308L471.642 224.896L473.004 222.778L475.651 221.114L477.92 223.61L479.13 222.021L479.357 219.979L482.231 218.239L482.382 219.222L483.819 220.13L486.088 219.979L486.996 219.449L487.071 216.877L488.962 214.078L492.441 210.749L492.365 209.463L493.273 206.588L494.937 207.345L500.004 203.94L499.702 202.654L498.567 201.065L499.324 199.628L500.307 200.006L501.971 200.082L503.408 199.476L505.601 200.384L507.265 202.957V203.713L510.366 204.243L512.105 204.091L513.542 205.68L515.206 205.831V205.075L516.643 204.47L518.912 205.075L519.82 205.68L520.803 205.151H521.484L521.938 203.864L524.509 202.503L524.887 203.108L525.492 205.302L528.139 206.361L529.047 207.95L528.971 208.782L529.425 209.539L528.971 212.262L530.408 213.473L531.013 214.305L531.77 214.759L531.694 215.44L535.022 219.676H536.081L537.215 221.038L538.123 221.265L539.182 221.189L535.476 226.182L533.282 226.939L531.013 229.209L530.711 230.873L529.123 231.857L529.047 233.143L527.988 234.202L526.627 234.58L526.249 236.018L525.492 236.32L520.274 239.498L516.038 240.557ZM441.919 249.106L441.389 248.576L441.541 247.82H442.373L442.902 248.349L442.675 249.106H441.919Z" fill="#EDEFF1"/>
<path d="M448.272 354.265L447.365 352.904L447.592 351.92L443.961 346.776L444.642 343.296L445.398 342.236L445.474 341.177L418.246 342.69L419.532 333.687L421.347 330.056L425.885 323.701L424.524 321.81H426.036V319.313L424.221 317.422L424.599 316.136L423.692 315.379L422.482 310.008L422.936 308.948L383.38 309.932L383.758 324.987L384.288 327.559L386.254 329.678L386.783 333.763L389.657 337.243L390.263 340.496H391.019L390.943 346.019L388.447 350.861L389.431 352.601L388.447 353.736L388.977 356.006L388.901 359.259L387.237 361.907L387.162 362.512L385.876 363.42L386.632 364.781L387.54 365.614L388.75 364.63L392.758 363.949L397.372 363.874L404.633 366.748L410.683 367.505L411.818 366.446L413.179 366.295L416.809 367.959L418.019 367.656L418.851 366.521L415.675 365.16L414.011 365.916L413.179 365.765L412.12 364.252L414.616 362.587L415.826 362.512V363.798L416.961 363.722L419.532 363.495L419.835 365.235L420.667 365.538L421.12 366.975L424.751 367.732L426.036 368.942V369.472H425.129L423.994 370.758L425.28 371.666L429.364 372.423L431.406 374.541L434.734 373.784L431.936 373.936L431.86 373.482L433.978 372.952L434.129 371.59L435.037 371.363V370.304L435.869 370.38V371.59L437.759 371.666L438.365 370.229L439.045 370.456L439.196 372.347L440.104 372.498L438.743 374.011L440.709 373.33L442.222 372.498L444.415 370.002H443.886L442.902 370.909L442.6 370.834L442.222 370.229L442.902 369.321V367.581L443.734 366.975L444.264 367.505L445.02 366.9L445.776 366.824L446.23 367.808L445.776 369.245H447.592L451.449 370.531L451.827 371.515L453.037 372.574L455.155 372.649L456.138 373.179L457.499 372.423L458.18 371.136V369.85H457.121L456.214 368.791L455.382 367.959L452.962 367.278L450.995 367.429L447.819 365.614V363.874L448.802 363.117L450.617 363.571L448.272 362.36L448.424 361.755H451.146L453.113 359.107L451.146 357.746L451.751 356.611L450.844 356.006H450.239L448.726 357.594V359.183L448.272 359.713L447.44 359.637L446.23 358.578H445.247V357.443L445.701 356.913L446.306 357.443L447.592 356.232L448.121 355.022L448.726 354.795L448.272 354.265ZM440.482 352.223L441.919 352.979L442.524 353.812L444.415 353.887L445.55 354.492L445.701 355.552L445.398 356.006L444.718 354.871L443.659 355.779L442.978 356.838L440.86 357.443L439.65 357.519L436.852 356.762L436.928 355.476L438.44 353.963L439.272 352.147L440.482 352.223ZM436.928 353.131V353.963L435.566 355.476H434.659V353.812L435.869 352.677L436.928 353.131Z" fill="#EDEFF1"/>
<path d="M654.369 93.9383L654.823 96.9645L657.243 98.4776L657.848 100.142L659.587 101.201L660.646 100.974L661.403 98.7045L660.797 96.5106L662.008 95.8297L662.386 93.7113L661.932 92.7278L664.428 91.2904L662.764 89.5503L663.445 87.7346L664.503 86.0702L664.882 88.4912L666.092 86.9781L667.075 87.659L667.983 87.0537V85.7676L670.403 84.7841L670.63 82.5901L672.52 82.4388L674.563 79.6396V79.11L673.882 78.7318L673.806 76.2352L674.26 75.403L674.411 76.6134L675.168 76.2352L675.016 73.8142L674.336 74.0412L674.26 74.949L673.352 73.8899L674.033 72.8307L674.487 72.9064L675.319 72.6037L675.697 74.7221L677.21 74.4951L679.403 75.0247V74.2681L678.571 73.3603L679.554 73.4359L679.63 71.6959L680.084 72.3011L680.311 73.7386L681.899 74.8734L682.05 74.1168L682.731 73.9655L682.504 73.3603L683.109 72.9064L683.033 71.6959L681.823 71.5446L680.311 72.0742L681.369 70.8637L681.899 70.2585L682.882 70.1072L683.185 71.0907L684.47 72.3011L684.773 70.7124L686.512 69.8045L685.832 68.821L685.907 67.5349L686.739 67.9132H687.269L688.554 66.854L688.857 65.114L690.521 65.3409L690.597 64.8113L690.748 63.6009L691.126 64.66L692.26 63.9035L694 60.8017L693.924 59.1373L692.866 57.6242L690.597 55.2032H689.16L688.554 56.8676L686.361 54.598L686.588 53.9928V52.8579L685.378 49.4535L684.773 49.3022L684.243 49.6048H680.613L680.386 46.8812L674.26 27.2111L668.739 24.4119L666.546 24.3362L661.478 29.3294L659.436 28.5729L658.68 25.6223H656.638L651.419 40.375L651.949 45.0655L650.663 46.8812L650.36 50.3613L651.343 53.1606L651.949 53.3119V54.5223L650.738 57.9268L649.604 58.9859L648.621 60.6503L648.318 66.5514L646.503 65.7948L645.369 66.0975L654.369 93.9383ZM680.537 75.2517L679.781 75.8569V76.8404L680.311 76.2352L680.991 76.8404L681.294 76.4621L682.126 76.6134L681.369 76.0082L681.672 75.403L680.537 75.2517ZM679.252 77.2187L678.495 78.0509L678.874 78.3535L678.798 79.11H679.63V77.7483L679.252 77.2187ZM676.983 76.0082L677.663 76.9917L678.42 77.37L678.647 76.6134V75.2517L677.663 74.7221L677.361 75.6299L676.983 76.0082ZM676.226 79.7909L674.941 78.5048L676.151 76.6891L676.756 76.9161L676.907 77.7483L677.663 78.3535V79.1857L676.907 79.9422L676.226 79.7909Z" fill="#EDEFF1"/>
<path d="M614.965 200.308V199.022H614.36V200.384L614.965 200.308ZM623.889 197.358L624.797 195.694L624.872 193.802L624.419 193.348L623.889 194.029L623.738 195.618L623.133 196.677L622.906 197.509L619.427 198.72L618.898 199.325L617.914 199.476L617.612 200.157L616.629 200.611L616.402 198.72L616.704 198.19L616.099 197.812L616.25 196.677L615.04 197.434V195.92L615.948 195.694L614.511 195.391L613.981 194.786L614.284 193.802L613.679 193.348L613.149 194.559L613.528 195.164L612.998 195.618L612.166 195.996L610.654 195.24L610.502 194.332L609.746 193.5L608.687 192.213L609.822 191.608L609.065 191.154V190.473L609.519 189.717L610.805 189.49L609.746 189.036L609.67 188.506L608.687 188.431L608.385 189.263L607.931 189.49L608.007 186.918L608.763 186.161L609.368 186.691L609.443 185.48L608.687 184.799L608.007 185.631L607.25 186.691L606.796 185.934L606.948 184.118L607.628 183.362L608.309 184.043L609.217 183.513L608.914 182.227L608.158 182.984L607.477 181.395L607.326 180.109L608.158 178.293L608.99 177.234L610.049 177.083L609.67 176.477L610.049 176.023L609.822 175.494L609.973 173.905L608.838 174.208L608.233 175.04L608.99 176.023L607.023 178.747L606.343 178.444L605.813 179.125L605.359 180.79L603.998 181.168L604.981 181.622L605.964 182.605L605.813 183.135L606.494 184.043L605.662 184.799L606.04 185.026L605.662 186.01V187.599L605.284 188.582L605.964 189.414L606.494 191.986L607.477 193.046L608.687 194.105L608.99 196.223L610.2 197.736L610.502 198.795V199.552H609.973L608.838 198.644L608.536 198.795L607.628 198.644L606.343 197.585L605.284 197.358L604.527 197.736L603.62 197.509L603.317 197.661L602.032 197.055L601.275 196.299L600.519 195.315L600.065 195.164L599.46 195.694L598.25 196.677L597.418 196.072L597.115 194.332L597.721 192.743L597.494 192.365L597.721 192.062L597.191 191.306L597.947 191.23L598.704 190.549L599.006 189.187L600.292 187.22L598.326 185.858L597.569 187.145L597.115 186.691H596.359L595.905 186.615L595.603 186.312L595.678 185.934L594.393 185.48L593.788 185.707L592.88 185.631L592.351 185.102L591.972 184.951L591.821 184.421L592.275 183.816V183.135L591.367 182.984L590.611 182.303L589.93 182.378L588.72 182.151L588.04 181.849L588.191 180.638L587.435 180.26L587.283 179.73H586.754L586.149 178.823L586.3 178.066L584.334 178.369L582.67 177.158L581.611 177.385L580.93 178.444H579.947L578.661 180.638L576.165 180.941L574.728 180.184L572.762 183.059L571.098 182.832L568.753 185.783L568.073 186.993L566.711 188.204L565.426 179.579L611.183 170.652L616.931 191.154L625.175 189.414V193.424L625.099 195.769L624.343 197.131L623.889 197.358ZM613.755 195.996L612.771 196.677L613.376 198.039L614.662 198.644L614.36 197.434L613.755 195.996Z" fill="#EDEFF1"/>
<path d="M673.201 128.361H675.773L676.453 127.907L676.529 126.924L675.092 125.562L675.394 126.318L674.26 127.453H672.52L672.596 128.058L673.201 128.361ZM666.394 129.723L665.487 129.269L666.243 128.664L666.697 127.075L667.604 126.318L668.209 126.167L668.663 126.848L669.495 126.999L669.949 126.545L670.327 127.983L669.344 128.21L667.226 128.739L666.394 129.723ZM639.999 112.02L653.915 109.145L654.671 108.01L654.898 106.724L656.335 106.27L656.713 105.438L657.999 104.606L658.982 104.833L660.268 107.329L661.024 107.632L661.856 106.648L662.461 107.632V108.464L660.192 110.28L660.344 110.885L659.663 111.641L659.966 112.247L658.982 112.474L659.663 113.381L659.058 113.911L659.512 114.668L660.192 114.516L660.419 113.911L661.251 114.365H662.613L664.503 116.332L664.655 118.299L666.016 118.375L666.621 119.207L667.075 120.72L667.831 121.25H669.268L670.705 121.174L671.31 120.493L672.52 119.585L673.352 119.358L672.445 117.769L672.218 118.45L671.083 115.727H670.478L670.176 116.408L669.268 115.651L670.251 114.819L671.613 115.122L673.352 116.71L674.336 118.753L675.243 121.25L674.487 123.368V122.006L673.957 121.25L671.31 122.99L670.63 122.763L669.42 123.519L669.344 124.427L667.68 125.335L666.167 126.924L664.655 128.361H663.747L666.243 125.864L666.621 124.427L666.243 123.973L666.016 122.99L665.335 122.914L665.26 123.897L664.503 124.805H663.596L663.369 125.638L663.671 126.545L662.764 127.378L661.932 127.226L661.629 127.983L660.571 125.713L659.587 124.881L657.621 123.897L657.167 122.233H656.562L656.033 120.266L651.117 121.779L651.041 121.552L639.772 124.124V124.654L639.091 124.881L638.713 124.351L630.771 126.167L630.242 125.411L630.62 114.062L639.999 112.02Z" fill="#EDEFF1"/>
<path d="M494.255 155.294L494.331 156.353L510.516 153.706L510.894 152.798L513.844 148.334V145.081L514.449 143.492L516.113 142.887L517.626 136.986L518.382 136.608L519.138 137.062L518.987 137.515L518.155 138.121L518.382 138.802L518.987 139.104L520.424 138.045L520.726 130.631L519.516 128.891L518.609 126.092V124.2L516.869 120.872V119.51L515.962 117.013L514.222 114.743L512.029 113.987L508.398 116.257L506.508 119.737L506.356 120.418L504.087 123.065L502.953 122.914L500.76 120.796L500.684 118.224L501.818 116.786L503.331 116.635L504.239 115.349L504.39 112.323L504.995 111.717L505.827 111.642L506.508 110.356L506.356 103.093L506.129 102.109L505.222 101.201L503.936 100.445L503.861 99.083L504.39 98.6291L505.751 99.2343L505.524 97.9482L504.087 95.9055L503.558 94.6951L502.726 93.8629H501.062L494.936 91.6689L493.877 90.3828L491.532 90.1558L490.625 90.3828L487.297 88.6427H486.238L486.616 89.3993L484.574 89.3236L484.65 89.7775L485.104 90.2315L483.213 91.8202L483.289 93.182L484.423 94.922L485.558 95.0733V95.5273L484.423 95.9055L482.835 95.8299L480.717 97.7212L480.793 99.6126L481.095 104.001L479.431 106.573L480.036 103.168L479.431 102.714L478.751 106.724L477.994 104.984L478.372 103.244L477.994 102.487L478.448 101.504L477.994 100.672L478.751 99.9152V99.0074L477.767 99.4613L476.784 101.807L476.255 102.336L475.272 104.152L473.986 104.001L473.91 104.908H472.7L472.851 106.043L473.003 107.556L470.734 108.464L470.809 109.448L471.566 110.734L471.49 114.668L470.507 117.997L469.221 119.888L470.129 120.947L470.734 123.595L469.977 125.486L469.826 127.075L471.112 129.647L473.003 133.354L473.91 134.792L475.12 140.012L475.045 146.67L474.364 149.62L472.851 152.041L472.171 154.84L470.658 157.11L469.75 157.867L494.255 155.294ZM421.8 82.0608L424.069 84.9356L436.926 87.8105L437.985 88.5671L441.01 89.1723L441.54 89.5506L443.657 89.3993L447.363 90.0045L448.422 91.1393L447.666 91.8959L448.271 92.5011L451.145 93.0307L452.053 93.9385L452.128 97.2673L451.145 99.3856L452.658 99.4613L453.414 98.8561L454.095 99.4613L453.263 101.807L454.019 103.017L454.927 103.244L455.532 101.882L457.725 98.4021L458.935 93.8629L460.675 92.3498L460.296 91.1393L460.675 90.4584L461.431 91.6689L461.204 93.3333L463.397 91.6689L463.549 89.9288L465.137 90.3828L465.742 89.1723L466.271 89.6262L465.742 90.761L464.986 91.1393L464.229 92.6524L465.288 94.0142L466.12 93.6359L465.742 93.1063L466.498 91.9715L467.935 90.6854H468.54L468.692 88.7184L470.204 87.3566L476.179 86.9783L477.616 84.633L480.49 84.4061L483.364 85.3139L486.541 87.3566L487.07 87.2053L486.919 84.5574L487.448 84.4061L490.852 85.2383L491.986 85.0869L494.18 84.5574L495.465 84.86L496.827 84.9356V84.1034L496.297 83.4226L495.163 83.2712L494.331 82.666L494.709 81.6068L494.104 81.3799L492.138 81.4555L492.062 80.699L492.894 80.0938L493.348 80.699L493.726 79.3372L493.196 78.8076L493.726 78.6563L492.667 77.6728L492.894 76.6893L492.969 75.2519H491.986L490.852 76.0084L489.415 76.0841L489.037 77.4458L487.6 77.5972L487.373 76.6893L485.709 76.765L484.952 77.6728L484.423 77.5972L484.272 76.9919L482.305 77.2945L482.23 73.6631L482.986 72.15L482.457 72.0744L481.095 72.9066H479.431L476.557 74.9492L471.868 75.1762L468.767 75.7814L467.33 76.9163L466.271 77.8998L464.381 79.1859L464.154 79.7911L463.7 78.505L462.717 78.0511V78.505L463.246 79.0346V80.0181L462.112 79.5642H461.658L461.431 80.472L459.918 79.0346L458.935 78.8833L457.952 80.0181L455.532 79.9424L455.153 78.8833L453.641 77.4458L452.658 76.2354V75.7058L451.826 74.6466L449.859 73.7388L447.363 73.6631L446.531 72.9822H445.473L444.943 73.2849L443.279 74.9492L442.75 75.7814L441.993 75.2519L442.145 74.4953L442.75 72.9066L445.17 69.1239L445.775 68.9725L447.061 67.5351L447.59 66.3246L449.859 65.8707L450.464 65.4168L450.389 64.6602L450.01 64.282L446.607 64.4333L445.094 64.8115L443.128 65.7194L442.22 66.6273L440.935 68.2917L439.573 69.0482L437.077 71.6205L436.775 72.8309L431.178 76.311L428.153 76.6893L426.791 76.9919L425.052 79.2616L423.691 79.7911L420.363 81.5312L421.8 82.0608ZM497.961 84.9356L500.835 85.0113L501.289 84.633L501.138 83.1199L499.852 81.7582L498.415 81.8338L498.339 82.2121L499.171 82.5147L497.961 83.1199L497.734 83.8765L497.281 83.4226L496.978 84.0278L497.961 84.9356ZM441.161 53.2364L439.422 53.3877L437.38 54.8252L432.01 58.8349L432.615 59.5914L433.976 59.8184L436.094 58.3053L435.262 57.927L437.002 56.7165H437.758L440.027 55.2791L439.951 54.5982L441.161 53.2364ZM472.246 100.747V101.504L473.835 102.714L473.683 100.899L472.246 100.747ZM471.717 102.866L472.549 102.941V103.622H471.792L471.717 102.866ZM487.902 86.7513V87.4322L488.507 87.2809V86.9027L487.902 86.7513ZM491.457 89.0966L491.381 88.2644L490.171 88.1131L489.717 87.8105H489.037L488.734 88.0375L489.415 88.3401L490.247 89.1723L491.457 89.0966ZM477.843 90.0045L477.767 90.8367L477.541 91.3663L477.692 93.0307L477.994 93.2576L478.524 93.3333L478.902 92.6524L478.978 91.4419L478.751 90.988L478.675 90.1558L477.843 90.0045Z" fill="#EDEFF1"/>
<path d="M344.051 48.4701L343.219 50.5884L343.824 51.6475L343.597 55.5059L343.219 56.3381L345.261 63.2227L346.244 65.114L346.774 75.7057L347.53 77.7483L347.227 82.1363L349.421 87.7347L349.648 92.1227L349.572 93.7114L349.496 95.3758L348.816 96.8889L346.471 98.3263L346.244 99.2342L347.53 101.126L347.833 102.487L349.799 102.941L350.933 104.379L350.782 134.262H372.11L399.565 133.581L413.632 133.052L412.8 129.647L412.649 127.378L410.985 125.108L408.868 124.578L404.935 121.855L404.481 119.358L399.716 117.013L399.565 116.029H397.069L395.405 114.062L393.892 113.079L394.422 109.221L393.741 108.01L394.119 103.925L394.876 102.563L394.649 100.52L393.741 99.5368L392.38 99.3099V98.0237L394.498 93.6358L398.96 90.6852L398.657 80.8502L399.338 81.1528L399.792 80.7745L399.867 79.9423L400.548 79.4884L401.607 80.3962L402.136 80.3206L401.229 78.6562L404.481 76.3109L406.826 73.5117L408.036 72.9064L411.59 68.4428L416.355 64.0549L419.305 62.4661L424.07 60.4235L429.818 57.019L429.364 56.7164L426.565 57.246L424.448 57.3216L423.691 56.1112L422.633 55.4303L415.221 56.3381L414.464 54.2198L413.254 54.1441L411.969 54.7494L409.17 57.0947H406.069L404.481 56.3381L404.254 55.052L401.304 54.4468L400.851 53.2363L400.321 52.2528L399.565 52.9337L397.598 53.0093L390.111 48.8483H387.918L387.312 48.3187L384.968 49.3022L384.363 50.2858L381.867 50.891L380.884 50.7397V49.4536L380.354 48.7727H375.892L375.589 47.7135H373.623L372.791 48.0161L370.976 46.73L371.203 45.6708L370.749 43.8551L370.22 43.0229L370.068 40.7533L369.312 38.408L367.724 37.1975H365.53L365.606 43.2499L342.236 42.9473L344.051 48.4701Z" fill="#EDEFF1"/>
<path d="M464.383 351.088L460.601 351.163L458.786 350.029L452.811 351.92L452.13 351.39L451.752 351.542L451.676 352.752L451.223 352.828L449.256 354.87L448.727 354.795L448.273 354.265L447.365 352.903L447.592 351.92L443.962 346.775L444.643 343.295L445.399 342.236L445.475 341.177L418.247 342.69L419.533 333.687L421.348 330.056L425.886 323.701L424.525 321.809H426.037V319.313L424.222 317.422L424.6 316.135L423.693 315.379L422.482 310.007L422.936 308.948L423.844 307.813L424.222 305.544L423.088 303.804L422.709 302.139L423.39 301.61V301.005L422.104 300.172L422.029 299.643L423.239 298.962L422.331 298.13L423.617 292.758L426.188 291.548V290.942L425.357 289.883L427.55 285.798H428.987L430.121 284.89L429.894 280.956L432.239 277.552L433.6 277.098L433.222 274.752L462.189 272.785L463.173 274.298L462.189 324.987L465.517 350.104L464.383 351.088Z" fill="#EDEFF1"/>
<path d="M412.575 184.875L411.743 184.043L411.289 182.832L410.003 181.849L399.188 182.454L378.616 183.362L359.027 183.286L360.01 184.27L359.784 185.329L361.372 188.128L364.321 192.894L366.515 195.164L368.027 195.618L368.708 194.862L369.843 196.45L369.767 197.358L367.725 199.325L367.347 201.065L369.238 202.957L371.204 206.512L373.624 207.042L374.002 243.432L374.154 251.602L403.726 251.073L433.827 249.56L435.037 251.451V253.115L433.752 254.25L431.634 258.109L440.105 257.503L440.861 255.99L441.769 255.612V255.082L440.861 254.25L440.407 253.494L441.693 253.645L442.298 253.115L441.239 251.981L442.298 251.602L442.374 250.846L441.92 250.089V249.106L441.391 248.576L441.542 247.82H442.374L442.903 248.349L442.676 249.106L443.281 249.635L443.886 248.879L444.643 246.836L445.702 247.517L446.231 247.214L447.139 244.113L446.382 243.356L447.139 241.843L447.29 241.162L446.307 240.557H444.189L443.13 239.422L441.769 236.547V235.11L442.374 234.656L442.449 233.672L441.164 232.235L440.483 230.343L438.441 227.242L434.811 226.258L429.214 220.887L428.911 219.071L431.029 213.321L430.726 211.884L431.634 211.052V210.068L429.516 208.933L427.247 208.404L424.676 209.312L423.693 207.571L424.146 206.134L423.617 204.318L417.113 197.963L415.449 196.829L413.558 192.365L412.65 188.28L413.709 185.48L412.575 184.875Z" fill="#EDEFF1"/>
<path d="M179.401 95.3001L222.738 101.277L261.311 105.287L262.823 89.626L266.756 39.1645L226.293 34.9279L185.225 29.1025L135.383 19.6457L131.753 36.2896L134.551 41.8881L133.341 45.5195L136.064 49.1509L137.501 49.6805L140.451 55.9598V57.5485L142.19 59.8182H142.871L143.93 61.4069H146.35V62.6174L140.98 75.4787L140.602 78.5805L141.661 78.9588L142.871 80.9258L144.989 79.8666L147.711 78.0509L149.148 79.4883L149.527 81.3797L149.148 83.8006L151.039 91.1391L153.006 93.787L154.745 94.8462L155.048 97.1158V100.218L156.787 101.958L157.997 100.218L163.216 101.428L164.804 100.52L171.611 101.806L173.729 99.3098L175.09 98.8559L175.998 100.218L177.208 103.319L177.889 103.395L179.401 95.3001Z" fill="#EDEFF1"/>
<path d="M297.007 141.147L325.748 142.357L328.319 144.778L329.605 144.93L331.193 146.443L332.555 146.367L333.916 144.854L335.05 145.308L335.807 144.778L336.336 145.157L337.017 144.854L337.546 145.157L338.227 144.854L338.983 145.232L340.042 144.778L341.555 145.232L342.009 146.064L346.622 147.729L347.53 148.712L348.21 150.679L349.572 151.209L350.706 151.058L351.084 151.739V153.479L351.538 154.765V155.824L352.521 158.623L354.185 161.876L354.337 164.675L356.454 168.458L356.757 173.073L357.74 173.603L357.589 175.797L358.194 178.293L357.664 179.958L359.026 183.286L360.009 184.27L359.782 185.329L361.37 188.128L364.32 192.895H339.815L306.764 191.987L279.536 190.474L280.595 173.754L255.561 171.938L258.359 138.499L297.007 141.147Z" fill="#EDEFF1"/>
<path d="M119.347 221.114L116.776 234.353L114.961 236.547H113.448L112.541 234.505L109.742 233.445L107.095 233.899L106.339 244.188L106.717 247.895L106.339 250.089L105.28 252.359L52.0348 172.922L51.2029 170.274L63.6065 122.536L99.1536 131.009L117.608 135.095L135.23 138.65L119.347 221.114Z" fill="#EDEFF1"/>
<path d="M644.991 67.3836L644.008 67.4593L643.251 66.6271L641.814 67.6862L641.436 72.3012L642.344 74.0412L641.512 76.6891L643.1 78.8074L642.798 80.0936L642.873 81.0771L642.041 82.6658L640.982 82.9684L640.529 83.952L638.94 84.7085L638.411 85.8433L639.47 88.4156L639.092 90.3069L639.47 91.4417L638.713 92.8792L639.016 94.3166L638.033 95.7541L638.184 97.4185L637.655 98.2506L638.184 101.655L638.713 102.79L638.335 104.757L639.016 106.119L638.865 108.01L638.486 108.994L638.411 110.053L639.999 112.02L653.915 109.145L654.672 108.01L654.899 106.724L656.336 106.27L656.714 105.438L658 104.606L658.983 104.833L659.588 101.201L657.848 100.142L657.243 98.4776L654.823 96.9645L654.369 93.9383L645.369 66.0975L644.991 67.3836Z" fill="#EDEFF1"/>
<path d="M629.79 144.4L618.747 140.693L617.386 142.584L617.461 144.249L615.193 148.334L616.327 149.696L615.798 151.209L615.041 151.965L615.419 154.689L617.461 155.37L618.218 157.488L619.806 158.32L622.983 160.741L620.487 162.708L619.277 164.448L617.915 166.718L616.705 167.172L615.646 168.458L614.89 170.123L614.663 171.711L615.268 172.392L615.571 174.132L616.478 174.586L618.293 175.721L619.655 176.326L620.865 176.931L620.941 177.764L621.546 177.839L622.378 176.931L622.983 177.234L624.571 177.385L624.42 179.579L624.571 181.471L625.932 180.941L627.067 177.991L628.277 174.359L630.47 172.241L630.924 169.593L630.47 168.685L631.756 166.491V165.583L631.227 164.751L632.134 162.708L631.907 159.985L631.453 153.781L630.546 152.722V153.781L630.924 154.235H630.092L629.638 153.932L628.655 153.781L627.974 154.235L627.067 153.025L627.596 151.738V150.982L628.882 150.452L629.487 148.864L629.79 144.4Z" fill="#EDEFF1"/>
<path d="M262.972 248.425H262.367L256.392 323.55L232.341 321.583L206.323 318.859L206.096 321.129L207.609 322.793L184.314 319.691L183.255 327.408L171.381 325.744L184.541 231.857L224.324 236.774L263.425 240.406L262.972 248.425Z" fill="#EDEFF1"/>
<path d="M652.782 133.96L651.799 134.035L651.421 134.792L652.782 133.96ZM629.639 151.133L630.168 151.587L631.152 151.36L631.984 151.587L632.664 150.604H634.101L635.916 149.923L639.774 148.334L639.395 147.956L637.958 148.561L636.446 149.242L636.597 148.637L638.563 147.804L639.169 147.048L640.076 147.124L643.177 145.384V145.913L640.001 148.183L643.404 146.064L644.69 144.4L645.824 144.324L649.228 141.979L651.648 139.634L653.917 137.894L654.673 136.986L653.387 136.91L652.631 137.818L652.48 138.348L651.799 138.877L651.194 138.045L649.908 138.802L649.833 139.482L649.152 139.331L649.53 138.65L648.623 138.121L648.169 138.802L648.849 139.029L649.001 139.407L648.774 139.785L647.715 141.752H646.278L646.959 140.39L647.639 139.936L647.866 138.65L648.925 137.44L649.606 136.835L650.74 136.305L649.833 136.154L649.303 136.835H648.774L647.942 137.44L647.791 138.196L646.127 139.785L645.824 140.466L644.765 141.147L638.942 142.584L639.093 143.265L638.412 143.795L636.9 144.022L636.143 143.568L635.992 144.4L635.16 144.097L635.236 144.854L634.328 144.778L633.421 145.157L633.269 145.989H632.513L632.664 146.745H632.135L632.286 147.502L630.925 147.804L629.79 149.545L629.639 151.133ZM629.034 150.831L627.824 151.133V151.89L627.294 153.1L627.748 153.63L629.563 151.89L629.488 151.209L629.034 150.831ZM621.395 78.8076L620.941 80.245L622 80.9259L621.698 82.0608L622.076 84.4817L623.74 86.2217L623.437 87.8861L623.891 89.3992L623.588 90.1558L623.361 93.0306L625.706 98.0995L625.101 99.4613L625.782 101.126L626.462 99.9152L627.899 101.05L630.168 111.793L629.79 113.306L630.622 114.063L630.244 125.411L630.773 126.167L632.891 138.499L634.252 139.634L631.605 142.206L632.891 143.87L631.908 146.367L630.773 147.653L629.639 149.393L629.488 148.864L629.79 144.4L618.748 140.693L617.538 139.861L616.101 140.088L613.832 138.423L611.563 134.035H610.05L609.748 132.901L608.462 132.068L555.141 142.584L554.536 138.045L557.788 135.095L558.242 133.808L561.192 131.917L561.646 130.101L563.385 128.588L563.99 127.756L562.705 125.259L561.419 124.881L560.057 122.612L559.906 120.191L565.654 117.24L571.856 116.03H575.184L577.604 117.24L578.285 117.164L579.646 115.954L582.218 115.424H584.487L586.453 114.441L588.344 112.474L590.159 110.129L591.596 109.826L592.428 109.448L592.73 107.027L591.672 104.984L590.764 104.454L592.277 103.471L592.201 102.109H591.067L589.327 101.05L589.251 98.7047L593.941 94.0898L594.47 92.2741L597.268 87.5079L601.731 82.666L603.319 81.3799L605.21 81.4555L620.79 77.5215L621.395 78.8076Z" fill="#EDEFF1"/>
<path d="M619.577 223.61L597.568 228.225L567.769 233.748L545.533 236.396V240.33L544.399 240.254L543.34 241.162L541.525 245.096L539.559 244.264L536.911 246.155L536.382 247.744L535.248 248.652L534.642 248.047L534.567 246.912L533.962 246.76L530.937 249.257L530.483 251.829L526.928 253.645L526.55 254.553L524.13 256.52L521.407 256.898L517.928 259.168L517.323 262.27L516.34 262.951L515.205 262.875L514.146 263.858L514.071 267.565L530.256 265.296L533.584 263.858L534.567 263.783L540.088 260.53L557.635 258.865L557.937 259.243L557.786 260.303L558.315 260.53L559.223 259.395L561.719 261.664L561.794 263.631L576.694 261.513L595.224 274.45L598.249 272.786L600.518 272.256H601.804L602.636 273.088L603.241 271.575L603.695 267.792L604.98 264.842L609.064 260.227L612.165 257.579L616.249 255.839L618.14 255.536L619.124 255.839L619.653 256.671L622.149 251.678L624.645 247.668L624.115 247.441L620.787 252.586L620.409 251.981L621.922 250.316L621.619 249.181L620.107 248.803L620.863 249.787L619.955 249.862L619.048 248.5L618.14 250.014L616.93 250.165L617.687 248.122L618.216 246.836L618.065 244.642L616.401 244.566L617.081 243.886L617.913 244.113L619.955 244.188L620.561 243.81H622.3L623.813 242.372L623.964 239.952L624.947 238.892L625.855 238.741L626.838 237.985L626.46 235.185L624.796 232.31L622.754 232.159L622.073 233.37L621.695 232.613L619.653 232.764L618.745 233.067L617.308 233.975L617.081 233.672H616.401L615.039 234.58L613.073 234.958V233.975L613.678 233.218L614.434 233.748H615.191L616.476 232.159L619.275 230.873L620.787 229.209H622.603L623.208 230.192L624.493 230.797L624.115 229.663L623.888 228.452L621.771 226.107L621.544 225.048L621.241 225.804L620.561 224.821L619.577 223.61ZM624.872 247.063L626.914 245.172L630.393 242.675V239.876L630.09 237.531L628.804 234.353L629.939 235.412L630.695 237.833L630.998 243.583L629.712 243.886L627.367 245.701L624.947 248.122L624.872 247.063ZM626.309 232.462L625.628 232.31V233.067L627.519 234.731L627.367 233.672L626.309 232.462ZM628.502 234.05L627.443 231.932L625.779 229.36L623.964 227.09L622.3 223.837L621.695 223.308L623.359 226.561L623.586 227.544L626.157 231.705L627.519 233.294L628.502 234.05Z" fill="#EDEFF1"/>
<path d="M344.052 48.4703L343.22 50.5886L343.825 51.6478L343.598 55.5061L343.22 56.3383L345.262 63.2229L346.245 65.1142L346.774 75.7059L347.531 77.7485L347.228 82.1365L349.421 87.7349L349.648 92.1229L349.573 93.7116L327.261 93.409L292.47 91.8203L262.823 89.6263L266.756 39.1648L300.412 41.737L342.236 42.9475L344.052 48.4703Z" fill="#EDEFF1"/>
<path d="M511.198 154.538L512.635 154.235L514.904 155.218L516.492 155.672L517.022 156.353H517.778L518.534 155.218L519.518 155.824H520.652L520.576 156.58L518.232 156.959L516.719 157.791L518.156 158.396L519.366 157.261L521.181 156.959L522.845 158.093L523.98 158.018L525.871 156.732L528.593 155.143L532.526 154.916L536.232 150.452L539.106 148.107L546.14 144.249L549.846 166.869L548.182 167.777L549.241 169.366L549.165 171.03L549.619 172.543L548.787 175.116L548.711 179.201L547.955 181.924L548.333 182.757L548.031 184.421L547.199 184.799L545.686 187.296L544.325 188.809H543.871L542.51 190.095L541.526 189.187L540.392 190.549L540.165 191.457H539.182L538.199 193.121L538.274 194.71L537.518 195.088L538.577 195.921V197.358L537.82 197.509L537.291 198.115L536.535 198.493L536.081 196.904L534.871 196.526L534.114 198.266L533.888 199.93L533.056 200.914L534.039 203.637L532.904 204.243L532.602 206.89H531.467L529.047 207.95L528.14 206.361L525.492 205.302L524.887 203.108L524.509 202.503L521.938 203.864L521.484 205.15H520.803L519.82 205.68L518.912 205.075L516.643 204.469L515.206 205.075V205.831L513.543 205.68L512.106 204.091L510.366 204.243L507.265 203.713V202.956L505.601 200.384L503.408 199.476L501.971 200.082L500.307 200.006L499.324 199.628L494.332 156.353L510.517 153.705L511.198 154.538Z" fill="#EDEFF1"/>
<path d="M371.884 298.13L368.405 295.255L366.741 294.574L366.363 295.785L362.505 296.012L362.052 294.877L358.27 296.768L357.06 296.239L354.261 296.466L353.808 297.752L351.085 298.433L350.102 297.525L349.194 297.6L347.681 296.239L346.093 296.768L344.581 296.39L343.219 294.877L341.328 298.054L340.421 298.66L339.664 297.298L339.891 295.785L338.984 295.255L337.244 297.147L335.958 296.239L335.883 295.104L334.9 295.482L332.933 294.196L330.664 296.163L328.925 295.331L329.454 293.742L327.715 293.818L326.278 291.548L323.63 290.716L322.118 292.456L320.378 290.792L319.319 291.094L317.807 291.17L315.16 289.732L313.42 289.808L312.513 289.279L312.134 287.085L310.395 285.798L309.563 286.933L308.504 286.177L307.596 285.874L306.764 286.631L305.63 286.404L303.739 284.134L301.697 283.15L302.756 250.846L262.974 248.425L263.427 240.406L275.907 241.162L327.11 243.356L374.001 243.432L374.153 251.603L377.254 270.062L376.724 299.568L371.884 298.13Z" fill="#EDEFF1"/>
<path d="M63.6066 122.536L99.1536 131.009L105.582 102.79L107.776 98.402L108.078 96.8132L108.683 96.1323L108.003 94.6192L105.809 93.7114L105.961 90.5339L108.986 86.1459L110.877 85.5407L112.087 83.8006L112.011 82.5902L113.372 81.3797L115.793 77.2187L118.969 73.5873L118.591 71.1663L115.944 68.8211L114.734 66.0975L91.8173 60.5747L89.6996 61.3313L85.6155 60.6504L84.2541 59.9695L83.1197 60.8773L80.6238 60.5747L77.2204 60.953L76.5397 61.4826L73.3631 61.18L72.7581 59.9695L71.8505 59.8182L68.5227 60.8017L67.3125 59.9695L65.6486 60.5747L65.4974 59.2129L63.7578 58.3051L62.6234 58.1538L61.867 57.3216L59.5981 57.5485L58.6905 56.9433H57.7829L56.8753 57.6242L52.7156 58.1538L47.7238 54.9763L48.5558 50.7396L48.2533 47.6378L45.833 44.8386L43.0346 44.9142L42.7321 44.082L43.0346 43.1742L42.5052 42.569L41.7489 42.6446L40.917 43.6281L39.7825 43.4768L39.4043 42.6446L38.648 42.569L38.1186 43.0229L36.6059 41.5854V44.8386L35.6227 45.8221L34.7908 48.47L34.7151 50.2101L31.3117 59.5156L21.3282 83.1954L18.908 86.6755L17.6979 86.5999L17.7735 88.1886L13.8407 93.5601L13.6138 96.0567L14.3701 97.0402L14.4457 98.8559L13.5381 99.6881L12.6306 101.958L12.7062 106.27L13.6138 108.464L63.6066 122.536Z" fill="#EDEFF1"/>
<path d="M617.536 139.861L616.099 140.088L613.83 138.423L611.561 134.035H610.049L609.746 132.901L608.46 132.068L555.14 142.584L554.535 138.045L551.358 140.617L550.677 140.693L548.635 142.963L546.139 144.249L549.845 166.87L552.266 181.773L565.426 179.579L611.183 170.652L612.091 169.063L613.225 168.231L614.435 168.004L615.645 168.458L616.704 167.172L617.914 166.718L619.276 164.449L620.486 162.709L622.982 160.741L619.805 158.321L618.217 157.488L617.46 155.37L615.418 154.689L615.04 151.966L615.797 151.209L616.326 149.696L615.191 148.334L617.46 144.249L617.385 142.584L618.746 140.693L617.536 139.861Z" fill="#EDEFF1"/>
<path d="M660.572 125.714L659.589 124.881L657.622 123.898L657.168 122.233H656.563L656.034 120.266L651.118 121.779L653.538 131.085L653.236 131.917L653.538 133.279L657.774 130.555L657.849 128.286L657.244 127.681L657.547 127.227L657.471 126.243L656.79 125.714L657.698 125.411L657.017 124.2L658.379 124.73L658.605 125.789L659.135 126.697L658.076 126.092L658.908 127.378L658.681 128.286L658.227 127.454V129.345L658.681 128.664L658.984 129.345L659.967 128.21L659.816 126.319L660.874 128.664L661.631 127.983L660.572 125.714ZM657.017 134.943H657.698L658.076 134.489L657.471 133.506L656.942 134.035L657.017 134.943Z" fill="#EDEFF1"/>
<path d="M576.694 261.513L561.795 263.632L561.719 261.664L559.223 259.395L558.316 260.53L557.786 260.303L557.938 259.244L557.635 258.865L540.088 260.53L534.567 263.783L533.584 263.858L530.256 265.296L530.181 266.733L528.744 267.49L527.685 269.911L527.836 270.894L532.45 273.769L534.416 273.542L536.761 276.568L537.063 277.855L540.24 281.713L542.206 282.999L543.265 283.15L544.929 284.361L545.761 286.025L547.274 287.236L548.635 287.614L550.677 289.657L550.753 290.716L552.719 292.834L556.501 294.574L559.223 299.643L559.45 301.686L562.4 303.274L564.291 306.906L564.896 309.251L568.072 309.554L568.677 308.419H569.131L570.493 307.284L570.871 305.771L573.291 304.182L573.518 302.367L572.61 301.686L573.215 301.156L573.82 301.459L574.804 301.156L576.165 299.567L579.039 298.206L580.249 296.39L580.325 295.86L583.955 292.532L583.879 292.153L583.199 291.548L584.031 290.413H584.636L584.938 290.791L585.468 290.186H586.451L586.905 289.051L588.644 287.463L588.417 283.377L589.022 281.637L591.745 276.947L593.56 275.282L595.224 274.45L576.694 261.513Z" fill="#EDEFF1"/>
<path d="M292.469 91.8202L327.26 93.4089L349.572 93.7115L349.496 95.3759L348.815 96.889L346.471 98.3265L346.244 99.2343L347.53 101.126L347.832 102.487L349.799 102.941L350.933 104.379L350.782 134.262L349.118 134.187L349.042 135.397L350.025 136.532L349.95 137.364L349.194 137.742L349.496 138.953L350.479 139.256L351.009 140.769L349.723 144.627L348.967 147.88L349.95 148.788L350.177 149.771L350.706 151.058L349.572 151.209L348.21 150.679L347.53 148.712L346.622 147.729L342.008 146.064L341.555 145.232L340.042 144.778L338.983 145.232L338.227 144.854L337.546 145.157L337.017 144.854L336.336 145.157L335.807 144.778L335.05 145.308L333.916 144.854L332.554 146.367L331.193 146.443L329.605 144.93L328.319 144.778L325.748 142.357L297.007 141.147L258.359 138.499L261.309 105.287L262.822 89.6262L292.469 91.8202Z" fill="#EDEFF1"/>
<path d="M462.188 272.786L496.752 269.759L514.072 267.565L514.147 263.858L515.206 262.875L516.34 262.951L517.324 262.27L517.929 259.168L521.408 256.898L524.131 256.52L526.551 254.553L526.929 253.645L530.484 251.829L530.937 249.257L533.963 246.761L534.568 246.912L534.643 248.047L535.249 248.652L536.383 247.744L536.912 246.155L539.56 244.264L541.526 245.096L543.341 241.162L544.4 240.254L545.534 240.33V236.396L545.761 235.866L542.282 236.245L542.131 237.001L520.273 239.498L516.038 240.557L500.533 241.616L496.601 242.221L483.441 242.978L481.474 243.583L464.381 245.096L463.852 244.642H461.053L461.961 247.063L461.507 247.744L443.885 248.879L443.28 249.635L442.675 249.106H441.919V250.089L442.372 250.846L442.297 251.602L441.238 251.981L442.297 253.115L441.692 253.645L440.406 253.494L440.86 254.25L441.767 255.082V255.612L440.86 255.99L440.103 257.503L440.179 257.957L441.238 258.714L440.935 259.243H439.801V259.622L440.482 260.303L440.557 260.908L439.498 261.059L439.12 261.664L437.91 261.816L437.229 262.497L437.683 263.178L438.515 263.102L438.893 263.783L437.683 264.766L437.986 265.901L436.473 265.447L436.397 265.977L436.7 266.809L436.473 267.868L435.49 267.263L434.885 267.868L435.717 267.944L435.792 269.079L435.339 269.835L436.17 270.516L435.944 271.651L436.549 272.18L436.019 272.937L435.112 272.559L434.431 274.223L433.221 274.753L462.188 272.786Z" fill="#EDEFF1"/>
<path d="M206.097 321.129L206.324 318.859L232.342 321.583L256.393 323.55L262.368 248.425H262.973L302.755 250.846L301.696 283.15L303.738 284.134L305.629 286.403L306.764 286.63L307.596 285.874L308.503 286.176L309.562 286.933L310.394 285.798L312.134 287.084L312.512 289.278L313.419 289.808L315.159 289.732L317.806 291.169L319.319 291.094L320.377 290.791L322.117 292.456L323.63 290.716L326.277 291.548L327.714 293.817L329.453 293.742L328.924 295.33L330.663 296.163L332.932 294.196L334.899 295.482L335.882 295.103L335.958 296.238L337.243 297.146L338.983 295.255L339.891 295.784L339.664 297.297L340.42 298.659L341.328 298.054L343.218 294.877L344.58 296.39L346.092 296.768L347.681 296.238L349.193 297.6L350.101 297.524L351.084 298.432L353.807 297.751L354.261 296.465L357.059 296.238L358.269 296.768L362.051 294.877L362.505 296.011L366.362 295.784L366.74 294.574L368.404 295.255L371.883 298.13L376.723 299.567L378.69 301.307L380.808 300.324L383.228 300.929L383.379 309.932L383.757 324.987L384.287 327.559L386.253 329.678L386.782 333.763L389.656 337.243L390.262 340.496H391.018L390.942 346.019L388.446 350.861L389.43 352.601L388.446 353.736L388.976 356.005L388.9 359.258L387.236 361.906L387.161 362.512L385.875 363.419L386.631 364.781L387.539 365.613L384.892 365.84L378.539 368.791L375.891 369.85L374.53 371.212L374.001 370.834L375.589 369.094L376.95 368.564L377.328 367.883L375.135 367.807L374.606 367.202L375.211 365.689L374.53 364.327H374.076L372.261 365.311L370.824 367.278L371.051 368.564L373.547 371.136L374.53 371.363V371.968L372.791 373.179L369.085 376.205L366.059 379.156L363.639 380.215L359.857 382.484L357.059 383.997L353.656 385.435L350.555 387.326L352.975 385.057V384.224L353.429 383.619L353.277 382.257L352.143 382.182L351.311 383.317L349.345 384.3L347.983 383.392L347.756 382.106H346.622L347.227 383.77L348.286 384.3L349.193 384.981L350.555 386.191L350.025 386.797L347.076 388.083L345.79 388.158L344.882 387.251L344.504 388.839L344.882 389.672L342.84 391.185L341.706 391.336L341.101 391.866L340.798 393.152L339.437 395.648L338.227 396.178L337.017 395.724L335.655 396.556L335.882 397.615L336.865 398.221L337.622 398.826L336.26 401.474L336.033 403.592L335.277 404.878L334.218 405.635L332.025 405.937L333.386 406.391L334.823 405.937L334.521 408.358L333.689 408.283L333.84 409.19L334.067 410.25L333.084 410.93V413.276L334.294 414.335L334.748 416.68L334.445 418.345L333.689 418.647L333.991 419.782L334.823 420.085L335.428 421.371V423.338L336.26 424.927L337.924 426.894L337.849 427.423L336.185 427.272L334.975 428.331L335.126 429.39L334.445 429.163L333.386 429.012L330.815 426.213L329.075 425.759H323.705L321.588 425.153L318.865 422.884L317.579 422.127L315.991 422.203L313.571 420.236L309.486 419.025V418.042L308.428 416.68L307.747 413.124L306.915 411.838L305.629 410.779V409.569L304.57 409.115L305.024 407.148L304.797 405.483L303.814 404.424L304.344 402.155L303.738 399.734L302.453 398.674H301.621L298.595 396.027L298.671 394.589L298.066 393.303L297.461 393.152L296.78 391.336L295.268 390.125L293.074 388.234L292.923 386.645L292.167 386.116L292.318 384.905L292.696 384.376L291.637 383.241L291.713 382.711L290.2 381.047L290.276 379.458L288.234 375.751L288.158 374.465L286.797 372.12L282.94 368.488V367.656L280.444 366.37L280.368 365.008L279.461 364.706V364.176L278.855 364.025L277.267 361.906H276.662L276.133 361.452L275.15 362.285H273.486L271.519 361.452H268.04L264.864 359.864L263.88 361.301L262.216 360.847L259.721 361.755L258.435 363.873L256.922 366.294L256.09 369.623L255.031 370.531L254.199 370.607L253.519 371.817L252.536 372.271L252.46 373.633L250.267 373.708L248.905 372.574H248.149L246.636 370.38L243.913 370.001L242.628 368.261L241.644 368.11L240.056 367.505L237.485 364.933L237.636 364.327L236.426 363.419L235.67 363.344L233.098 360.999L233.022 359.485L231.283 356.459L231.434 355.249L230.905 354.265L231.51 353.13L231.434 351.315L229.468 348.213L229.014 345.035L227.804 343.825V343.068L226.896 342.917L226.367 342.085L224.552 340.799L223.871 340.723L222.434 339.513V338.68L220.241 337.319L219.787 335.73L217.82 333.99L215.4 330.661L213.131 329.678L211.543 328.316L211.694 327.408L210.711 326.349L209.425 323.55L207.61 322.793L206.097 321.129ZM338.378 425.759L338.983 425.834L338.529 422.203L335.882 412.897L335.731 406.769L339.437 398.826L344.05 392.622L349.496 388.764V388.234H348.891L346.924 388.991L344.202 390.731L343.672 391.866L337.47 400.641L335.353 406.618V413.276L338.075 422.354L338.378 425.759Z" fill="#EDEFF1"/>
<path d="M168.962 161.422L171.458 144.854L135.23 138.65L119.347 221.114L154.289 227.317L184.542 231.857L193.24 165.054L168.962 161.422Z" fill="#EDEFF1"/>
<path d="M642.345 74.0414L641.513 76.6893L643.101 78.8076L642.799 80.0937L642.874 81.0772L642.042 82.666L640.983 82.9686L640.53 83.9521L638.941 84.7086L638.412 85.8434L639.471 88.4157L639.093 90.3071L639.471 91.4419L638.714 92.8793L639.017 94.3167L638.034 95.7542L638.185 97.4186L637.656 98.2508L638.185 101.655L638.714 102.79L638.336 104.757L639.017 106.119L638.866 108.01L638.487 108.994L638.412 110.053L640 112.02L630.622 114.063L629.79 113.306L630.168 111.793L627.899 101.05L626.462 99.9152L625.781 101.126L625.101 99.4613L625.706 98.0995L623.361 93.0306L623.588 90.1558L623.89 89.3992L623.437 87.8861L623.739 86.2217L622.075 84.4817L621.697 82.0607L622 80.9259L620.941 80.245L621.395 78.8076L620.79 77.5215L641.437 72.3013L642.345 74.0414Z" fill="#EDEFF1"/>
<path d="M623.89 197.358L623.058 199.477L623.437 200.309L623.739 199.477L624.344 197.131L623.89 197.358ZM597.722 192.063L597.192 191.306L597.949 191.23L598.705 190.549L599.007 189.188L598.856 188.809L598.932 188.431L598.705 187.902L598.251 187.523L597.949 187.448L597.57 187.145L597.117 186.691H596.36L595.906 186.615L595.604 186.313L595.68 185.935L594.394 185.481L593.789 185.708L592.881 185.632L592.352 185.102L591.974 184.951L591.822 184.421L592.276 183.816V183.135L591.369 182.984L590.612 182.303L589.932 182.379L588.721 182.152L588.419 182.681L588.116 183.892L587.738 185.632L580.175 181.698L580.024 182.379L580.704 183.589L580.099 185.329L580.175 187.523L579.267 188.128L578.889 189.717L578.209 190.322L577.15 191.684L576.469 192.289L575.713 194.181L573.898 193.349L572.158 199.779L571.175 200.99L569.057 200.611L568.074 199.174L566.334 198.644L566.259 202.2L565.2 203.486L565.502 204.621L563.914 206.286L564.217 207.723L561.418 212.489L560.662 214.986L561.796 215.894L560.662 217.331L560.738 218.39L558.998 219.903L558.469 219.071L555.216 221.416L554.082 220.66L553.628 221.719L554.233 222.097L553.855 222.778L549.695 224.594L547.426 223.232L546.821 224.518L545.384 225.88L543.645 225.956L540.317 224.216L540.241 223.081L539.107 222.551L539.712 221.643L539.182 221.189L535.476 226.183L533.283 226.939L531.014 229.209L530.712 230.873L529.123 231.857L529.048 233.143L527.989 234.202L526.627 234.58L526.249 236.018L525.493 236.32L520.274 239.498L542.132 237.001L542.283 236.245L545.762 235.866L545.535 236.396L567.771 233.748L597.57 228.225L619.579 223.61L619.126 222.703L619.428 222.627L620.109 223.308L620.033 222.249L619.806 220.811L621.016 221.719L621.697 223.308V222.324L619.126 218.163V217.255L618.596 216.65L617.613 217.18L617.991 218.239H617.386L617.083 217.482L616.63 218.163L615.949 217.331L614.361 217.255L614.209 217.785L615.344 219.374L614.285 218.844L613.907 218.088L613.604 218.693L612.999 218.769L611.865 220.055L612.092 218.844V217.785L610.957 217.255L609.596 216.877L609.445 215.591L608.991 214.608L608.537 215.44L607.251 214.683L605.739 214.91L605.89 214.229L607.024 214.078L607.705 214.456L608.991 213.851L609.672 214.154L610.05 214.91V215.44L611.487 215.742L611.714 216.423L612.394 216.726L613.075 217.634L614.134 216.423H614.588L614.512 214.835L613.529 215.591L613.075 214.91L614.209 214.759L613.302 214.078L612.394 214.532L612.319 213.246L611.033 213.397L609.369 212.565L608.008 210.9L610.73 212.565L611.411 212.792L612.697 212.187L611.411 211.506L611.865 211.052L611.109 210.674L611.714 210.522L611.487 209.841L612.319 210.522L612.621 209.917L612.924 210.9L613.831 211.506L614.285 211.127L613.907 210.674L613.831 208.782L612.999 208.706L611.789 208.101L612.47 207.269L610.957 207.193L610.655 206.815L609.596 207.269L608.537 206.664L608.159 205.756L606.571 204.848L604.982 203.486L603.318 202.049L605.587 203.032L606.268 203.94L607.856 204.47L609.596 206.361L609.747 205.075L610.201 206.059L611.94 206.437V203.411L611.335 202.578L612.167 202.881L612.243 201.671L609.898 200.611L608.688 200.46L607.705 200.309L607.932 199.401L606.797 199.174L606.722 198.72H605.361L605.209 199.325L604.68 198.569H602.638L601.881 198.266L601.73 197.51L600.823 197.056L600.52 195.921L600.066 195.618L599.537 196.45L598.856 196.602L598.175 197.131H597.041L596.36 196.148L596.663 193.803L597.041 191.987L597.495 192.365L597.722 192.063ZM614.285 200.838L614.966 200.763V200.309L614.361 200.385L614.285 200.838ZM619.957 211.581L619.201 213.624L620.109 212.641L619.957 211.581ZM618.596 200.006L619.126 200.233L618.974 201.671L618.596 201.292L617.613 202.049L618.369 202.352L617.008 205.68L617.083 211.808L618.52 214.154L618.899 213.019L619.201 210.976L618.974 209.236L619.504 208.555L619.352 207.496L620.26 207.042L619.806 206.664L620.184 206.134L620.789 206.966L620.638 207.799L620.336 210.749L621.168 209.085L621.47 206.739L621.546 204.47L621.319 202.957L621.773 201.217L622.605 199.855L622.68 198.191L622.907 197.51L619.428 198.72L618.899 199.325L618.596 200.006Z" fill="#EDEFF1"/>
<path d="M115.036 59.8182L115.566 62.8444L114.734 66.0975L91.8174 60.5748L89.6997 61.3313L85.6156 60.6504L84.2542 59.9695L83.1198 60.8774L80.6239 60.5748L77.2205 60.953L76.5398 61.4826L73.3632 61.18L72.7582 59.9695L71.8506 59.8182L68.5228 60.8017L67.3127 59.9695L65.6487 60.5748L65.4975 59.213L63.7579 58.3051L62.6235 58.1538L61.8671 57.3216L59.5982 57.5486L58.6906 56.9434H57.783L56.8754 57.6242L52.7157 58.1538L47.7239 54.9763L48.5559 50.7397L48.2534 47.6379L45.8331 44.8386L43.0348 44.9143L42.7322 44.0821L43.0348 43.1742L42.5053 42.569L41.749 42.6447L40.1607 41.5098L39.2532 41.8125L37.7405 41.7368L37.2111 40.602L36.001 40.375L37.8918 34.7009L37.3624 39.2402L37.7405 39.6185V38.1054L38.3456 37.9541L39.1775 39.6941L38.7994 38.0297L39.7069 34.8522L41.0683 35.1549L40.2364 33.6418L39.4801 33.8687L38.3456 33.5661L38.4968 30.3886L38.6481 31.5235L39.3288 31.9017L39.7826 30.6913H42.2028L40.5389 29.7834L39.2532 28.346L38.1943 29.5564L39.1019 27.2111L38.875 23.731L38.7237 21.0075L39.4044 16.3926L39.0263 14.8795L37.9674 13.2907L38.043 10.2646L38.3456 8.22188L39.8582 6.48183L39.3288 5.42267L39.4801 4.96874L40.1607 5.04439L46.06 10.7941L49.6148 12.2316L53.472 14.1229L55.8922 14.0473L56.0435 16.3169L56.7998 15.1064H57.3292L57.783 17.1491L58.1612 15.1821L59.22 15.0308L59.5982 15.5604L58.7662 16.0143L58.8419 17.2248L59.3713 16.0899H60.2032L59.9007 18.057L59.0688 17.4517L59.3713 18.5109L59.2957 19.6457L58.6906 20.1753L56.7998 22.3693L57.7074 19.797L56.4973 20.0996L56.1947 21.6884L53.3207 23.8067L53.0182 24.5632L51.4299 26.2276L51.3543 26.9842H53.0182L54.8334 26.8329L55.2115 26.152L52.2619 26.5303V26.0763L54.2283 23.958L55.5897 23.3528L57.0267 23.2015L57.783 21.991L60.052 20.2509V19.1918H60.8839L60.9596 22.218H59.8251L59.3713 22.8232L58.5393 22.1423L58.7662 22.9745V24.2606L58.2368 24.7902L58.0099 23.5797L57.4049 24.185L57.9343 24.6389L57.2536 25.4711H58.2368L58.7662 25.0928L58.8419 26.6059L58.0855 28.0433L57.4049 28.7999L57.3292 30.1617L56.5729 30.0104L56.4216 28.9512L57.1023 28.119L56.4973 27.7407L55.8922 28.2703L55.3628 29.9347L54.7577 30.6156L54.6821 29.1025L55.2872 28.2703L55.1359 27.4381L54.2283 28.346L54.3039 30.0104L53.8501 30.313L52.2619 30.0104L51.2787 30.9182L52.9426 30.4643L52.7913 32.1287L53.5476 30.7669L53.8501 31.8261L54.2283 31.0695L54.7577 32.4313H55.2872L55.8166 31.8261L56.2704 31.7504L57.783 30.313L57.9343 29.4051L58.5393 29.8591L58.7662 30.5399L59.2957 30.313L59.3713 29.4051H60.3545L60.5058 27.2111L60.4301 25.1685L61.1108 25.3954L60.5814 23.8067L61.6403 23.2015L61.7915 21.3858L63.5311 19.7214L64.2874 19.797L64.5143 18.7378L63.6067 17.6787L63.5311 15.0308L62.926 15.7117L63.4554 17.9057L63.0016 17.9813L62.5478 16.5439L62.094 16.1656L62.3209 14.4255L63.6823 14.3499L63.9092 14.8795L64.1361 13.669L62.926 12.3829L62.4722 11.1724L62.3209 12.6855L63.0016 13.5177L62.4722 13.8203L61.7159 13.2151L60.3545 14.1986L61.489 14.5769L61.6403 16.3926L61.4134 17.7543L62.094 16.7708L63.1529 18.5109L62.8504 19.9483H61.7159V19.0405L60.5814 18.1326L60.9596 15.863L59.5226 13.896L61.5646 11.6263L62.0184 8.5245H62.6991L63.7579 10.9454V8.97843L64.6655 9.20539V6.70879L63.9848 6.10356L63.0773 7.99492L62.3209 5.72528L63.3042 5.64963L62.1697 1.94256L63.6067 1.48864L82.8172 7.16272L106.793 13.2151L124.642 17.3761L115.036 59.8182ZM55.514 30.0104H55.8922L55.9678 30.6156L55.5897 30.8426L55.6653 31.2965L55.1359 31.5991L54.9846 30.9182L55.3628 30.6156L55.514 30.0104ZM59.2957 26.7572L58.3881 28.1947L58.3124 28.7999L58.615 28.9512L58.9931 28.4973L59.8251 28.5729L59.2957 26.7572ZM58.9931 10.4159L59.3713 10.8698L60.3545 10.6428L60.5058 9.88628L61.4134 8.5245L60.657 8.22188L60.1276 9.43235L60.052 8.22188L59.22 8.37319L58.6906 9.43235L58.9931 10.4159ZM61.4134 6.25487L61.9428 7.38968L61.2621 7.54099L60.657 7.84361L60.5058 6.0279L61.4134 6.25487ZM59.3713 5.04439L58.5393 4.89309L58.9175 5.95225L59.3713 5.04439ZM58.615 6.93576L59.22 7.23837L58.9175 8.07057L60.2032 7.6923L60.052 6.0279L59.3713 5.87659L58.615 6.93576ZM56.5729 6.63314L56.7998 8.67581L58.0099 9.65932L58.4637 8.22188L57.6318 6.55748L56.5729 6.63314ZM58.0099 5.80094L57.178 5.04439L56.4973 5.12005L57.8586 6.25487L58.0099 5.80094ZM60.4301 0.505127H59.5226V1.11036L60.4301 1.56429V0.505127ZM59.7495 25.0928L60.052 23.0502H59.22L59.0688 24.4876L59.7495 25.0928Z" fill="#EDEFF1"/>
<path d="M539.711 221.643L539.106 222.551L540.24 223.081L540.316 224.215L543.644 225.955L545.383 225.88L546.82 224.518L547.425 223.232L549.694 224.594L553.854 222.778L554.232 222.097L553.627 221.719L554.081 220.66L555.215 221.416L558.467 219.071L558.997 219.903L560.736 218.39L560.661 217.331L561.795 215.893L560.661 214.986L561.417 212.489L564.215 207.723L563.913 206.285L565.501 204.621L565.199 203.486L566.258 202.2L566.333 198.644L568.073 199.174L569.056 200.611L571.174 200.989L572.157 199.779L573.896 193.348L575.712 194.181L576.468 192.289L577.149 191.684L578.207 190.322L578.888 189.717L579.266 188.128L580.174 187.523L580.098 185.329L580.703 183.589L580.023 182.378L580.174 181.698L587.737 185.632L588.115 183.892L588.418 182.681L588.72 182.152L588.04 181.849L588.191 180.638L587.435 180.26L587.283 179.731H586.754L586.149 178.823L586.3 178.066L584.334 178.369L582.67 177.158L581.611 177.385L580.93 178.444H579.947L578.661 180.638L576.165 180.941L574.728 180.185L572.762 183.059L571.098 182.832L568.753 185.783L568.073 186.993L566.711 188.204L565.426 179.579L552.266 181.773L549.845 166.869L548.181 167.777L549.24 169.366L549.165 171.03L549.618 172.543L548.787 175.116L548.711 179.201L547.955 181.925L548.333 182.757L548.03 184.421L547.198 184.799L545.686 187.296L544.324 188.809H543.87L542.509 190.095L541.526 189.187L540.391 190.549L540.164 191.457H539.181L538.198 193.121L538.274 194.71L537.517 195.088L538.576 195.921V197.358L537.82 197.509L537.29 198.115L536.534 198.493L536.08 196.904L534.87 196.526L534.114 198.266L533.887 199.93L533.055 200.914L534.038 203.637L532.904 204.243L532.601 206.891H531.467L529.047 207.95L528.971 208.782L529.425 209.538L528.971 212.262L530.408 213.472L531.013 214.305L531.769 214.759L531.694 215.439L535.022 219.676H536.08L537.215 221.038L538.122 221.265L539.181 221.189L539.711 221.643Z" fill="#EDEFF1"/>
<path d="M454.701 105.513L452.508 106.119L452.659 107.859L450.844 110.431L450.692 112.776L451.146 113.306L451.751 112.776L452.129 111.566L453.642 110.734L454.852 107.556L457.499 106.724L458.104 104.227L458.634 103.546L458.936 101.958L460.298 101.125V99.9907L461.054 99.3098L462.113 99.3854V100.899L461.357 100.974L461.735 101.882L461.205 103.546L460.752 103.622L459.844 107.027L459.315 107.405L457.197 112.852L456.97 116.029L457.424 117.542L457.499 118.526L455.684 119.963L455.911 121.401L455.23 123.746L455.457 124.957L455.76 127.756L454.928 130.858L453.793 134.64L454.55 135.775L454.323 136.002L454.928 137.288L454.55 138.121L455.382 138.801V140.844L456.365 141.979L456.062 144.249L456.289 147.275L421.574 149.393L420.591 147.275L418.095 146.745L416.053 145.61L414.54 141.449L414.616 139.558L415.826 137.061L415.372 136.229L413.784 135.019L413.633 133.052L412.801 129.647L412.65 127.378L410.986 125.108L408.868 124.578L404.935 121.855L404.481 119.358L399.716 117.013L399.565 116.029H397.069L395.405 114.062L393.893 113.079L394.422 109.221L393.742 108.01L394.12 103.925L394.876 102.563L394.649 100.52L393.742 99.5367L392.38 99.3098V98.0237L394.498 93.6357L398.96 90.6852L398.658 80.8501L399.338 81.1527L399.792 80.7744L399.868 79.9422L400.548 79.4883L401.607 80.3962L402.137 80.3205H404.103L409.246 78.3535L409.473 77.5969H410.381L410.91 76.6891L411.213 77.2943L412.574 76.6134L413.935 75.3273L414.162 75.7056L414.919 74.949L416.582 76.1595L415.977 77.37L415.07 78.4291L415.448 79.564L414.389 80.7744L414.692 81.4553L416.431 80.6231V79.564L418.927 81.0014L420.364 81.531L421.801 82.0606L424.07 84.9354L436.927 87.8103L437.986 88.5668L441.012 89.1721L441.541 89.5504L443.659 89.399L447.365 90.0043L448.424 91.1391L447.667 91.8956L448.272 92.5009L451.146 93.0305L452.054 93.9383L452.129 97.2671L451.146 99.3854L452.659 99.4611L453.415 98.8558L454.096 99.4611L453.264 101.806L454.02 103.017L454.928 103.244L454.701 105.513ZM417.263 77.2943L416.885 77.37L415.75 78.5805L415.902 78.9587L417.036 78.5048V78.0509L417.717 77.8239L417.263 77.2943ZM418.473 76.4621L417.717 76.6891L417.566 77.2187L418.246 77.143L418.473 76.4621ZM417.49 75.2517L417.339 75.9326H418.624L419.078 75.6299L419.154 74.8734L417.49 75.2517ZM419.608 72.982L419.381 74.4195L420.288 74.0412L420.364 72.982H419.608ZM463.701 97.1158L462.189 97.3428L461.886 98.3263L462.869 99.6124L463.701 97.1158Z" fill="#EDEFF1"/>
<path d="M261.309 105.286L222.736 101.277L179.399 95.3001L177.887 103.395L171.458 144.854L168.962 161.422L193.24 165.054L227.199 169.366L255.561 171.938L258.359 138.499L261.309 105.286Z" fill="#EDEFF1"/>
<path d="M600.293 187.22L598.326 185.858L597.57 187.144L597.948 187.447L598.25 187.522L598.704 187.9L598.931 188.43L598.856 188.808L599.007 189.186L600.293 187.22Z" fill="#EDEFF1"/>
<g filter="url(#filter0_d_1_243)">
<ellipse cx="187.98" cy="117.886" rx="30.4827" ry="30.4917" fill="white"/>
<path d="M205.94 99.9209C201.241 95.0167 194.738 92.3741 187.981 92.4757C181.223 92.3741 174.746 95.0167 170.046 99.9209C165.118 104.622 162.476 111.127 162.578 117.886C162.476 124.645 165.118 131.125 170.021 135.825C174.72 140.755 181.223 143.398 187.981 143.296C194.738 143.398 201.215 140.755 205.915 135.851C210.843 131.15 213.485 124.645 213.383 117.886C213.485 111.127 210.843 104.622 205.94 99.9209ZM200.682 117.886V133.132H191.791V120.427H184.17V133.132H175.279V117.886H170.199L187.981 100.099L207.033 117.886H200.682Z" fill="#051D4D"/>
<path d="M200.682 117.886V133.132H191.791V120.427H184.17V133.132H175.279V117.886H170.199L187.981 100.099L207.033 117.886H200.682Z" fill="white"/>
</g>
<g filter="url(#filter1_d_1_243)">
<ellipse cx="157.497" cy="249.98" rx="30.4827" ry="30.4917" fill="white"/>
<path d="M175.457 232.014C170.758 227.11 164.254 224.468 157.497 224.569C150.74 224.468 144.263 227.11 139.563 232.014C134.635 236.715 131.993 243.22 132.095 249.979C131.993 256.739 134.635 263.218 139.538 267.919C144.237 272.849 150.74 275.491 157.497 275.39C164.254 275.491 170.732 272.849 175.432 267.944C180.36 263.244 183.002 256.739 182.9 249.979C183.002 243.22 180.36 236.715 175.457 232.014ZM170.199 249.979V265.226H161.308V252.52H153.687V265.226H144.796V249.979H139.716L157.497 232.192L176.549 249.979H170.199Z" fill="#051D4D"/>
<path d="M170.199 249.979V265.226H161.308V252.52H153.687V265.226H144.796V249.979H139.716L157.497 232.192L176.549 249.979H170.199Z" fill="white"/>
</g>
<g filter="url(#filter2_d_1_243)">
<ellipse cx="309.912" cy="148.369" rx="30.4827" ry="30.4917" fill="white"/>
<path d="M327.873 130.404C323.173 125.5 316.67 122.857 309.913 122.959C303.156 122.857 296.679 125.5 291.979 130.404C287.051 135.105 284.409 141.61 284.511 148.369C284.409 155.128 287.051 161.608 291.954 166.309C296.653 171.238 303.156 173.881 309.913 173.779C316.67 173.881 323.148 171.238 327.848 166.334C332.776 161.633 335.418 155.128 335.316 148.369C335.418 141.61 332.776 135.105 327.873 130.404ZM322.615 148.369V163.615H313.724V150.91H306.103V163.615H297.212V148.369H292.131L309.913 130.582L328.965 148.369H322.615Z" fill="#051D4D"/>
<path d="M322.615 148.369V163.615H313.724V150.91H306.103V163.615H297.212V148.369H292.131L309.913 130.582L328.965 148.369H322.615Z" fill="white"/>
</g>
<g filter="url(#filter3_d_1_243)">
<ellipse cx="424.732" cy="298.753" rx="30.4827" ry="30.4917" fill="white"/>
<path d="M442.695 280.788C437.995 275.884 431.492 273.241 424.735 273.342C417.978 273.241 411.5 275.884 406.801 280.788C401.873 285.489 399.231 291.994 399.332 298.753C399.231 305.512 401.873 311.991 406.775 316.692C411.475 321.622 417.978 324.264 424.735 324.163C431.492 324.264 437.97 321.622 442.669 316.718C447.597 312.017 450.239 305.512 450.138 298.753C450.239 291.994 447.597 285.489 442.695 280.788ZM437.436 298.753V313.999H428.545V301.294H420.925V313.999H412.034V298.753H406.953L424.735 280.966L443.787 298.753H437.436Z" fill="#051D4D"/>
<path d="M437.436 298.753V313.999H428.545V301.294H420.925V313.999H412.034V298.753H406.953L424.735 280.966L443.787 298.753H437.436Z" fill="white"/>
</g>
<defs>
<filter id="filter0_d_1_243" x="157.497" y="87.3938" width="60.9663" height="91.4675" filterUnits="userSpaceOnUse" color-interpolation-filters="sRGB">
<feFlood flood-opacity="0" result="BackgroundImageFix"/>
<feColorMatrix in="SourceAlpha" type="matrix" values="0 0 0 0 0 0 0 0 0 0 0 0 0 0 0 0 0 0 127 0" result="hardAlpha"/>
<feMorphology radius="20.3221" operator="erode" in="SourceAlpha" result="effect1_dropShadow_1_243"/>
<feOffset dy="30.4832"/>
<feGaussianBlur stdDeviation="10.1611"/>
<feComposite in2="hardAlpha" operator="out"/>
<feColorMatrix type="matrix" values="0 0 0 0 0.0472222 0 0 0 0 0.150706 0 0 0 0 0.354167 0 0 0 0.1 0"/>
<feBlend mode="normal" in2="BackgroundImageFix" result="effect1_dropShadow_1_243"/>
<feBlend mode="normal" in="SourceGraphic" in2="effect1_dropShadow_1_243" result="shape"/>
</filter>
<filter id="filter1_d_1_243" x="127.014" y="219.488" width="60.9663" height="91.4675" filterUnits="userSpaceOnUse" color-interpolation-filters="sRGB">
<feFlood flood-opacity="0" result="BackgroundImageFix"/>
<feColorMatrix in="SourceAlpha" type="matrix" values="0 0 0 0 0 0 0 0 0 0 0 0 0 0 0 0 0 0 127 0" result="hardAlpha"/>
<feMorphology radius="20.3221" operator="erode" in="SourceAlpha" result="effect1_dropShadow_1_243"/>
<feOffset dy="30.4832"/>
<feGaussianBlur stdDeviation="10.1611"/>
<feComposite in2="hardAlpha" operator="out"/>
<feColorMatrix type="matrix" values="0 0 0 0 0.0472222 0 0 0 0 0.150706 0 0 0 0 0.354167 0 0 0 0.1 0"/>
<feBlend mode="normal" in2="BackgroundImageFix" result="effect1_dropShadow_1_243"/>
<feBlend mode="normal" in="SourceGraphic" in2="effect1_dropShadow_1_243" result="shape"/>
</filter>
<filter id="filter2_d_1_243" x="279.43" y="117.877" width="60.9663" height="91.4675" filterUnits="userSpaceOnUse" color-interpolation-filters="sRGB">
<feFlood flood-opacity="0" result="BackgroundImageFix"/>
<feColorMatrix in="SourceAlpha" type="matrix" values="0 0 0 0 0 0 0 0 0 0 0 0 0 0 0 0 0 0 127 0" result="hardAlpha"/>
<feMorphology radius="20.3221" operator="erode" in="SourceAlpha" result="effect1_dropShadow_1_243"/>
<feOffset dy="30.4832"/>
<feGaussianBlur stdDeviation="10.1611"/>
<feComposite in2="hardAlpha" operator="out"/>
<feColorMatrix type="matrix" values="0 0 0 0 0.0472222 0 0 0 0 0.150706 0 0 0 0 0.354167 0 0 0 0.1 0"/>
<feBlend mode="normal" in2="BackgroundImageFix" result="effect1_dropShadow_1_243"/>
<feBlend mode="normal" in="SourceGraphic" in2="effect1_dropShadow_1_243" result="shape"/>
</filter>
<filter id="filter3_d_1_243" x="394.25" y="268.261" width="60.9663" height="91.4675" filterUnits="userSpaceOnUse" color-interpolation-filters="sRGB">
<feFlood flood-opacity="0" result="BackgroundImageFix"/>
<feColorMatrix in="SourceAlpha" type="matrix" values="0 0 0 0 0 0 0 0 0 0 0 0 0 0 0 0 0 0 127 0" result="hardAlpha"/>
<feMorphology radius="20.3221" operator="erode" in="SourceAlpha" result="effect1_dropShadow_1_243"/>
<feOffset dy="30.4832"/>
<feGaussianBlur stdDeviation="10.1611"/>
<feComposite in2="hardAlpha" operator="out"/>
<feColorMatrix type="matrix" values="0 0 0 0 0.0472222 0 0 0 0 0.150706 0 0 0 0 0.354167 0 0 0 0.1 0"/>
<feBlend mode="normal" in2="BackgroundImageFix" result="effect1_dropShadow_1_243"/>
<feBlend mode="normal" in="SourceGraphic" in2="effect1_dropShadow_1_243" result="shape"/>
</filter>
</defs>
</svg>
