<svg width="355" height="304" viewBox="0 0 355 304" fill="none" xmlns="http://www.w3.org/2000/svg">
<path d="M330.125 241.044L330.334 237.237L329.865 236.611L328.978 236.246L327.675 234.786L327.936 233.274L353.378 230.614L353.013 229.467L352.231 228.684L351.97 227.954L352.283 224.669L351.032 221.696L351.293 220.34L351.449 218.41L352.596 216.429L352.492 215.855L351.605 215.334V213.665L350.667 212.674L349.155 209.493L342.429 185.607L318.603 187.693L319.281 188.736L318.603 223.678L320.897 240.992L321.367 240.731L322.044 240.783L322.357 240.992L322.774 240.94L323.817 238.958V237.759L324.39 237.185L325.12 237.446L326.893 240.783V241.253L325.173 242.4L326.997 242.191L329.552 241.357L330.125 241.044Z" fill="#EDEFF1"/>
<path d="M3.12815 295.594H4.37941L4.74436 295.96L4.223 296.585L3.23242 296.69L1.92903 297.368L0 297.315L1.14699 296.846L1.3034 296.272L2.60679 296.116L3.12815 295.594ZM7.45543 294.708L8.13319 294.969H8.60242L8.86309 295.594L9.0195 295.282L9.48872 295.386L10.0622 296.168V296.429L7.87251 297.42L6.62125 297.368L6.09989 297.107L5.5264 297.472H4.48368L3.91019 296.742L6.36057 296.481L7.45543 294.708ZM10.2708 294.656L10.7921 294.708L11.1571 295.073V295.594L10.4793 295.647L10.0101 295.073L10.2708 294.656ZM11.5742 294.812L12.2519 294.76L12.1998 295.282L11.6263 295.594L11.5742 294.812ZM11.7306 295.96L13.5032 295.907L13.6075 296.481L12.9297 296.533L12.7733 296.272L12.3562 296.585L12.1477 296.272L11.6784 296.168L11.7306 295.96ZM98.4325 299.923L99.5273 299.975L99.006 300.966L98.4325 300.914L98.2239 300.497L98.4846 299.819L98.4325 299.923ZM97.9111 298.306L98.2239 297.628L98.1197 296.429L99.3709 296.168L101.717 298.463L102.395 300.236L103.385 301.07L103.542 303.73H102.812L102.134 302.531L100.518 301.279H100.205L100.779 302.739L101.665 302.843L101.769 303.939L101.3 303.991L99.1624 301.696L99.1102 301.227L100.101 300.705V300.184L99.8401 299.767L99.006 299.454L98.1197 298.776L98.8496 298.828L99.1102 298.619L98.7974 298.15L98.4846 298.411L97.9111 298.306ZM96.0342 293.561L96.712 293.613L97.9633 294.916L97.859 295.334L97.4419 295.282L97.3898 296.22L97.6504 296.481V297.263L97.2334 297.42L97.0248 298.046L96.6077 297.837L96.3992 296.69L96.9727 295.96L95.8778 294.812L95.93 294.186L96.0342 293.561ZM96.8163 292.778L97.8068 292.883L99.1102 292.935L100.883 294.604L100.779 294.864L100.205 295.177L99.6316 295.073L99.5795 294.708L98.9538 293.873L98.7974 294.239L99.3188 294.916L99.2145 295.542L98.7974 295.49L98.1197 295.594L98.0675 294.708L96.712 293.248L96.8163 292.778ZM90.195 288.137L90.6642 287.928H91.4984L91.8634 287.667L94.0009 288.815L94.0531 289.597L93.7924 289.858H93.3753L92.6454 289.493L93.2189 290.171H94.1573L94.418 291.214H93.9488L92.8018 290.431L92.2283 290.327L92.5411 291.005L92.5933 291.474L93.0104 291.162L93.8967 291.787L94.5744 291.735L94.4702 292.152L95.4607 294.395V296.168L95.6693 297.263L95.2522 297.42L94.6266 296.377L94.3659 295.594L93.5317 294.76L93.4274 293.352L93.1146 292.465H92.7497L92.9061 293.039V293.3L92.1762 293.821L92.2283 292.1L91.3941 291.266L90.7164 290.066L90.0908 289.441L90.195 288.137ZM93.9488 286.937L94.5223 287.876L95.7736 287.824L96.2949 288.919L95.9821 289.232L97.0248 290.901V291.579L96.3992 291.996V292.361L95.3565 293.352L95.0958 292.622L95.0437 291.944L95.3565 291.579V291.005L94.5744 290.014L94.3138 288.085L93.8445 287.302L93.9488 286.937ZM64.3878 277.394L62.3023 279.532V280.366L63.3972 279.949L63.8143 278.958L64.9613 277.707L64.3878 277.394ZM47.9128 286.051V286.364L48.8513 286.989L48.9556 286.259L49.2684 286.729L51.0931 286.781L51.4581 286.468L51.5624 285.529L51.3017 285.164H50.5718V284.747L50.7803 284.434V284.225L49.9983 284.069L48.2778 285.946L47.9128 286.051ZM43.6898 289.284L44.4719 292.309H45.5667L46.818 291.005L46.9744 291.631L50.259 289.545L50.6239 289.023L50.1026 288.45V288.085L50.3632 287.407L49.894 287.355L48.8513 287.876V287.25L47.4436 286.937L46.1924 287.094L46.0881 288.867L45.671 287.824L44.889 287.772L44.3676 288.085L43.6898 289.284ZM42.5429 293.561L42.595 293.195L43.6898 292.518L44.0027 292.674L44.6804 292.778L45.3582 293.404L44.2112 293.3L44.0027 292.987L43.4813 293.3L42.5429 293.561ZM39.8318 295.282L39.2583 295.699L40.0403 296.429L40.4574 296.064L40.4053 295.386L39.8318 295.282ZM36.5472 291.162L37.2771 291.214L37.4857 291.527L36.5472 291.579V291.162ZM29.3003 297.368V297.628L29.6653 297.68L29.6132 297.368H29.3003ZM29.0918 295.699L28.5704 296.22V296.481L28.9354 297.055L29.4568 296.533L29.0918 296.481V295.699ZM28.0491 295.282L27.8927 295.803L27.2149 295.855L27.0064 295.96V296.637L26.7457 297.107H27.0585L27.4235 296.637L27.8405 296.585L28.3098 296.064L28.414 295.386L28.0491 295.282ZM25.7551 294.239L25.6508 295.177L26.3807 295.594L27.0064 295.282V294.76L27.8927 294.604L27.8405 294.291L27.3713 294.186L27.0064 294.499L26.5371 294.239H25.7551ZM23.2005 294.186L23.7218 294.551L23.5654 295.177L22.8355 294.604L23.2005 294.186ZM21.0107 294.864L21.7407 294.916L21.3757 295.334L21.0107 294.864ZM19.186 296.429L20.1244 297.003L19.2381 297.055L19.186 296.429ZM5.94349 280.158L6.56912 280.471L6.15203 280.783L5.94349 280.158ZM5.57854 276.872L5.78708 277.498L6.20417 276.872H5.57854ZM18.2475 266.807L19.0296 266.755L19.4988 266.963L20.0723 266.703L20.7501 266.65L21.5842 267.068L22.0013 268.059L21.9492 268.528L21.3236 269.571L20.0723 269.467L18.9774 268.528L18.4561 268.319L17.8826 267.276L18.2475 266.807ZM7.24688 259.297L7.29902 260.288L8.34173 261.331V261.592L7.92465 261.488L7.03834 261.07L6.88193 260.497L6.72552 259.662L7.24688 259.297ZM16.7877 247.146V247.772L17.7783 248.71H18.9774L19.2903 249.284V250.119L20.3851 251.109L21.3236 251.735L21.2714 252.1L20.9065 252.674L20.1766 252.048L19.0817 252.1L18.6646 251.683L18.1954 250.588L17.4134 249.441L16.0578 249.388L15.5365 249.023L16.0578 247.928L16.7877 247.146ZM25.5466 244.799H26.0679L26.1201 245.373H25.5987L25.5466 244.799ZM33.9926 255.073L34.4618 255.125V255.751L33.5755 255.49L33.9926 255.073ZM100.622 295.594L99.9966 295.803L99.9444 296.377H100.57L100.622 295.594ZM18.4561 293.248L17.7783 293.039L15.6408 293.352L14.181 294.082L14.1288 295.073L15.1194 295.438L15.9014 294.969L16.7877 294.916L19.2381 295.647L19.2903 294.969L18.4561 294.395V293.248ZM19.5509 294.447L19.3424 293.717L19.968 293.821L20.0202 294.551H20.9586L21.1672 293.248L21.3236 294.499L22.627 294.447L24.2953 292.726L24.7124 292.778L24.3474 293.456L25.0773 293.926L27.267 293.821L28.6226 293.195L29.3525 293.143L29.5089 293.926L29.8217 293.665L30.0303 292.935L33.1063 293.039L34.0968 292.205L33.4191 291.631L33.7319 291.005L35.0874 291.109L34.9832 290.484L36.2865 290.588L36.6515 290.014L37.225 290.119L39.6232 289.128L39.7275 288.241L42.6471 286.989L43.6898 285.999L44.3155 285.686L44.9932 286.103L46.1924 285.634L46.7659 284.643L47.0265 283.965L47.9128 283.495L48.6949 283.13L48.9034 282.4L48.3299 281.514L47.1829 281.409L47.0787 280.731L47.4958 279.897L48.2257 279.793L48.9034 279.01L49.894 278.958L51.6666 277.289L51.8752 276.559L52.6572 275.36L54.6384 273.222L55.9418 272.752L56.9323 272.283L58.0272 272.7L58.7571 274.056H57.9751L57.2452 273.274L55.6811 274.317L54.7948 274.369L54.6905 275.986L53.0743 278.541L53.3871 279.584H54.5862L54.2734 280.106L53.5435 280.158L52.2923 281.096V281.566L53.2828 282.087L55.0555 281.774L55.7854 280.888L56.5153 280.94L58.0793 280.053L58.34 278.854L59.1742 278.802L62.4587 279.219L62.9801 278.645L63.5015 276.298L62.6673 276.872L62.9801 275.725L62.1459 274.995L62.563 274.212L62.6152 274.995H64.3878L64.7527 274.473L65.5869 274.421L65.4305 275.308L66.4211 275.36L65.4305 276.038L67.5681 276.611L65.7433 276.82L65.0655 277.446L65.5348 278.176L67.933 277.289L69.1321 278.176L69.4971 277.707L69.8099 278.437L71.8953 279.636H73.4073L75.4406 279.375L77.6824 279.949L78.7251 280.94L81.0712 281.149L82.0097 280.366L82.4268 281.618L81.4883 281.983L82.114 282.609L85.972 284.591L86.7019 285.894L89.5173 288.033L91.2377 286.989L90.9249 285.842L89.1002 284.799L90.7164 285.425L90.9771 285.06L91.4463 285.738V287.146L92.5411 286.833L93.636 287.772L92.3326 282.661L92.9582 283.339L93.6881 286.468L94.8351 287.772L96.0864 287.563L97.0248 289.388H97.494L97.8068 292.309L99.5795 292.57L100.414 293.717L101.352 294.291L101.561 295.751L100.622 297.107L102.134 297.941L102.76 296.69L102.655 298.306L102.238 298.776L102.968 299.662L103.333 298.411L103.229 297.785L103.646 297.889L103.959 299.089L103.438 299.819L103.75 301.175L104.011 301.383L104.167 300.549L104.532 300.862L104.376 301.905L105.002 302.009L104.793 302.478L105.679 302.426V301.905H105.158L105.21 301.018L104.793 300.705L105.679 300.549L105.94 300.132V299.297L106.201 299.975L105.888 300.914L106.514 302.948L107.452 303L108.599 300.81L108.651 299.819L107.973 297.733L107.921 297.107L108.182 296.481L107.817 296.116L106.931 296.168L105.627 295.125H104.741L103.698 294.395H102.916L102.655 293.561L101.926 293.404L101.821 292.622L101.3 292.361L101.352 291.474L98.6932 287.615L97.7547 286.833V286.207L95.5129 284.382L95.1479 283.808L94.3138 282.765L93.3232 282.452V281.305L92.6975 280.627L91.8112 280.262L90.7164 280.94L89.8822 282.035L89.6737 283.287L88.8916 283.339L87.5882 284.747L87.1711 284.591V283.287L85.9199 282.139L84.7208 281.096L84.4601 280.053L83.1567 279.375L83.2609 278.228L81.8011 278.176L81.4362 278.75H80.8106L80.4456 278.385L79.82 278.802L78.8815 278.176V233.43L75.2842 231.292L74.3457 231.031L73.1987 231.605L72.0517 231.657L70.8526 230.823L68.6108 230.51L65.5869 228.632L62.6152 228.424L61.5724 228.684L61.4682 227.746L60.5297 227.381L61.1032 226.859L60.9989 226.39L59.3306 225.816H58.0793L57.8708 226.025L57.4016 225.712L57.4537 224.356L57.0366 223.886L55.7332 225.399L55.3161 225.347V224.929L56.2024 224.512V224.095L55.2119 222.843L54.6384 222.791L52.2923 224.408H50.259L50.4675 223.939L49.5291 223.886L46.818 225.66H45.8795L45.5667 225.242L44.1591 226.025L42.2822 227.954L40.8224 229.362L40.0403 229.988L38.6848 230.04L37.5378 229.832L36.3387 229.154L34.8789 231.188L34.8267 232.439L36.1823 233.691L37.2771 236.038L37.3814 238.802L38.8933 239.845L40.666 240.053L41.0309 240.471L40.2489 241.67L40.6138 243.078L39.7275 241.722V240.471L38.9455 240.314L38.9976 240.94L39.3626 242.035L40.8745 243.965H40.1446L38.9976 244.538L35.7652 243.235L35.7131 242.192L36.443 241.514V240.783L35.3481 240.523L34.149 240.627L31.6465 240.731L32.4285 241.931L31.4379 240.992L27.0585 241.618L26.6414 242.4L29.1961 244.851L28.779 245.581L28.6226 246.624L28.2576 247.042L28.2055 248.032L30.4995 249.91L32.637 250.014L35.0353 251.005H36.078L36.4951 250.692L38.4763 250.744L38.5284 250.327L39.154 250.901L39.2062 251.944L37.9028 251.892L37.9549 253.613L38.2156 255.282L36.7036 256.69L35.7131 256.637L34.6703 256.22L34.149 256.272L32.5328 257.368L31.6465 257.472L30.9166 256.012H29.3003L28.1534 257.055L27.8927 257.993L26.1722 258.932L23.409 261.175L23.2526 262.791L23.6175 263.939L24.1389 264.564L24.6603 264.356L25.1295 264.877L24.7124 265.19L23.9304 265.66L24.5038 266.442L23.1483 267.016L23.5654 268.163L24.4517 269.362L24.8688 271.501L26.9542 272.283L28.3098 271.866L29.1961 271.292L29.4568 272.387L29.6132 274.682L28.6226 275.412V277.707L28.3098 278.176H27.4235L28.3098 278.802L29.4046 278.75L29.6132 278.228L32.0114 277.915L33.0541 279.271L33.7319 278.906L34.4097 281.566L34.931 281.826L35.4524 281.461L35.5045 280.21L35.9737 279.688L36.3387 280.262L36.443 281.096L37.2771 281.305L39.7275 280.679L39.8318 281.305L38.7891 281.879L37.9549 282.765L36.4951 286.416L34.2533 287.459L33.5233 288.241L33.3669 288.971L32.8456 288.658L27.997 290.379L27.0585 292.518L26.3807 292.309L26.6414 291.735L25.8594 291.005L24.0346 290.901L21.2714 292.57L20.1244 293.248H18.9253L18.6646 294.499L19.5509 294.447Z" fill="#EDEFF1"/>
<path d="M67.673 199.428L69.2371 198.28L69.6542 197.029L69.1328 196.194L68.1944 196.09L67.6209 195.255L68.1944 191.657L69.0286 191.501L70.2798 189.832L71.114 186.181L72.3653 184.304L74.8678 183.417L75.5456 182.739L75.337 181.748L74.1379 180.445L73.5123 177.42L72.7824 176.481L72.1046 174.708L72.5738 173.613L73.3037 172.048L73.5644 170.536L73.3037 167.98L73.8251 160.888L75.6498 160.575L77.5789 161.305L78.2045 162.713H79.2472L80.4985 161.201L82.2711 152.074L106.358 156.351L127.212 159.48L118.141 224.199L98.6939 221.383L65.2227 201.827L65.4833 200.314L66.5261 199.375L67.673 199.428Z" fill="#EDEFF1"/>
<path d="M299.466 188.683L299.936 187.536L300.561 187.796L300.926 187.275L300.509 186.91L300.665 186.128L300.092 185.658L300.405 185.137L300.353 184.354L299.779 184.302L300.196 183.885L300.874 184.302L301.03 183.572L300.822 182.998L300.874 182.633L301.917 182.946L301.708 182.164L302.542 181.486L302.282 181.017L301.708 181.069L301.395 180.6L301.865 180.13L302.699 180.026L302.959 179.609L303.689 179.504L303.637 179.087L303.168 178.618V178.357H303.95L304.159 177.992L303.429 177.47L303.377 177.158L297.537 177.575L298.997 174.915L299.883 174.133V172.985L299.049 171.682L278.299 172.725L257.914 173.09L260.052 185.815L259.687 206.154L261.042 207.353L262.502 206.675L264.17 207.092L264.275 213.298L291.542 212.62L292.167 211.838L292.428 210.274L291.646 209.074L291.385 207.927L291.854 207.562V207.145L290.968 206.571L290.916 206.206L291.75 205.736L291.125 205.163L292.011 201.46L293.784 200.626V200.208L293.21 199.478L294.722 196.662H295.713L296.495 196.036L296.338 193.324L297.954 190.978L298.893 190.665L298.632 189.048L299.466 188.683Z" fill="#EDEFF1"/>
<path d="M31.0747 187.951L32.8473 190.663L32.1174 190.715L31.1789 189.724L31.0747 187.951ZM32.0652 182.84L33.0037 184.979L34.3592 185.5L34.7242 185.187L34.0464 183.883L32.6909 182.632L32.0652 182.84ZM21.6902 172.932V174.183L22.7329 174.809L25.0269 174.705L25.5483 174.183L23.9321 174.079L21.6902 172.932ZM18.6142 172.984L20.3347 173.245L21.0646 174.392H19.0834L18.6142 172.984ZM43.5873 196.713L43.0659 195.148L43.1702 193.584L42.9616 189.464L42.0232 186.96L41.3976 186.23L41.0847 185.448L37.4352 180.963L35.5583 181.015L34.5156 180.024L35.0891 179.086L34.7242 177.156L33.5772 176.53L31.5439 176.217L30.0841 175.539L29.302 174.548L26.9559 171.106L25.5483 169.959L23.6192 169.698L22.003 168.499L19.5526 167.717L18.0928 167.56L16.7894 166.256L16.8937 164.796L17.3108 162.293L18.2492 159.633L17.5193 158.799L15.4339 153.896L14.0262 151.967L13.8177 150.402L12.9835 149.203L13.0878 147.899L12.0451 145.292L10.5331 143.883L10.846 140.181L12.0972 139.764L13.0357 138.147L12.8271 136.478L12.3058 136.009H11.0024L9.69897 134.288L8.91693 132.462V128.551L9.54256 126.361L9.64683 125.265L10.9502 125.37L10.8981 126.204L10.481 126.569V127.873L12.41 129.542V127.091L11.6801 125.318L11.9408 124.744L11.4195 123.857L12.8793 123.075L11.8887 121.511L11.1588 121.771L10.3767 123.753L10.6374 124.431L10.2203 124.953L9.7511 124.9L6.93577 121.719L7.30072 118.799L6.72723 116.765L3.3384 110.089L3.75548 104.509L4.95461 102.632L5.05888 99.2941L2.19141 93.5053L2.34781 90.7935L5.94519 86.8821L6.8315 85.6305L6.77936 84.9004L8.86479 80.1025L8.91693 75.7218L9.38615 74.418L43.8479 84.1181L35.2977 117.026L35.8712 118.851L72.5748 173.61L72.1056 174.705L72.7833 176.478L73.5133 177.417L74.1389 180.442L75.338 181.745L75.5465 182.736L74.8688 183.414L72.3663 184.301L71.115 186.178L70.2808 189.829L69.0296 191.498L68.1954 191.654L67.6219 195.252L68.1954 196.087L69.1338 196.191L69.6552 197.026L69.2381 198.277L67.674 199.425L66.527 199.372L43.5873 196.713Z" fill="#EDEFF1"/>
<path d="M190.193 165.892L181.591 165.37L154.636 162.867L127.213 159.477L133.209 113.428L156.618 116.4L176.168 118.174L193.425 119.425L192.696 130.951L190.193 165.892Z" fill="#EDEFF1"/>
<path d="M386.798 229.415L384.712 229.049L383.826 228.58L382.679 229.31V230.614L383.409 231.709L383.148 233.952L382.053 234.265L381.532 233.691L381.219 232.022L355.099 233.743L353.379 230.614L327.936 233.274L327.676 234.786L328.979 236.246L329.865 236.611L330.335 237.237L330.126 241.044L329.553 241.357L329.813 241.566L330.335 241.409L330.7 240.992L336.174 239.584L340.97 239.323L345.193 240.314L349.625 242.922L350.876 243.339L352.023 244.382L351.971 245.79H353.222L354.213 245.268L355.516 245.321L356.559 244.903L358.071 243.86L359.687 242.348L360.261 242.139L360.574 242.4H361.303L361.564 241.983L361.303 241.357L360.991 241.044L361.095 240.627L362.138 240.053L364.744 239.845L365.161 240.366L365.683 240.418L366.882 240.94L368.446 241.879L369.072 242.765L369.645 243.391L371.105 244.121V245.373L372.565 246.364L373.086 246.416L373.92 247.146L374.285 247.98L374.807 248.085L375.224 249.18L375.589 249.493L376.11 248.919L377.622 248.971L377.883 249.701L378.456 250.171V250.849L379.968 251.996L380.072 257.003L379.134 260.027L379.655 260.653L379.551 262.426L379.134 263.156L379.499 263.782L380.698 264.982L380.854 265.764L381.271 266.285L381.063 265.295L381.741 264.982L382.158 263.104L380.594 262.478L380.646 262.165L382.001 261.957L382.471 263.313L383.044 263.626L383.096 262.583L383.67 262.739L383.982 263.156L383.93 263.521L382.418 265.712L382.314 266.285L381.428 267.276V267.85L383.357 269.832L386.12 273.952L387.059 275.047V275.986L388.518 278.385L389.717 278.697L390.082 278.072L388.988 278.228L387.423 275.881L387.528 275.151L388.31 274.734V273.952L387.997 273.274L388.466 272.804L388.675 273.274L389.04 273.534V275.621L388.414 275.308L387.997 275.777L388.727 276.611L389.248 277.967L389.874 277.654L391.073 278.28L392.168 279.428L393.002 282.087L394.618 284.591L395.035 283.913L396.495 283.652L398.163 284.33L398.32 285.216L400.04 287.198L400.092 287.772L401.239 289.18L400.875 289.441V290.849L402.282 291.579H403.064L404.472 290.64L405.254 290.797L405.827 291.005L407.027 290.119L407.131 289.754L407.756 289.91L409.008 289.023L409.685 287.824L409.321 286.155L409.216 285.477L409.79 283.391L410.103 283.287L410.415 284.121L410.832 283.182L410.415 279.428L410.207 273.952L409.685 270.405L409.321 269.519L405.88 263.73L403.168 258.984L402.022 257.263L401.344 255.386L401.239 253.613L401.709 253.456V252.987L401.135 251.84L399.05 249.753L395.087 244.695L392.116 239.271L389.874 233.691L389.561 231.761L388.935 231.24L388.675 229.258L386.798 229.415ZM391.594 299.558L392.481 299.506L392.116 298.984L391.594 299.558ZM395.4 298.984V298.619L396.234 298.515L398.163 296.794L398.945 296.481L400.197 296.012L400.353 296.69L401.239 297.107L399.884 297.733H398.633L396.599 299.036L395.4 298.984ZM404.368 295.021L402.804 295.751L402.282 296.429L402.856 296.481L404.368 295.021ZM406.349 293.508L405.775 293.665L405.045 294.708L405.619 294.604L406.401 293.769L406.349 293.508ZM410.676 285.321L409.79 288.241L409.373 288.763L408.851 290.119L408.226 290.953L407.861 291.84L406.87 292.987V293.456L408.278 291.996L409.529 290.171L409.842 289.128L410.937 286.572L410.676 285.321Z" fill="#EDEFF1"/>
<path d="M392.061 213.246V213.977L389.871 217.21L389.246 217.314L390.028 217.575V218.618L389.559 219.192L389.246 222.321L388.047 225.554L388.307 226.597L388.672 229.257L386.795 229.413L384.71 229.048L383.824 228.579L382.677 229.309V230.613L383.407 231.708L383.146 233.95L382.051 234.263L381.53 233.69L381.217 232.021L355.097 233.742L353.376 230.613L353.011 229.465L352.229 228.683L351.969 227.953L352.281 224.668L351.03 221.695L351.291 220.339L351.447 218.409L352.594 216.428L352.49 215.854L351.604 215.332V213.664L350.665 212.673L349.153 209.491L342.428 185.606L354.367 184.094L365.524 182.529L365.472 183.52L364.481 184.042L363.751 185.711L363.856 186.388L367.036 188.37L368.391 188.214L370.008 190.3L370.216 191.186L372.406 193.846L373.761 194.733L374.491 194.837L375.638 195.671L376.212 196.819L377.255 197.653L378.193 197.914L379.601 199.322L379.653 200.052L381.008 201.512L383.615 202.712L385.492 206.206L385.648 207.614L387.682 208.709L388.985 211.212L389.402 212.829L391.592 213.038L392.061 213.246Z" fill="#EDEFF1"/>
<path d="M160.161 286.051L160.057 287.72L160.943 288.71L160.995 289.336L158.492 291.683L158.44 292.309L159.431 293.978L160.317 296.168V297.524L160.057 298.15L160.109 299.923L162.246 301.018L162.82 301.592L163.445 301.018L164.54 299.141L166.886 297.628L168.607 297.368L169.91 296.846L170.797 296.22L172.465 294.395L171.005 293.821L170.275 293.091L170.327 292.205L170.067 291.892H169.024L169.128 290.588L168.763 289.962L167.408 288.763L165.062 287.772L163.602 287.667L161.881 286.259L161.256 285.946L160.161 286.051ZM152.184 277.185L151.611 277.967L151.558 278.854L152.966 280.105L153.957 280.366L154.269 280.888L154.478 282.452L156.355 282.557L159.118 281.201L159.066 279.897L158.336 279.636L156.511 278.28L155.573 278.124L154.061 278.802L153.279 277.394L152.184 277.185ZM151.402 283.182L151.871 282.452L153.175 282.296L153.487 283.234L151.402 283.182ZM147.753 278.645L148.639 280.731L150.255 280.418L150.411 279.375L149.682 278.593L147.753 278.645ZM145.615 275.151L145.041 276.403H147.648L150.151 277.237L151.454 276.403L151.558 275.62L149.056 275.725L145.615 275.151ZM137.273 269.623L136.283 270.718L134.771 271.031L135.188 272.178L136.335 273.639L136.387 274.16L137.482 274.004L138.681 274.056L139.567 274.682L141.392 274.264V273.899L140.871 273.482L140.61 272.387L140.193 272.231L139.932 272.752L139.306 272.074L139.411 271.344L138.472 269.623L137.899 269.258L137.273 269.623ZM120.694 263.156L118.504 264.669L118.609 265.868L119.86 266.494L120.85 267.172L122.258 267.381L123.614 266.233L123.509 265.242L123.926 264.356V263.626L123.405 263.156H120.694ZM115.063 265.66L114.907 266.285L113.916 266.755L113.604 267.693L114.125 268.111L114.698 267.328L115.689 267.015L115.897 265.66H115.063Z" fill="#EDEFF1"/>
<path d="M81.0708 92.7763L68.3496 89.9601L72.7812 70.5077L74.2931 67.4829L74.5016 66.3877L74.9187 65.9184L74.4495 64.8754L72.9376 64.2495L73.0418 62.0592L75.1273 59.0344L76.4307 58.6172L77.2648 57.4177L77.2127 56.5833L78.1512 55.7489L79.8195 52.8806L82.0092 50.3773L81.7485 48.7085L79.9238 47.0918L79.0896 45.2143L79.6631 42.9718L79.2981 40.8858L85.9194 11.6289L93.3227 13.1934L90.8202 24.6667L92.7492 28.5259L91.915 31.0292L93.7919 33.5324L94.7825 33.8975L96.8158 38.2261V39.3212L98.0149 40.8858H98.4841L99.214 41.9809H100.882V42.8154L97.1807 51.6811L96.9201 53.8193L97.65 54.08L98.4841 55.436L99.9439 54.7059L101.821 53.4542L102.811 54.4451L103.072 55.7489L102.811 57.4177L104.115 62.4764L105.47 64.3017L106.669 65.0318L106.878 66.5963V68.7346L108.077 69.934L108.911 68.7346L112.509 69.569L113.604 68.9432L118.296 69.8297L119.756 68.1087L120.694 67.7958L121.32 68.7346L122.154 70.8728L122.623 70.9249L118.191 99.5038L93.2184 95.2274L81.0708 92.7763Z" fill="#EDEFF1"/>
<path d="M319.956 135.959L319.434 138.671V139.714L320.686 141.539V141.904L320.529 142.373L320.998 143.364L320.842 144.616L320.008 145.555L319.33 147.745L317.349 150.509L317.297 154.16H316.775L317.245 155.15V155.62L316.098 157.028L316.15 157.602L316.932 158.749L316.88 159.218L314.951 159.531L314.638 160.157L314.012 159.844L313.491 160.105L313.282 161.826L314.169 162.764L313.96 164.016L313.178 164.173L309.581 162.608L307.495 164.538L307.652 165.476H306.192L305.462 164.694L304.523 162.712V161.721L304.941 161.409L304.993 160.731L304.106 159.74L303.637 158.436L302.229 156.298L299.727 155.62L295.869 151.917L295.66 150.665L297.12 146.702L296.912 145.711L297.537 145.137V144.459L296.077 143.677L294.513 143.312L292.741 143.938L292.063 142.738L292.376 141.748L292.011 140.496L287.527 136.115L286.38 135.333L285.077 132.256L284.451 129.44L285.181 127.51L285.546 127.145L285.598 125.946L285.233 125.476L285.755 124.694L286.693 124.381L287.162 124.225L287.684 123.599V122.347L288.57 121.096L288.831 120.835L288.883 119.01L288.413 118.279L287.892 118.123L287.319 117.289L287.84 115.203L289.404 114.785H290.655L292.845 113.847L293.731 112.699L293.783 111.448L294.357 110.77L295.035 109.101L294.983 107.745L293.523 105.92H292.897L292.428 105.346L292.532 104.512L291.646 103.625L290.343 102.947L290.603 102.634L314.534 101.174L314.586 103.573L316.358 105.972L316.984 108.11L317.818 109.779L319.956 135.959Z" fill="#EDEFF1"/>
<path d="M322.927 109.311L320.268 110.51L317.818 109.78L319.956 135.96L319.434 138.672V139.715L320.686 141.54V141.905L320.529 142.375L320.998 143.365L320.842 144.617L320.008 145.556L319.33 147.746L317.349 150.51L317.297 154.161H316.775L317.245 155.152L317.818 155.569L318.131 155.047L317.766 154.161L320.164 153.9L320.268 154.526L320.842 154.63L321.051 154.161L320.738 153.483L320.894 153.066L321.572 153.483L322.458 153.274L323.344 153.587L325.117 154.682L326.056 153.222L327.88 152.075L329.444 153.796L330.279 152.701L330.435 151.292L332.416 150.093L332.52 150.771L333.511 151.397L335.075 151.292L335.701 150.927L335.753 149.154L337.056 147.225L339.454 144.93L339.402 144.043L340.028 142.062L341.175 142.583L344.668 140.236L344.46 139.35L343.677 138.255L344.199 137.264L340.758 107.433L340.706 106.703L323.814 108.476L322.927 109.311Z" fill="#EDEFF1"/>
<path d="M285.237 92.727L286.332 93.5615L286.645 94.1351L285.811 95.8561L285.758 97.1599L286.801 100.028L288.209 100.81L289.929 101.176L290.607 102.636L290.346 102.949L291.65 103.627L292.536 104.513L292.432 105.348L292.901 105.921H293.527L294.986 107.747L295.039 109.103L294.361 110.771L293.787 111.449L293.735 112.701L292.849 113.848L290.659 114.787H289.408L287.844 115.204L287.323 117.29L287.896 118.125L288.417 118.281L288.887 119.011L288.834 120.837L288.574 121.097L287.687 122.349V123.601L287.166 124.226L286.697 124.383L285.758 124.696L285.237 125.478L285.602 125.947L285.55 127.147L285.185 127.512L284.403 127.095L283.829 126.521L283.517 125.687L282.63 125.009L275.175 125.426L260.994 126.052L247.491 126L246.552 123.705L246.917 122.558L246.5 120.837L246.604 119.324L245.927 118.959L245.718 115.778L244.258 113.17L244.154 111.241L243.007 108.998L242.329 107.069V106.339L242.016 105.452V104.252L241.756 103.783L241.391 102.897L241.234 102.219L240.557 101.593L241.078 99.3502L241.964 96.6905L241.599 95.6475L240.922 95.4389L240.713 94.6045L241.234 94.3437L241.287 93.7701L240.609 92.9878L240.661 92.1534L241.808 92.2055H256.51L275.436 91.7362L285.133 91.3711L285.237 92.727Z" fill="#EDEFF1"/>
<path d="M234.246 132.62L211.463 131.994L192.694 130.951L190.191 165.893L225.487 167.405L257.812 167.457L257.551 142.372L255.883 142.007L254.527 139.556L253.224 138.252L253.484 137.053L254.892 135.697L254.944 135.071L254.162 133.976L253.693 134.497L252.65 134.185L251.138 132.62H234.246Z" fill="#EDEFF1"/>
<path d="M355.724 165.475L345.036 166.205L342.325 166.622L333.253 167.143L331.898 167.561L320.115 168.604L319.75 168.291H317.821L318.447 169.96L318.134 170.429L305.986 171.211L306.508 169.803L307.237 170.272L307.602 170.064L308.228 167.926L307.707 167.404L308.228 166.361L308.332 165.892L307.655 165.475L307.498 164.536L309.584 162.606L313.181 164.171L313.963 164.014L314.171 162.763L313.285 161.824L313.494 160.103L314.015 159.842L314.641 160.155L314.954 159.529L316.883 159.216L316.935 158.747L316.153 157.6L316.101 157.026L317.247 155.618V155.149L317.821 155.566L318.134 155.044L317.769 154.158L320.167 153.897L320.271 154.523L320.845 154.627L321.053 154.158L320.741 153.48L320.897 153.063L321.575 153.48L322.461 153.271L323.347 153.584L325.12 154.679L326.058 153.219L327.883 152.072L329.447 153.793L330.281 152.698L330.438 151.289L332.419 150.09L332.523 150.768L333.514 151.394L335.078 151.289L335.704 150.924L335.756 149.151L337.059 147.222L339.457 144.927L339.405 144.04L340.031 142.059L341.178 142.58L344.671 140.233L344.462 139.347L343.68 138.252L344.202 137.261L344.879 137.521L346.026 137.574L347.017 137.156L348.529 137.782L349.676 139.555V140.077L351.814 140.442L353.013 140.338L354.003 141.433L355.15 141.537V141.016L356.141 140.598L357.705 141.016L358.331 141.433L359.008 141.068H359.478L359.79 140.181L361.563 139.242L361.824 139.66L362.241 141.172L364.065 141.902L364.691 142.997L364.639 143.571L364.952 144.093L364.639 145.97L365.63 146.804L366.047 147.378L366.568 147.691L366.516 148.16L368.81 151.081H369.54L370.322 152.02L370.947 152.176L371.677 152.124L369.123 155.566L367.611 156.087L366.047 157.652L365.838 158.799L364.743 159.477L364.691 160.364L363.961 161.094L363.023 161.355L362.762 162.345L362.241 162.554L358.643 164.744L355.724 165.475ZM304.631 171.368L304.266 171.003L304.37 170.481H304.943L305.308 170.846L305.152 171.368H304.631Z" fill="#EDEFF1"/>
<path d="M309.01 243.86L308.384 242.921L308.541 242.243L306.038 238.697L306.507 236.298L307.029 235.568L307.081 234.838L288.312 235.881L289.198 229.675L290.45 227.171L293.578 222.791L292.639 221.487H293.682V219.766L292.431 218.462L292.691 217.575L292.066 217.054L291.232 213.351L291.544 212.621L264.277 213.299L264.538 223.677L264.903 225.45L266.258 226.911L266.623 229.727L268.605 232.126L269.022 234.368H269.543L269.491 238.175L267.77 241.513L268.448 242.712L267.77 243.495L268.135 245.059L268.083 247.302L266.936 249.127L266.884 249.544L265.998 250.17L266.519 251.109L267.145 251.682L267.979 251.004L270.742 250.535L273.922 250.483L278.928 252.465L283.098 252.986L283.88 252.256L284.819 252.152L287.321 253.299L288.156 253.09L288.729 252.308L286.539 251.369L285.392 251.891L284.819 251.787L284.089 250.744L285.809 249.596L286.644 249.544V250.431L287.426 250.379L289.198 250.222L289.407 251.422L289.98 251.63L290.293 252.621L292.796 253.143L293.682 253.977V254.342H293.056L292.274 255.229L293.161 255.854L295.976 256.376L297.384 257.836L299.678 257.315L297.749 257.419L297.696 257.106L299.156 256.741L299.26 255.802L299.886 255.646V254.916L300.46 254.968V255.802L301.763 255.854L302.18 254.864L302.649 255.02L302.754 256.324L303.379 256.428L302.441 257.471L303.796 257.002L304.839 256.428L306.351 254.707H305.986L305.308 255.333L305.1 255.281L304.839 254.864L305.308 254.238V253.038L305.882 252.621L306.247 252.986L306.768 252.569L307.289 252.517L307.602 253.195L307.289 254.186H308.541L311.2 255.072L311.46 255.75L312.294 256.48L313.754 256.532L314.432 256.898L315.37 256.376L315.84 255.489V254.603H315.11L314.484 253.873L313.911 253.299L312.242 252.83L310.887 252.934L308.697 251.682V250.483L309.375 249.961L310.626 250.274L309.01 249.44L309.114 249.023H310.991L312.347 247.197L310.991 246.259L311.408 245.476L310.783 245.059H310.365L309.323 246.154V247.25L309.01 247.615L308.436 247.562L307.602 246.832H306.924V246.05L307.237 245.685L307.654 246.05L308.541 245.216L308.906 244.381L309.323 244.225L309.01 243.86ZM303.64 242.452L304.63 242.973L305.048 243.547L306.351 243.599L307.133 244.016L307.237 244.746L307.029 245.059L306.56 244.277L305.83 244.903L305.36 245.633L303.901 246.05L303.066 246.102L301.137 245.581L301.19 244.694L302.232 243.651L302.806 242.399L303.64 242.452ZM301.19 243.077V243.651L300.251 244.694H299.625V243.547L300.46 242.765L301.19 243.077Z" fill="#EDEFF1"/>
<path d="M340.708 106.7L340.76 107.43L351.917 105.605L352.178 104.979L354.211 101.902V99.6593L354.628 98.5641L355.775 98.1469L356.818 94.0791L357.34 93.8184L357.861 94.1313L357.757 94.4442L357.183 94.8614L357.34 95.3307L357.757 95.5393L358.747 94.8092L358.956 89.6984L358.122 88.4989L357.496 86.5693V85.2655L356.297 82.9709V82.0322L355.671 80.3112L354.472 78.7466L352.96 78.2251L350.458 79.7897L349.154 82.1886L349.05 82.658L347.486 84.4833L346.704 84.379L345.192 82.9187L345.14 81.1456L345.922 80.1547L346.965 80.0504L347.59 79.1639L347.694 77.0778L348.112 76.6606L348.685 76.6084L349.154 75.7219L349.05 70.7153L348.894 70.0374L348.268 69.4116L347.382 68.8901L347.329 67.9513L347.694 67.6384L348.633 68.0556L348.476 67.1691L347.486 65.761L347.121 64.9266L346.547 64.3529H345.4L341.177 62.8405L340.448 61.9539L338.831 61.7975L338.206 61.9539L335.912 60.7544H335.182L335.443 61.276L334.035 61.2238L334.087 61.5367L334.4 61.8496L333.096 62.9448L333.149 63.8835L333.931 65.083L334.713 65.1873V65.5002L333.931 65.761L332.836 65.7088L331.376 67.0126L331.428 68.3164L331.637 71.3412L330.49 73.1143L330.907 70.7675L330.49 70.4546L330.02 73.2186L329.499 72.0191L329.76 70.8196L329.499 70.2981L329.812 69.6202L329.499 69.0465L330.02 68.525V67.8992L329.343 68.2121L328.665 69.8288L328.3 70.1938L327.622 71.4455L326.736 71.3412L326.684 71.967H325.849L325.954 72.7492L326.058 73.7923L324.494 74.4181L324.546 75.0961L325.067 75.9826L325.015 78.6945L324.338 80.9891L323.451 82.2929L324.077 83.023L324.494 84.8483L323.973 86.1521L323.868 87.2473L324.755 89.0204L326.058 91.5759L326.684 92.5667L327.518 96.1652L327.466 100.754L326.996 102.788L325.954 104.457L325.485 106.387L324.442 107.951L323.816 108.473L340.708 106.7ZM290.762 56.2173L292.326 58.199L301.189 60.1808L301.919 60.7023L304.005 61.1195L304.37 61.3803L305.829 61.276L308.384 61.6932L309.114 62.4754L308.593 62.997L309.01 63.4142L310.991 63.7792L311.616 64.405L311.669 66.6997L310.991 68.1599L312.033 68.2121L312.555 67.7949L313.024 68.2121L312.451 69.8288L312.972 70.6632L313.598 70.8196L314.015 69.8809L315.527 67.482L316.361 64.3529L317.56 63.3099L317.299 62.4754L317.56 62.0061L318.081 62.8405L317.925 63.9878L319.437 62.8405L319.541 61.641L320.636 61.9539L321.053 61.1195L321.418 61.4324L321.053 62.2147L320.532 62.4754L320.01 63.5185L320.74 64.4572L321.314 64.1964L321.053 63.8314L321.574 63.0491L322.565 62.1625H322.982L323.086 60.8066L324.129 59.8679L328.248 59.6071L329.238 57.9904L331.219 57.834L333.201 58.4598L335.39 59.8679L335.755 59.7636L335.651 57.9383L336.016 57.834L338.362 58.4076L339.144 58.3033L340.656 57.9383L341.542 58.1469L342.481 58.199V57.6254L342.116 57.156L341.334 57.0517L340.76 56.6345L341.021 55.9044L340.604 55.7479L339.248 55.8001L339.196 55.2786L339.77 54.8614L340.083 55.2786L340.343 54.3398L339.978 53.9748L340.343 53.8705L339.613 53.1925L339.77 52.5146L339.822 51.5237H339.144L338.362 52.0452L337.372 52.0973L337.111 53.0361L336.12 53.1404L335.964 52.5146L334.817 52.5667L334.296 53.1925L333.931 53.1404L333.826 52.7232L332.471 52.9318L332.419 50.4285L332.94 49.3855L332.575 49.3333L331.637 49.907H330.49L328.508 51.3151L325.276 51.4715L323.138 51.8887L322.148 52.671L321.418 53.349L320.115 54.2355L319.958 54.6528L319.645 53.7662L318.968 53.4533V53.7662L319.333 54.1312V54.8092L318.55 54.4963H318.238L318.081 55.1221L317.039 54.1312L316.361 54.0269L315.683 54.8092L314.015 54.7571L313.754 54.0269L312.711 53.0361L312.033 52.2016V51.8366L311.46 51.1065L310.104 50.4807L308.384 50.4285L307.811 49.9591H307.081L306.716 50.1677L305.569 51.3151L305.204 51.8887L304.682 51.5237L304.787 51.0022L305.204 49.907L306.872 47.2994L307.289 47.1951L308.175 46.2042L308.54 45.3698L310.104 45.0569L310.522 44.744L310.469 44.2225L310.209 43.9617L307.863 44.066L306.82 44.3268L305.464 44.9526L304.839 45.5784L303.952 46.7258L303.014 47.2473L301.294 49.0204L301.085 49.8548L297.227 52.2538L295.142 52.5146L294.203 52.7232L293.004 54.2877L292.065 54.6528L289.771 55.8522L290.762 56.2173ZM343.263 58.199L345.244 58.2512L345.557 57.9904L345.453 56.9474L344.566 56.0087L343.576 56.0608L343.524 56.3216L344.097 56.5302L343.263 56.9474L343.106 57.4689L342.794 57.156L342.585 57.5732L343.263 58.199ZM304.109 36.3477L302.91 36.452L301.502 37.4428L297.8 40.2069L298.217 40.7284L299.156 40.8848L300.616 39.8418L300.042 39.581L301.241 38.7466H301.763L303.327 37.7557L303.275 37.2864L304.109 36.3477ZM325.537 69.0987V69.6202L326.632 70.4546L326.527 69.203L325.537 69.0987ZM325.172 70.5589L325.745 70.611V71.0804H325.224L325.172 70.5589ZM336.329 59.4507V59.92L336.746 59.8157V59.555L336.329 59.4507ZM338.779 61.0674L338.727 60.4937L337.893 60.3894L337.58 60.1808H337.111L336.902 60.3372L337.372 60.5458L337.945 61.1195L338.779 61.0674ZM329.395 61.6932L329.343 62.2668L329.186 62.6319L329.29 63.7792L329.499 63.9357L329.864 63.9878L330.125 63.5185L330.177 62.684L330.02 62.3711L329.968 61.7975L329.395 61.6932Z" fill="#EDEFF1"/>
<path d="M237.163 33.0655L236.59 34.5257L237.007 35.2558L236.851 37.9155L236.59 38.4892L237.998 43.235L238.675 44.5387L239.04 51.8399L239.562 53.248L239.353 56.2728L240.865 60.132L241.021 63.1567L240.969 64.2519L240.917 65.3993L240.448 66.4423L238.832 67.4331L238.675 68.059L239.562 69.3627L239.77 70.3015L241.126 70.6144L241.908 71.6053L241.803 92.205H256.506L275.431 91.7356L285.128 91.3706L284.555 89.0238L284.451 87.4592L283.304 85.8947L281.844 85.5296L279.133 83.6522L278.82 81.9312L275.535 80.3145L275.431 79.6365H273.711L272.564 78.2806L271.521 77.6026L271.886 74.9429L271.417 74.1085L271.677 71.2923L272.199 70.3536L272.042 68.9455L271.417 68.2676L270.478 68.1111V67.2245L271.938 64.1998L275.014 62.1659L274.805 55.3862L275.275 55.5948L275.588 55.3341L275.64 54.7604L276.109 54.4475L276.839 55.0733L277.204 55.0211L276.578 53.8738L278.82 52.2571L280.436 50.3275L281.27 49.9103L283.721 46.8334L287.005 43.8086L289.039 42.7134L292.323 41.3054L296.285 38.9586L295.973 38.7499L294.044 39.115L292.584 39.1672L292.062 38.3327L291.333 37.8634L286.223 38.4892L285.702 37.029L284.868 36.9768L283.981 37.394L282.052 39.0107H279.915L278.82 38.4892L278.664 37.6026L276.63 37.1854L276.317 36.351L275.952 35.673L275.431 36.1424L274.076 36.1945L268.914 33.3262H267.402L266.985 32.9612L265.369 33.6391L264.952 34.3171L263.231 34.7343L262.554 34.63V33.7434L262.189 33.2741H259.113L258.904 32.5439H257.548L256.975 32.7526L255.724 31.866L255.88 31.1359L255.567 29.8842L255.202 29.3106L255.098 27.746L254.577 26.1293L253.482 25.2949H251.97L252.022 29.467L235.912 29.2584L237.163 33.0655Z" fill="#EDEFF1"/>
<path d="M320.115 241.67L317.509 241.722L316.257 240.94L312.139 242.244L311.669 241.879L311.409 241.983L311.357 242.817L311.044 242.869L309.688 244.278L309.323 244.225L309.01 243.86L308.385 242.922L308.541 242.244L306.039 238.697L306.508 236.298L307.029 235.568L307.081 234.838L288.312 235.881L289.199 229.675L290.45 227.172L293.578 222.791L292.64 221.487H293.682V219.766L292.431 218.463L292.692 217.576L292.066 217.055L291.232 213.352L291.545 212.622L292.171 211.839L292.431 210.275L291.649 209.075L291.389 207.928L291.858 207.563V207.146L290.971 206.572L290.919 206.207L291.753 205.738L291.128 205.164L292.014 201.461L293.787 200.627V200.21L293.213 199.48L294.725 196.663H295.716L296.498 196.038L296.341 193.326L297.958 190.979L298.896 190.666L298.635 189.049L318.603 187.693L319.281 188.736L318.603 223.678L320.897 240.992L320.115 241.67Z" fill="#EDEFF1"/>
<path d="M284.404 127.092L283.831 126.518L283.518 125.684L282.632 125.006L275.176 125.423L260.995 126.049L247.492 125.997L248.17 126.675L248.013 127.405L249.108 129.335L251.142 132.62L252.654 134.185L253.696 134.498L254.165 133.976L254.948 135.071L254.895 135.697L253.488 137.053L253.227 138.252L254.53 139.556L255.886 142.007L257.554 142.372L257.815 167.457L257.919 173.089L278.304 172.724L299.054 171.681L299.889 172.985V174.132L299.002 174.915L297.542 177.574L303.382 177.157L303.903 176.114L304.529 175.853V175.488L303.903 174.915L303.59 174.393L304.477 174.498L304.894 174.132L304.164 173.35L304.894 173.089L304.946 172.568L304.633 172.046V171.368L304.268 171.003L304.372 170.482H304.946L305.311 170.847L305.154 171.368L305.571 171.734L305.989 171.212L306.51 169.804L307.24 170.273L307.605 170.065L308.23 167.926L307.709 167.405L308.23 166.362L308.335 165.893L307.657 165.475H306.197L305.467 164.693L304.529 162.711V161.72L304.946 161.408L304.998 160.73L304.112 159.739L303.642 158.435L302.235 156.297L299.732 155.619L295.874 151.916L295.666 150.664L297.125 146.701L296.917 145.71L297.542 145.136V144.458L296.083 143.676L294.519 143.311L292.746 143.937L292.068 142.737L292.381 141.747L292.016 140.495L287.532 136.114L286.385 135.332L285.082 132.255L284.456 129.439L285.186 127.509L284.404 127.092Z" fill="#EDEFF1"/>
<path d="M123.668 65.3446L153.542 69.4646L180.131 72.2286L181.174 61.4333L183.885 26.6484L155.992 23.7279L127.682 19.7123L93.3248 13.1934L90.8223 24.6666L92.7513 28.5258L91.9171 31.0291L93.794 33.5324L94.7846 33.8974L96.8179 38.226V39.3211L98.017 40.8857H98.4862L99.2161 41.9809H100.884V42.8153L97.1828 51.681L96.9222 53.8192L97.6521 54.08L98.4862 55.4359L99.946 54.7058L101.823 53.4541L102.814 54.445L103.074 55.7488L102.814 57.4176L104.117 62.4763L105.472 64.3016L106.672 65.0317L106.88 66.5963V68.7345L108.079 69.9339L108.913 68.7345L112.511 69.5689L113.606 68.9431L118.298 69.8296L119.758 68.1087L120.696 67.7957L121.322 68.7345L122.156 70.8727L122.625 70.9248L123.668 65.3446Z" fill="#EDEFF1"/>
<path d="M204.735 96.9503L224.546 97.7847L226.319 99.4535L227.205 99.5579L228.3 100.601L229.238 100.549L230.177 99.5057L230.959 99.8186L231.48 99.4535L231.845 99.7143L232.314 99.5057L232.679 99.7143L233.149 99.5057L233.67 99.7665L234.4 99.4535L235.443 99.7665L235.755 100.34L238.936 101.487L239.561 102.165L240.03 103.521L240.969 103.886L241.751 103.782L242.012 104.251V105.451L242.324 106.338V107.068L243.002 108.997L244.149 111.24L244.253 113.169L245.713 115.777L245.922 118.958L246.6 119.323L246.495 120.836L246.912 122.557L246.547 123.704L247.486 125.999L248.164 126.677L248.007 127.407L249.102 129.336L251.135 132.622H234.243L211.46 131.996L192.691 130.953L193.421 119.427L176.164 118.176L178.093 95.125L204.735 96.9503Z" fill="#EDEFF1"/>
<path d="M82.2713 152.072L80.4986 161.199L79.2474 162.711H78.2047L77.579 161.303L75.65 160.573L73.8253 160.886L73.3039 167.978L73.5646 170.534L73.3039 172.046L72.574 173.611L35.8704 118.852L35.2969 117.027L43.8472 84.1191L68.351 89.9601L81.0721 92.7763L93.2198 95.2274L82.2713 152.072Z" fill="#EDEFF1"/>
<path d="M181.275 170.9H180.858L176.739 222.686L160.16 221.33L142.225 219.452L142.069 221.017L143.112 222.164L127.054 220.026L126.324 225.346L118.139 224.198L127.21 159.479L154.634 162.868L181.588 165.372L181.275 170.9Z" fill="#EDEFF1"/>
<path d="M427.095 153.793L411.923 156.974L391.382 160.781L376.054 162.606V165.318L375.272 165.266L374.542 165.892L373.291 168.604L371.935 168.03L370.11 169.334L369.745 170.429L368.963 171.055L368.546 170.637L368.494 169.855L368.077 169.751L365.992 171.472L365.679 173.245L363.228 174.497L362.968 175.122L361.299 176.478L359.422 176.739L357.024 178.304L356.607 180.442L355.929 180.911L355.147 180.859L354.417 181.537L354.365 184.092L365.522 182.528L367.816 181.537L368.494 181.485L372.3 179.242L384.395 178.095L384.604 178.356L384.5 179.086L384.865 179.242L385.49 178.46L387.211 180.025L387.263 181.381L397.534 179.92L410.307 188.838L412.392 187.691L413.957 187.326H414.843L415.416 187.9L415.833 186.856L416.146 184.249L417.033 182.215L419.848 179.034L421.985 177.209L424.801 176.009L426.104 175.8L426.782 176.009L427.147 176.583L428.867 173.141L430.588 170.377L430.223 170.22L427.929 173.767L427.668 173.349L428.711 172.202L428.502 171.42L427.46 171.159L427.981 171.837L427.355 171.889L426.73 170.95L426.104 171.993L425.27 172.098L425.791 170.69L426.156 169.803L426.052 168.291L424.905 168.238L425.374 167.769L425.948 167.926L427.355 167.978L427.773 167.717H428.972L430.014 166.726L430.119 165.057L430.796 164.327L431.422 164.223L432.1 163.701L431.839 161.772L430.692 159.79L429.284 159.686L428.815 160.52L428.555 159.999L427.147 160.103L426.521 160.311L425.531 160.937L425.374 160.729H424.905L423.967 161.355L422.611 161.615V160.937L423.028 160.416L423.55 160.781H424.071L424.957 159.686L426.886 158.799L427.929 157.652H429.18L429.597 158.33L430.484 158.747L430.223 157.965L430.066 157.13L428.607 155.514L428.45 154.783L428.242 155.305L427.773 154.627L427.095 153.793ZM430.744 169.959L432.152 168.656L434.55 166.935V165.005L434.342 163.388L433.455 161.198L434.237 161.928L434.759 163.597L434.967 167.561L434.081 167.769L432.465 169.021L430.796 170.69L430.744 169.959ZM431.735 159.894L431.266 159.79V160.311L432.569 161.459L432.465 160.729L431.735 159.894ZM433.247 160.989L432.517 159.529L431.37 157.756L430.119 156.192L428.972 153.949L428.555 153.584L429.702 155.826L429.858 156.504L431.631 159.373L432.569 160.468L433.247 160.989Z" fill="#EDEFF1"/>
<path d="M237.168 33.063L236.594 34.5233L237.011 35.2534L236.855 37.9131L236.594 38.4868L238.002 43.2325L238.68 44.5363L239.045 51.8375L239.566 53.2456L239.357 56.2704L240.869 60.1296L241.026 63.1543L240.974 64.2495L225.594 64.0409L201.611 62.9457L181.174 61.4333L183.885 26.6484L207.085 28.4216L235.916 29.256L237.168 33.063Z" fill="#EDEFF1"/>
<path d="M352.386 106.182L353.377 105.974L354.941 106.652L356.036 106.965L356.401 107.434H356.922L357.443 106.652L358.121 107.069H358.903L358.851 107.591L357.235 107.851L356.192 108.425L357.183 108.842L358.017 108.06L359.268 107.851L360.415 108.634L361.197 108.581L362.5 107.695L364.377 106.6L367.088 106.443L369.643 103.366L371.624 101.75L376.473 99.0898L379.027 114.683L377.88 115.309L378.61 116.404L378.558 117.551L378.871 118.594L378.298 120.368L378.245 123.184L377.724 125.061L377.985 125.635L377.776 126.782L377.203 127.043L376.16 128.764L375.222 129.807H374.909L373.97 130.694L373.293 130.068L372.51 131.006L372.354 131.632H371.676L370.999 132.78L371.051 133.875L370.529 134.135L371.259 134.709V135.7L370.738 135.804L370.373 136.222L369.852 136.482L369.539 135.387L368.705 135.126L368.183 136.326L368.027 137.473L367.453 138.151L368.131 140.029L367.349 140.446L367.14 142.271H366.358L364.69 143.001L364.064 141.906L362.24 141.176L361.823 139.664L361.562 139.246L359.789 140.185L359.477 141.072H359.007L358.33 141.437L357.704 141.019L356.14 140.602L355.149 141.019V141.541L354.002 141.437L353.012 140.341L351.813 140.446L349.675 140.081V139.559L348.528 137.786L347.016 137.16L346.025 137.577L344.878 137.525L344.201 137.265L340.76 107.434L351.917 105.609L352.386 106.182Z" fill="#EDEFF1"/>
<path d="M256.349 205.163L253.951 203.181L252.804 202.711L252.543 203.546L249.884 203.702L249.571 202.92L246.965 204.224L246.13 203.859L244.201 204.015L243.889 204.902L242.012 205.371L241.334 204.745L240.708 204.797L239.666 203.859L238.571 204.224L237.528 203.963L236.59 202.92L235.286 205.11L234.661 205.528L234.139 204.589L234.296 203.546L233.67 203.181L232.471 204.485L231.585 203.859L231.532 203.076L230.855 203.337L229.499 202.451L227.935 203.807L226.736 203.233L227.101 202.138L225.902 202.19L224.911 200.625L223.086 200.052L222.044 201.251L220.845 200.104L220.115 200.312L219.072 200.365L217.247 199.374L216.048 199.426L215.422 199.061L215.162 197.548L213.963 196.662L213.389 197.444L212.659 196.923L212.034 196.714L211.46 197.236L210.678 197.079L209.375 195.515L207.967 194.837L208.697 172.568L181.273 170.899L181.586 165.371L190.189 165.893L225.485 167.405L257.809 167.457L257.913 173.089L260.051 185.814L259.686 206.153L256.349 205.163Z" fill="#EDEFF1"/>
<path d="M43.8446 84.1202L68.3485 89.9612L72.78 70.5087L74.292 67.484L74.5005 66.3888L74.9176 65.9194L74.4484 64.8764L72.9364 64.2506L73.0407 62.0602L75.1261 59.0355L76.4295 58.6182L77.2637 57.4188L77.2116 56.5843L78.15 55.7499L79.8184 52.8816L82.0081 50.3783L81.7474 48.7095L79.9226 47.0928L79.0885 45.2154L63.2913 41.4083L61.8315 41.9298L59.0162 41.4605L58.0777 40.9911L57.2957 41.6169L55.5752 41.4083L53.2291 41.6691L52.7599 42.0341L50.5702 41.8255L50.1531 40.9911L49.5274 40.8868L47.2335 41.5648L46.3993 40.9911L45.2523 41.4083L45.148 40.4696L43.9489 39.8438L43.1669 39.7395L42.6455 39.1658L41.0814 39.3223L40.4558 38.9051H39.8302L39.2045 39.3744L36.3371 39.7395L32.8961 37.5491L33.4696 34.6287L33.2611 32.4905L31.5927 30.5609L29.6637 30.613L29.4551 30.0394L29.6637 29.4135L29.2987 28.9963L28.7774 29.0485L28.2039 29.7264L27.4218 29.6221L27.1612 29.0485L26.6398 28.9963L26.2749 29.3092L25.2321 28.3184V30.5609L24.5544 31.2388L23.9809 33.0641L23.9287 34.2636L21.5826 40.6782L14.7007 57.0016L13.0324 59.4005L12.1982 59.3484L12.2503 60.4435L9.53925 64.1463L9.38284 65.8673L9.9042 66.5452L9.95634 67.7969L9.33071 68.3705L8.70508 69.9351L8.75721 72.9077L9.38284 74.4201L43.8446 84.1202Z" fill="#EDEFF1"/>
<path d="M201.613 62.944L225.595 64.0392L240.975 64.2478L240.923 65.3951L240.454 66.4382L238.838 67.429L238.681 68.0549L239.568 69.3586L239.776 70.2974L241.132 70.6103L241.914 71.6011L241.81 92.2009L240.663 92.1487L240.61 92.9832L241.288 93.7654L241.236 94.3391L240.715 94.5999L240.923 95.4343L241.601 95.6429L241.966 96.6859L241.08 99.3456L240.558 101.588L241.236 102.214L241.393 102.892L241.757 103.778L240.975 103.883L240.037 103.518L239.568 102.162L238.942 101.484L235.762 100.336L235.449 99.7628L234.406 99.4499L233.676 99.7628L233.155 99.5021L232.686 99.7107L232.321 99.5021L231.852 99.7107L231.487 99.4499L230.965 99.815L230.183 99.5021L229.245 100.545L228.306 100.597L227.212 99.5542L226.325 99.4499L224.553 97.7811L204.741 96.9467L178.1 95.1214L180.133 72.227L181.176 61.4316L201.613 62.944Z" fill="#EDEFF1"/>
<path d="M318.603 187.692L342.429 185.606L354.368 184.094L354.42 181.538L355.15 180.86L355.932 180.912L356.61 180.443L357.027 178.305L359.425 176.74L361.302 176.479L362.97 175.124L363.231 174.498L365.681 173.246L365.994 171.473L368.08 169.752L368.497 169.856L368.549 170.639L368.966 171.056L369.748 170.43L370.113 169.335L371.938 168.031L373.293 168.605L374.545 165.893L375.274 165.267L376.056 165.319V162.607L376.213 162.242L373.815 162.503L373.71 163.024L358.643 164.745L355.724 165.476L345.036 166.206L342.325 166.623L333.253 167.144L331.897 167.562L320.115 168.605L319.75 168.292H317.821L318.446 169.961L318.134 170.43L305.986 171.212L305.569 171.734L305.152 171.369H304.63V172.047L304.943 172.568L304.891 173.09L304.161 173.35L304.891 174.133L304.474 174.498L303.588 174.393L303.901 174.915L304.526 175.489V175.854L303.901 176.114L303.379 177.157L303.431 177.47L304.161 177.992L303.953 178.357H303.171V178.618L303.64 179.087L303.692 179.504L302.962 179.609L302.701 180.026L301.867 180.13L301.398 180.599L301.711 181.069L302.284 181.017L302.545 181.486L301.711 182.164L301.919 182.946L300.877 182.633L300.824 182.998L301.033 183.572L300.877 184.302L300.199 183.885L299.782 184.302L300.355 184.354L300.407 185.137L300.095 185.658L300.668 186.127L300.512 186.91L300.929 187.275L300.564 187.796L299.938 187.536L299.469 188.683L298.635 189.048L318.603 187.692Z" fill="#EDEFF1"/>
<path d="M142.072 221.018L142.229 219.453L160.163 221.331L176.743 222.687L180.861 170.9H181.278L208.702 172.569L207.972 194.838L209.38 195.516L210.683 197.08L211.465 197.237L212.039 196.715L212.664 196.924L213.394 197.445L213.968 196.663L215.167 197.55L215.427 199.062L216.053 199.427L217.252 199.375L219.077 200.366L220.12 200.314L220.85 200.105L222.049 201.252L223.091 200.053L224.916 200.627L225.907 202.191L227.106 202.139L226.741 203.234L227.94 203.808L229.504 202.452L230.86 203.338L231.537 203.078L231.59 203.86L232.476 204.486L233.675 203.182L234.301 203.547L234.144 204.59L234.666 205.529L235.291 205.112L236.595 202.921L237.533 203.964L238.576 204.225L239.671 203.86L240.713 204.799L241.339 204.747L242.017 205.372L243.894 204.903L244.206 204.016L246.135 203.86L246.97 204.225L249.576 202.921L249.889 203.704L252.548 203.547L252.809 202.713L253.956 203.182L256.354 205.164L259.691 206.155L261.046 207.354L262.506 206.676L264.174 207.093L264.279 213.299L264.539 223.677L264.904 225.451L266.26 226.911L266.625 229.727L268.606 232.126L269.023 234.368H269.544L269.492 238.176L267.772 241.513L268.45 242.713L267.772 243.495L268.137 245.06L268.085 247.302L266.938 249.127L266.886 249.545L265.999 250.17L266.521 251.109L267.146 251.683L265.321 251.839L260.942 253.873L259.117 254.603L258.179 255.542L257.814 255.281L258.909 254.082L259.847 253.717L260.108 253.247L258.596 253.195L258.231 252.778L258.648 251.735L258.179 250.796H257.866L256.615 251.474L255.624 252.83L255.781 253.717L257.501 255.49L258.179 255.646V256.063L256.98 256.898L254.425 258.984L252.34 261.018L250.671 261.748L248.064 263.312L246.135 264.355L243.789 265.346L241.652 266.65L243.32 265.086V264.512L243.633 264.095L243.529 263.156L242.747 263.104L242.173 263.886L240.818 264.564L239.879 263.938L239.723 263.052H238.941L239.358 264.199L240.088 264.564L240.713 265.033L241.652 265.868L241.287 266.285L239.254 267.172L238.367 267.224L237.742 266.598L237.481 267.693L237.742 268.267L236.334 269.31L235.552 269.414L235.135 269.779L234.926 270.666L233.988 272.387L233.154 272.752L232.319 272.439L231.381 273.013L231.537 273.743L232.215 274.16L232.737 274.577L231.798 276.402L231.642 277.863L231.12 278.749L230.39 279.271L228.878 279.479L229.817 279.792L230.807 279.479L230.599 281.148L230.025 281.096L230.13 281.722L230.286 282.452L229.608 282.921V284.538L230.443 285.268L230.755 286.885L230.547 288.032L230.025 288.241L230.234 289.023L230.807 289.232L231.225 290.118V291.474L231.798 292.569L232.945 293.925L232.893 294.29L231.746 294.186L230.912 294.916L231.016 295.646L230.547 295.49L229.817 295.385L228.044 293.456L226.845 293.143H223.144L221.684 292.726L219.807 291.161L218.921 290.64L217.826 290.692L216.157 289.336L213.342 288.502V287.824L212.612 286.885L212.143 284.434L211.569 283.547L210.683 282.817V281.983L209.953 281.67L210.266 280.314L210.11 279.166L209.432 278.436L209.797 276.872L209.38 275.203L208.493 274.473H207.92L205.834 272.648L205.887 271.657L205.469 270.77L205.052 270.666L204.583 269.414L203.54 268.58L202.028 267.276L201.924 266.181L201.403 265.816L201.507 264.981L201.768 264.616L201.038 263.834L201.09 263.469L200.047 262.322L200.099 261.226L198.692 258.671L198.64 257.784L197.701 256.168L195.042 253.664V253.091L193.322 252.204L193.27 251.266L192.644 251.057V250.692L192.227 250.588L191.132 249.127H190.715L190.35 248.814L189.672 249.388H188.525L187.17 248.814H184.772L182.582 247.719L181.904 248.71L180.757 248.397L179.037 249.023L178.15 250.483L177.108 252.152L176.534 254.447L175.804 255.073L175.231 255.125L174.761 255.959L174.084 256.272L174.032 257.211L172.52 257.263L171.581 256.481H171.06L170.017 254.968L168.14 254.707L167.254 253.508L166.576 253.404L165.481 252.986L163.709 251.213L163.813 250.796L162.979 250.17L162.457 250.118L160.685 248.501L160.633 247.458L159.434 245.372L159.538 244.538L159.173 243.86L159.59 243.078L159.538 241.826L158.182 239.688L157.869 237.498L157.035 236.663V236.142L156.41 236.037L156.045 235.464L154.793 234.577L154.324 234.525L153.334 233.691V233.117L151.822 232.178L151.509 231.083L150.153 229.883L148.485 227.589L146.921 226.911L145.826 225.972L145.93 225.346L145.253 224.616L144.366 222.687L143.115 222.165L142.072 221.018ZM233.258 293.143L233.675 293.195L233.362 290.692L231.537 284.277L231.433 280.053L233.988 274.577L237.168 270.301L240.922 267.641V267.276H240.505L239.149 267.797L237.272 268.997L236.907 269.779L232.632 275.829L231.172 279.949V284.538L233.049 290.796L233.258 293.143Z" fill="#EDEFF1"/>
<path d="M116.471 110.924L118.191 99.503L93.2181 95.2266L82.2695 152.071L106.356 156.348L127.211 159.477L133.206 113.427L116.471 110.924Z" fill="#EDEFF1"/>
<path d="M79.2984 40.8866L79.6633 42.9727L79.0898 45.2152L63.2927 41.4081L61.8329 41.9296L59.0175 41.4603L58.0791 40.9909L57.297 41.6167L55.5766 41.4081L53.2304 41.6689L52.7612 42.0339L50.5715 41.8253L50.1544 40.9909L49.5288 40.8866L47.2348 41.5646L46.4006 40.9909L45.2537 41.4081L45.1494 40.4694L43.9503 39.8436L43.1682 39.7393L42.6469 39.1656L41.0828 39.3221L40.4572 38.9049H39.8315L39.2059 39.3742L36.3384 39.7393L32.8975 37.5489L33.471 34.6284L33.2624 32.4902L31.5941 30.5606L29.665 30.6128L29.4565 30.0391L29.665 29.4133L29.3001 28.9961L28.7787 29.0483L27.6839 28.266L27.0582 28.4746L26.0155 28.4224L25.6506 27.6402L24.8164 27.4837L26.1198 23.5724L25.7549 26.7015L26.0155 26.9622V25.9192L26.4326 25.8149L27.0061 27.0144L26.7454 25.867L27.3711 23.6767L28.3095 23.8853L27.736 22.8423L27.2147 22.9987L26.4326 22.7901L26.5369 20.5998L26.6412 21.382L27.1104 21.6428L27.4232 20.8084H29.0915L27.9446 20.1825L27.0582 19.1917L26.3283 20.0261L26.954 18.4094L26.7976 16.0104L26.6933 14.133L27.1625 10.9518L26.9018 9.90874L26.1719 8.81357L26.2241 6.72751L26.4326 5.31943L27.4753 4.11995L27.1104 3.38983L27.2147 3.07693L27.6839 3.12908L31.7505 7.09257L34.2009 8.08345L36.8598 9.38723L38.5281 9.33508L38.6324 10.8996L39.1538 10.0652H39.5187L39.8315 11.4733L40.0922 10.1173L40.8221 10.013L41.0828 10.3781L40.5093 10.691L40.5614 11.5254L40.9264 10.7432H41.4999L41.2913 12.0991L40.7178 11.6819L40.9264 12.412L40.8742 13.1943L40.4572 13.5593L39.1538 15.0717L39.7794 13.2986L38.9452 13.5072L38.7367 14.6024L36.7555 16.0626L36.547 16.5841L35.4521 17.7314L35.4 18.2529H36.547L37.7982 18.1486L38.0589 17.6793L36.0256 17.94V17.6271L37.3811 16.1669L38.3196 15.7497L39.3102 15.6454L39.8315 14.811L41.3956 13.6115V12.8814H41.9691L42.0212 14.9674H41.2392L40.9264 15.3846L40.3529 14.9153L40.5093 15.4889V16.3755L40.1443 16.7406L39.9879 15.9061L39.5708 16.3233L39.9358 16.6363L39.4666 17.2099H40.1443L40.5093 16.9492L40.5614 17.9922L40.0401 18.9831L39.5708 19.5046L39.5187 20.4433L38.9974 20.339L38.8931 19.6089L39.3623 19.0352L38.9452 18.7745L38.5281 19.1395L38.1632 20.2868L37.7461 20.7562L37.694 19.7132L38.111 19.1395L38.0068 18.5659L37.3811 19.1917L37.4333 20.339L37.1205 20.5476L36.0256 20.339L35.3478 20.9648L36.4948 20.6519L36.3906 21.7992L36.9119 20.8605L37.1205 21.5906L37.3811 21.0691L37.7461 22.0078H38.111L38.476 21.5906L38.7888 21.5385L39.8315 20.5476L39.9358 19.9218L40.3529 20.2347L40.5093 20.7041L40.8742 20.5476L40.9264 19.9218H41.6041L41.7084 18.4094L41.6563 17.0013L42.1255 17.1578L41.7606 16.0626L42.4905 15.6454L42.5947 14.3938L43.7939 13.2464L44.3152 13.2986L44.4716 12.5685L43.846 11.8383L43.7939 10.013L43.3768 10.4824L43.7417 11.9948L43.4289 12.0469L43.1161 11.0561L42.8033 10.7953L42.9597 9.59584L43.8981 9.54368L44.0545 9.90874L44.2109 9.07432L43.3768 8.18775L43.064 7.35333L42.9597 8.39635L43.4289 8.97002L43.064 9.17862L42.5426 8.76141L41.6041 9.43938L42.3862 9.70014L42.4905 10.9518L42.3341 11.8905L42.8033 11.2125L43.5332 12.412L43.3246 13.4029H42.5426V12.7771L41.7606 12.1512L42.0212 10.5867L41.0307 9.23078L42.4383 7.66624L42.7511 5.52804H43.2204L43.9503 7.19688V5.84094L44.5759 5.9974V4.2764L44.1067 3.85919L43.481 5.16298L42.9597 3.59844L43.6374 3.54629L42.8554 0.990874L43.846 0.677967L57.0885 4.58931L73.6156 8.76141L85.9196 11.6297L79.2984 40.8866ZM38.2675 20.339H38.5281L38.5803 20.7562L38.3196 20.9127L38.3717 21.2256L38.0068 21.4342L37.9025 20.9648L38.1632 20.7562L38.2675 20.339ZM40.8742 18.0965L40.2486 19.0874L40.1965 19.5046L40.405 19.6089L40.6657 19.296L41.2392 19.3481L40.8742 18.0965ZM40.6657 6.83182L40.9264 7.14472L41.6041 6.98827L41.7084 6.46676L42.3341 5.52804L41.8127 5.31943L41.4477 6.15385L41.3956 5.31943L40.8221 5.42373L40.4572 6.15385L40.6657 6.83182ZM42.3341 3.9635L42.699 4.74577L42.2298 4.85007L41.8127 5.05867L41.7084 3.80704L42.3341 3.9635ZM40.9264 3.12908L40.3529 3.02477L40.6136 3.75489L40.9264 3.12908ZM40.405 4.43286L40.8221 4.64146L40.6136 5.21513L41.4999 4.95437L41.3956 3.80704L40.9264 3.70274L40.405 4.43286ZM38.9974 4.22425L39.1538 5.63234L39.9879 6.3103L40.3008 5.31943L39.7273 4.1721L38.9974 4.22425ZM39.9879 3.65059L39.4144 3.12908L38.9452 3.18123L39.8837 3.9635L39.9879 3.65059ZM41.6563 0H41.0307V0.41721L41.6563 0.730118V0ZM41.1871 16.9492L41.3956 15.5411H40.8221L40.7178 16.532L41.1871 16.9492Z" fill="#EDEFF1"/>
<path d="M313.438 72.386L311.927 72.8032L312.031 74.0027L310.78 75.7758L310.675 77.3925L310.988 77.7576L311.405 77.3925L311.666 76.5581L312.709 75.9844L313.543 73.7941L315.367 73.2204L315.785 71.4994L316.15 71.03L316.358 69.9349L317.297 69.3612V68.5789L317.818 68.1096L318.548 68.1617V69.2048L318.026 69.2569L318.287 69.8827L317.922 71.03L317.609 71.0822L316.984 73.429L316.619 73.6898L315.159 77.4447L315.003 79.635L315.315 80.678L315.367 81.356L314.116 82.3469L314.273 83.3378L313.803 84.9544L313.96 85.7889L314.168 87.7185L313.595 89.8567L312.813 92.4642L313.334 93.2465L313.178 93.403L313.595 94.2895L313.334 94.8632L313.908 95.3325V96.7406L314.585 97.5229L314.377 99.0874L314.533 101.173L290.603 102.634L289.925 101.173L288.205 100.808L286.797 100.026L285.754 97.1578L285.806 95.8541L286.641 94.1331L286.328 93.5594L285.233 92.725L285.129 91.369L284.555 89.0222L284.451 87.4577L283.304 85.8932L281.844 85.5281L279.133 83.6507L278.82 81.9297L275.536 80.313L275.431 79.635H273.711L272.564 78.2791L271.521 77.6011L271.886 74.9414L271.417 74.107L271.678 71.2908L272.199 70.3521L272.043 68.944L271.417 68.266L270.479 68.1096V67.223L271.938 64.1982L275.014 62.1643L274.806 55.3847L275.275 55.5933L275.588 55.3325L275.64 54.7589L276.109 54.4459L276.839 55.0718L277.204 55.0196H278.56L282.105 53.6637L282.261 53.1422H282.887L283.252 52.5164L283.46 52.9336L284.399 52.4642L285.337 51.5776L285.494 51.8384L286.015 51.3169L287.162 52.1513L286.745 52.9857L286.119 53.7158L286.38 54.4981L285.65 55.3325L285.859 55.8019L287.058 55.2282V54.4981L288.778 55.489L289.769 55.854L290.759 56.2191L292.323 58.2008L301.187 60.1826L301.916 60.7041L304.002 61.1213L304.367 61.3821L305.827 61.2778L308.381 61.695L309.111 62.4772L308.59 62.9988L309.007 63.416L310.988 63.781L311.614 64.4068L311.666 66.7015L310.988 68.1617L312.031 68.2139L312.552 67.7967L313.021 68.2139L312.448 69.8306L312.969 70.665L313.595 70.8214L313.438 72.386ZM287.631 52.9336L287.371 52.9857L286.589 53.8201L286.693 54.0809L287.475 53.768V53.4551L287.944 53.2986L287.631 52.9336ZM288.465 52.3599L287.944 52.5164L287.84 52.8814L288.309 52.8293L288.465 52.3599ZM287.788 51.5255L287.683 51.9948H288.57L288.882 51.7862L288.935 51.2647L287.788 51.5255ZM289.247 49.9609L289.091 50.9518L289.717 50.6911L289.769 49.9609H289.247ZM319.643 66.5972L318.6 66.7536L318.391 67.4316L319.069 68.3182L319.643 66.5972Z" fill="#EDEFF1"/>
<path d="M180.127 72.2277L153.537 69.4637L123.663 65.3438L122.621 70.9239L118.189 99.5028L116.469 110.924L133.204 113.427L156.613 116.4L176.164 118.173L178.093 95.1221L180.127 72.2277Z" fill="#EDEFF1"/>
<g filter="url(#filter0_d_3353_515)">
<ellipse cx="129.579" cy="80.9155" rx="21.0128" ry="21.019" fill="white"/>
<path d="M141.96 68.5326C138.72 65.152 134.237 63.3303 129.579 63.4004C124.921 63.3303 120.456 65.152 117.217 68.5326C113.819 71.7731 111.998 76.2572 112.068 80.9165C111.998 85.5758 113.819 90.0424 117.199 93.2829C120.439 96.681 124.921 98.5027 129.579 98.4326C134.237 98.5027 138.702 96.681 141.942 93.3004C145.339 90.0599 147.16 85.5758 147.09 80.9165C147.16 76.2572 145.339 71.7731 141.96 68.5326ZM138.335 80.9165V91.4262H132.206V82.6681H126.953V91.4262H120.824V80.9165H117.322L129.579 68.6552L142.712 80.9165H138.335Z" fill="#051D4D"/>
<path d="M138.335 80.9165V91.4262H132.206V82.6681H126.953V91.4262H120.824V80.9165H117.322L129.579 68.6552L142.712 80.9165H138.335Z" fill="white"/>
</g>
<g filter="url(#filter1_d_3353_515)">
<ellipse cx="108.567" cy="171.97" rx="21.0128" ry="21.019" fill="white"/>
<path d="M120.946 159.587C117.706 156.207 113.224 154.385 108.566 154.455C103.908 154.385 99.4424 156.207 96.2029 159.587C92.8058 162.828 90.9846 167.312 91.0547 171.971C90.9846 176.63 92.8058 181.097 96.1854 184.338C99.4249 187.736 103.908 189.557 108.566 189.487C113.224 189.557 117.689 187.736 120.928 184.355C124.325 181.115 126.147 176.63 126.077 171.971C126.147 167.312 124.325 162.828 120.946 159.587ZM117.321 171.971V182.481H111.192V173.723H105.939V182.481H99.8101V171.971H96.308L108.566 159.71L121.699 171.971H117.321Z" fill="#051D4D"/>
<path d="M117.321 171.971V182.481H111.192V173.723H105.939V182.481H99.8101V171.971H96.308L108.566 159.71L121.699 171.971H117.321Z" fill="white"/>
</g>
<g filter="url(#filter2_d_3353_515)">
<ellipse cx="213.634" cy="101.925" rx="21.0128" ry="21.019" fill="white"/>
<path d="M226.014 89.5443C222.775 86.1637 218.292 84.342 213.634 84.4121C208.976 84.342 204.511 86.1637 201.271 89.5443C197.874 92.7848 196.053 97.2689 196.123 101.928C196.053 106.587 197.874 111.054 201.254 114.295C204.493 117.693 208.976 119.514 213.634 119.444C218.292 119.514 222.757 117.693 225.997 114.312C229.394 111.072 231.215 106.587 231.145 101.928C231.215 97.2689 229.394 92.7848 226.014 89.5443ZM222.389 101.928V112.438H216.261V103.68H211.007V112.438H204.879V101.928H201.376L213.634 89.6669L226.767 101.928H222.389Z" fill="#051D4D"/>
<path d="M222.389 101.928V112.438H216.261V103.68H211.007V112.438H204.879V101.928H201.376L213.634 89.6669L226.767 101.928H222.389Z" fill="white"/>
</g>
<g filter="url(#filter3_d_3353_515)">
<ellipse cx="292.782" cy="205.593" rx="21.0128" ry="21.019" fill="white"/>
<path d="M305.165 193.208C301.925 189.828 297.442 188.006 292.784 188.076C288.126 188.006 283.661 189.828 280.422 193.208C277.025 196.449 275.203 200.933 275.273 205.592C275.203 210.252 277.025 214.718 280.404 217.959C283.644 221.357 288.126 223.178 292.784 223.108C297.442 223.178 301.908 221.357 305.147 217.976C308.544 214.736 310.365 210.252 310.295 205.592C310.365 200.933 308.544 196.449 305.165 193.208ZM301.54 205.592V216.102H295.411V207.344H290.158V216.102H284.029V205.592H280.527L292.784 193.331L305.918 205.592H301.54Z" fill="#051D4D"/>
<path d="M301.54 205.592V216.102H295.411V207.344H290.158V216.102H284.029V205.592H280.527L292.784 193.331L305.918 205.592H301.54Z" fill="white"/>
</g>
<defs>
<filter id="filter0_d_3353_515" x="108.566" y="59.8965" width="42.0262" height="63.0518" filterUnits="userSpaceOnUse" color-interpolation-filters="sRGB">
<feFlood flood-opacity="0" result="BackgroundImageFix"/>
<feColorMatrix in="SourceAlpha" type="matrix" values="0 0 0 0 0 0 0 0 0 0 0 0 0 0 0 0 0 0 127 0" result="hardAlpha"/>
<feMorphology radius="14.0087" operator="erode" in="SourceAlpha" result="effect1_dropShadow_3353_515"/>
<feOffset dy="21.0131"/>
<feGaussianBlur stdDeviation="7.00437"/>
<feComposite in2="hardAlpha" operator="out"/>
<feColorMatrix type="matrix" values="0 0 0 0 0.0472222 0 0 0 0 0.150706 0 0 0 0 0.354167 0 0 0 0.1 0"/>
<feBlend mode="normal" in2="BackgroundImageFix" result="effect1_dropShadow_3353_515"/>
<feBlend mode="normal" in="SourceGraphic" in2="effect1_dropShadow_3353_515" result="shape"/>
</filter>
<filter id="filter1_d_3353_515" x="87.5547" y="150.951" width="42.0262" height="63.0518" filterUnits="userSpaceOnUse" color-interpolation-filters="sRGB">
<feFlood flood-opacity="0" result="BackgroundImageFix"/>
<feColorMatrix in="SourceAlpha" type="matrix" values="0 0 0 0 0 0 0 0 0 0 0 0 0 0 0 0 0 0 127 0" result="hardAlpha"/>
<feMorphology radius="14.0087" operator="erode" in="SourceAlpha" result="effect1_dropShadow_3353_515"/>
<feOffset dy="21.0131"/>
<feGaussianBlur stdDeviation="7.00437"/>
<feComposite in2="hardAlpha" operator="out"/>
<feColorMatrix type="matrix" values="0 0 0 0 0.0472222 0 0 0 0 0.150706 0 0 0 0 0.354167 0 0 0 0.1 0"/>
<feBlend mode="normal" in2="BackgroundImageFix" result="effect1_dropShadow_3353_515"/>
<feBlend mode="normal" in="SourceGraphic" in2="effect1_dropShadow_3353_515" result="shape"/>
</filter>
<filter id="filter2_d_3353_515" x="192.621" y="80.9062" width="42.0262" height="63.0518" filterUnits="userSpaceOnUse" color-interpolation-filters="sRGB">
<feFlood flood-opacity="0" result="BackgroundImageFix"/>
<feColorMatrix in="SourceAlpha" type="matrix" values="0 0 0 0 0 0 0 0 0 0 0 0 0 0 0 0 0 0 127 0" result="hardAlpha"/>
<feMorphology radius="14.0087" operator="erode" in="SourceAlpha" result="effect1_dropShadow_3353_515"/>
<feOffset dy="21.0131"/>
<feGaussianBlur stdDeviation="7.00437"/>
<feComposite in2="hardAlpha" operator="out"/>
<feColorMatrix type="matrix" values="0 0 0 0 0.0472222 0 0 0 0 0.150706 0 0 0 0 0.354167 0 0 0 0.1 0"/>
<feBlend mode="normal" in2="BackgroundImageFix" result="effect1_dropShadow_3353_515"/>
<feBlend mode="normal" in="SourceGraphic" in2="effect1_dropShadow_3353_515" result="shape"/>
</filter>
<filter id="filter3_d_3353_515" x="271.77" y="184.574" width="42.0262" height="63.0518" filterUnits="userSpaceOnUse" color-interpolation-filters="sRGB">
<feFlood flood-opacity="0" result="BackgroundImageFix"/>
<feColorMatrix in="SourceAlpha" type="matrix" values="0 0 0 0 0 0 0 0 0 0 0 0 0 0 0 0 0 0 127 0" result="hardAlpha"/>
<feMorphology radius="14.0087" operator="erode" in="SourceAlpha" result="effect1_dropShadow_3353_515"/>
<feOffset dy="21.0131"/>
<feGaussianBlur stdDeviation="7.00437"/>
<feComposite in2="hardAlpha" operator="out"/>
<feColorMatrix type="matrix" values="0 0 0 0 0.0472222 0 0 0 0 0.150706 0 0 0 0 0.354167 0 0 0 0.1 0"/>
<feBlend mode="normal" in2="BackgroundImageFix" result="effect1_dropShadow_3353_515"/>
<feBlend mode="normal" in="SourceGraphic" in2="effect1_dropShadow_3353_515" result="shape"/>
</filter>
</defs>
</svg>
