<svg width="1396" height="457" viewBox="0 0 1396 457" fill="none" xmlns="http://www.w3.org/2000/svg">
<g clip-path="url(#clip0_32_401)">
<rect x="0.5" width="1395" height="457" fill="#051D4D"/>
<path d="M1168.4 28.0171C1167.28 26.7952 1165.37 26.7372 1164.17 27.8888L724.592 451.733C724.231 452.081 723.965 452.514 723.818 452.994L640.739 724.16C640.032 726.47 642.245 728.606 644.528 727.816L1325.63 492.25C1326.74 491.865 1327.52 490.857 1327.61 489.684L1347.83 224.775C1347.9 223.959 1347.62 223.155 1347.06 222.552L1168.4 28.0171Z" fill="url(#paint0_linear_32_401)"/>
<path d="M453.277 704.929C452.335 705.954 450.732 706.003 449.73 705.036L80.6762 349.195C80.3733 348.903 80.1498 348.538 80.0266 348.136L10.2769 120.476C9.68284 118.537 11.5413 116.743 13.4579 117.406L585.283 315.178C586.217 315.501 586.87 316.348 586.945 317.333L603.923 539.739C603.976 540.424 603.742 541.099 603.277 541.605L453.277 704.929Z" fill="url(#paint1_linear_32_401)"/>
<path d="M384.222 -289.445C382.679 -288.978 381.771 -287.385 382.157 -285.819L515.784 256.694C515.976 257.474 516.469 258.145 517.156 258.561L715.295 378.679C716.779 379.578 718.714 379.05 719.536 377.522L892.565 55.6494C892.817 55.1794 892.942 54.6511 892.925 54.1178L883.908 -228.22C883.874 -229.265 883.304 -230.22 882.399 -230.744L646.287 -367.667C645.561 -368.088 644.693 -368.189 643.889 -367.947L384.222 -289.445Z" fill="#001F91"/>
</g>
<rect x="1" y="0.5" width="1394" height="456" stroke="#122956" stroke-opacity="0.2"/>
<defs>
<linearGradient id="paint0_linear_32_401" x1="1220.57" y1="160.59" x2="1143.73" y2="571.739" gradientUnits="userSpaceOnUse">
<stop stop-color="#0E3BE0"/>
<stop offset="1" stop-color="#0E3BE0" stop-opacity="0"/>
</linearGradient>
<linearGradient id="paint1_linear_32_401" x1="63.301" y1="167.241" x2="601.591" y2="398.861" gradientUnits="userSpaceOnUse">
<stop stop-color="#0633D6"/>
<stop offset="1" stop-color="#0633D6" stop-opacity="0"/>
</linearGradient>
<clipPath id="clip0_32_401">
<rect x="0.5" width="1395" height="457" fill="white"/>
</clipPath>
</defs>
</svg>
