<svg width="360" height="415" viewBox="0 0 360 415" fill="none" xmlns="http://www.w3.org/2000/svg">
<g filter="url(#filter0_i_3353_647)">
<g clip-path="url(#clip0_3353_647)">
<path d="M0 0H360V939H0V0Z" fill="url(#paint0_linear_3353_647)"/>
<path d="M-1809.68 418.722C-1813.56 422.724 -1811.98 429.4 -1806.72 431.236L-321.125 949.508C-319.902 949.934 -318.592 950.042 -317.316 949.822L404.723 825.387C410.873 824.327 413.218 816.734 408.737 812.39L-926.211 -481.69C-929.236 -484.623 -934.066 -484.548 -936.999 -481.523L-1809.68 418.722Z" fill="#1A328E"/>
<path d="M-40.7286 -247.817C-36.8715 -251.89 -30.0511 -250.246 -28.4732 -244.863L331.049 981.509C333.138 988.633 324.463 993.938 319.073 988.833L-482.721 229.406C-485.636 226.645 -485.761 222.043 -483 219.128L-40.7286 -247.817Z" fill="#0F33AE"/>
<path d="M499.636 -174.186C497.267 -176.467 493.378 -175.879 491.79 -172.999L106.746 525.273C106.328 526.03 106.114 526.881 106.124 527.745L111.082 962.874C111.125 966.643 115.163 969.011 118.472 967.209L886.894 548.801C888.811 547.757 889.83 545.59 889.41 543.448L807.028 123.055C806.831 122.048 806.328 121.127 805.589 120.415L499.636 -174.186Z" fill="#335CF4"/>
</g>
</g>
<defs>
<filter id="filter0_i_3353_647" x="0" y="0" width="360" height="949" filterUnits="userSpaceOnUse" color-interpolation-filters="sRGB">
<feFlood flood-opacity="0" result="BackgroundImageFix"/>
<feBlend mode="normal" in="SourceGraphic" in2="BackgroundImageFix" result="shape"/>
<feColorMatrix in="SourceAlpha" type="matrix" values="0 0 0 0 0 0 0 0 0 0 0 0 0 0 0 0 0 0 127 0" result="hardAlpha"/>
<feOffset dy="10"/>
<feGaussianBlur stdDeviation="8"/>
<feComposite in2="hardAlpha" operator="arithmetic" k2="-1" k3="1"/>
<feColorMatrix type="matrix" values="0 0 0 0 0.027451 0 0 0 0 0.141176 0 0 0 0 0.368627 0 0 0 0.25 0"/>
<feBlend mode="normal" in2="shape" result="effect1_innerShadow_3353_647"/>
</filter>
<linearGradient id="paint0_linear_3353_647" x1="12" y1="939" x2="373.415" y2="931.519" gradientUnits="userSpaceOnUse">
<stop stop-color="#051D4D"/>
<stop offset="1" stop-color="#0C3EA0"/>
</linearGradient>
<clipPath id="clip0_3353_647">
<path d="M0 0H360V939H0V0Z" fill="white"/>
</clipPath>
</defs>
</svg>
