<svg width="1009" height="723" viewBox="0 0 1009 723" fill="none" xmlns="http://www.w3.org/2000/svg">
<g opacity="0.2">
<path d="M52.1013 143.375H1777.86" stroke="url(#paint0_linear_52_2790)" stroke-width="1.42625"/>
<path d="M5.7791 151.751C4.77627 151.751 3.88233 151.579 3.09729 151.235C2.31731 150.89 1.69687 150.412 1.23597 149.799C0.780139 149.181 0.531963 148.464 0.491445 147.649H2.40594C2.44646 148.15 2.61866 148.583 2.92255 148.948C3.22644 149.308 3.62403 149.586 4.11531 149.784C4.6066 149.981 5.15107 150.08 5.74872 150.08C6.41727 150.08 7.00985 149.963 7.52646 149.73C8.04307 149.497 8.44826 149.173 8.74202 148.758C9.03578 148.343 9.18266 147.862 9.18266 147.315C9.18266 146.742 9.04084 146.238 8.75721 145.803C8.47358 145.362 8.05827 145.018 7.51127 144.769C6.96427 144.521 6.29571 144.397 5.5056 144.397H4.25966V142.726H5.5056C6.12351 142.726 6.66545 142.614 7.13141 142.392C7.60244 142.169 7.96963 141.855 8.233 141.449C8.50144 141.044 8.63566 140.568 8.63566 140.021C8.63566 139.494 8.51917 139.036 8.28618 138.646C8.0532 138.256 7.72399 137.952 7.29855 137.734C6.87817 137.517 6.38182 137.408 5.80949 137.408C5.27262 137.408 4.76614 137.507 4.29005 137.704C3.81902 137.897 3.4341 138.178 3.13527 138.547C2.83645 138.912 2.67438 139.353 2.64905 139.869H0.825722C0.856111 139.054 1.10175 138.34 1.56265 137.727C2.02355 137.109 2.62626 136.628 3.37079 136.283C4.12038 135.939 4.94341 135.767 5.83988 135.767C6.8022 135.767 7.62776 135.962 8.31657 136.352C9.00539 136.737 9.53466 137.246 9.90439 137.879C10.2741 138.512 10.459 139.196 10.459 139.93C10.459 140.806 10.2285 141.553 9.76764 142.171C9.31181 142.789 8.69137 143.217 7.90632 143.455V143.577C8.8889 143.739 9.65621 144.157 10.2083 144.83C10.7603 145.499 11.0364 146.327 11.0364 147.315C11.0364 148.16 10.8059 148.92 10.345 149.594C9.8892 150.262 9.26622 150.789 8.47611 151.174C7.686 151.559 6.787 151.751 5.7791 151.751ZM19.0059 151.751C18.1144 151.751 17.3117 151.574 16.5975 151.219C15.8834 150.865 15.3111 150.379 14.8806 149.761C14.4501 149.143 14.2145 148.439 14.174 147.649H15.9974C16.0683 148.353 16.3873 148.935 16.9546 149.396C17.5269 149.852 18.2107 150.08 19.0059 150.08C19.644 150.08 20.2113 149.93 20.7076 149.632C21.209 149.333 21.6016 148.923 21.8852 148.401C22.1739 147.874 22.3182 147.279 22.3182 146.616C22.3182 145.937 22.1688 145.332 21.87 144.8C21.5762 144.263 21.1711 143.84 20.6544 143.531C20.1378 143.222 19.5478 143.065 18.8843 143.06C18.4082 143.055 17.9194 143.128 17.418 143.28C16.9166 143.427 16.5038 143.617 16.1797 143.85L14.4171 143.637L15.3592 135.979H23.4426V137.651H16.9394L16.3924 142.24H16.4836C16.8027 141.986 17.2028 141.776 17.6839 141.609C18.1651 141.442 18.6665 141.358 19.1882 141.358C20.1404 141.358 20.9887 141.586 21.7332 142.042C22.4828 142.493 23.0704 143.111 23.4958 143.896C23.9263 144.681 24.1416 145.577 24.1416 146.585C24.1416 147.578 23.9187 148.464 23.473 149.244C23.0324 150.019 22.4246 150.632 21.6497 151.083C20.8748 151.528 19.9935 151.751 19.0059 151.751ZM32.2345 151.751C31.0899 151.751 30.1149 151.44 29.3096 150.817C28.5043 150.189 27.8889 149.28 27.4634 148.089C27.038 146.894 26.8253 145.451 26.8253 143.759C26.8253 142.078 27.038 140.642 27.4634 139.451C27.894 138.256 28.5119 137.344 29.3172 136.716C30.1275 136.083 31.1 135.767 32.2345 135.767C33.369 135.767 34.3389 136.083 35.1442 136.716C35.9546 137.344 36.5725 138.256 36.9979 139.451C37.4285 140.642 37.6437 142.078 37.6437 143.759C37.6437 145.451 37.431 146.894 37.0055 148.089C36.5801 149.28 35.9647 150.189 35.1594 150.817C34.3541 151.44 33.3791 151.751 32.2345 151.751ZM32.2345 150.08C33.369 150.08 34.2503 149.533 34.8783 148.439C35.5064 147.345 35.8204 145.785 35.8204 143.759C35.8204 142.412 35.676 141.265 35.3873 140.317C35.1037 139.37 34.6935 138.649 34.1566 138.152C33.6248 137.656 32.9841 137.408 32.2345 137.408C31.1101 137.408 30.2314 137.962 29.5983 139.072C28.9652 140.176 28.6486 141.738 28.6486 143.759C28.6486 145.106 28.7904 146.251 29.0741 147.193C29.3577 148.135 29.7654 148.852 30.2972 149.343C30.8341 149.834 31.4798 150.08 32.2345 150.08Z" fill="#3671E5"/>
<path d="M52.1013 214.688H1777.86" stroke="url(#paint1_linear_52_2790)" stroke-width="1.42625"/>
<path d="M52.1013 286H1777.86" stroke="url(#paint2_linear_52_2790)" stroke-width="1.42625"/>
<path d="M1.17415 294.164V292.796L6.30987 287.174C6.91258 286.516 7.40893 285.943 7.79892 285.457C8.18891 284.966 8.47761 284.505 8.66501 284.074C8.85747 283.639 8.9537 283.183 8.9537 282.707C8.9537 282.16 8.82201 281.686 8.55864 281.286C8.30034 280.886 7.9458 280.577 7.49504 280.359C7.04427 280.142 6.53779 280.033 5.97559 280.033C5.37794 280.033 4.85627 280.157 4.41057 280.405C3.96993 280.648 3.62805 280.99 3.38494 281.431C3.1469 281.871 3.02787 282.388 3.02787 282.98H1.23493C1.23493 282.069 1.44512 281.269 1.8655 280.58C2.28588 279.891 2.8582 279.354 3.58247 278.969C4.3118 278.584 5.12977 278.392 6.03637 278.392C6.94804 278.392 7.75587 278.584 8.45988 278.969C9.16389 279.354 9.71595 279.873 10.1161 280.527C10.5162 281.18 10.7163 281.907 10.7163 282.707C10.7163 283.279 10.6124 283.839 10.4048 284.386C10.2022 284.928 9.84764 285.533 9.34116 286.202C8.83974 286.865 8.14333 287.676 7.25192 288.633L3.75721 292.371V292.492H10.9898V294.164H1.17415ZM18.9896 294.376C18.0982 294.376 17.2954 294.199 16.5813 293.844C15.8672 293.49 15.2948 293.004 14.8643 292.386C14.4338 291.768 14.1983 291.064 14.1578 290.274H15.9811C16.052 290.978 16.3711 291.56 16.9384 292.021C17.5107 292.477 18.1944 292.705 18.9896 292.705C19.6278 292.705 20.195 292.555 20.6914 292.257C21.1928 291.958 21.5853 291.548 21.869 291.026C22.1577 290.499 22.302 289.904 22.302 289.241C22.302 288.562 22.1526 287.957 21.8538 287.425C21.56 286.888 21.1548 286.465 20.6382 286.156C20.1216 285.847 19.5316 285.69 18.8681 285.685C18.392 285.68 17.9032 285.753 17.4018 285.905C16.9004 286.052 16.4876 286.242 16.1635 286.475L14.4009 286.262L15.343 278.604H23.4264V280.276H16.9232L16.3762 284.865H16.4673C16.7864 284.611 17.1865 284.401 17.6677 284.234C18.1489 284.067 18.6503 283.983 19.172 283.983C20.1241 283.983 20.9725 284.211 21.717 284.667C22.4666 285.118 23.0541 285.736 23.4796 286.521C23.9101 287.306 24.1253 288.202 24.1253 289.21C24.1253 290.203 23.9025 291.089 23.4568 291.869C23.0161 292.644 22.4084 293.257 21.6334 293.708C20.8585 294.153 19.9773 294.376 18.9896 294.376ZM32.2183 294.376C31.0736 294.376 30.0986 294.065 29.2933 293.442C28.488 292.814 27.8727 291.905 27.4472 290.714C27.0218 289.519 26.809 288.076 26.809 286.384C26.809 284.703 27.0218 283.267 27.4472 282.076C27.8777 280.881 28.4956 279.969 29.3009 279.341C30.1113 278.708 31.0837 278.392 32.2183 278.392C33.3528 278.392 34.3227 278.708 35.128 279.341C35.9384 279.969 36.5563 280.881 36.9817 282.076C37.4122 283.267 37.6275 284.703 37.6275 286.384C37.6275 288.076 37.4148 289.519 36.9893 290.714C36.5639 291.905 35.9485 292.814 35.1432 293.442C34.3379 294.065 33.3629 294.376 32.2183 294.376ZM32.2183 292.705C33.3528 292.705 34.2341 292.158 34.8621 291.064C35.4901 289.97 35.8041 288.41 35.8041 286.384C35.8041 285.037 35.6598 283.89 35.3711 282.942C35.0875 281.995 34.6772 281.274 34.1404 280.777C33.6086 280.281 32.9679 280.033 32.2183 280.033C31.0939 280.033 30.2151 280.587 29.582 281.697C28.9489 282.801 28.6324 284.363 28.6324 286.384C28.6324 287.731 28.7742 288.876 29.0578 289.818C29.3415 290.76 29.7492 291.477 30.281 291.968C30.8178 292.459 31.4636 292.705 32.2183 292.705Z" fill="#3671E5"/>
<path d="M52.1013 357.312H1777.86" stroke="url(#paint3_linear_52_2790)" stroke-width="1.42625"/>
<path d="M52.1013 428.625H1777.86" stroke="url(#paint4_linear_52_2790)" stroke-width="1.42625"/>
<path d="M9.07891 421.229V436.789H7.1948V423.205H7.10364L3.30503 425.727V423.813L7.1948 421.229H9.07891ZM18.4159 437.001C17.5245 437.001 16.7217 436.824 16.0076 436.469C15.2934 436.115 14.7211 435.629 14.2906 435.011C13.8601 434.393 13.6246 433.689 13.5841 432.899H15.4074C15.4783 433.603 15.7974 434.185 16.3646 434.646C16.937 435.102 17.6207 435.33 18.4159 435.33C19.0541 435.33 19.6213 435.18 20.1177 434.882C20.6191 434.583 21.0116 434.173 21.2952 433.651C21.5839 433.124 21.7283 432.529 21.7283 431.866C21.7283 431.187 21.5789 430.582 21.28 430.05C20.9863 429.513 20.5811 429.09 20.0645 428.781C19.5479 428.472 18.9578 428.315 18.2943 428.31C17.8182 428.305 17.3295 428.378 16.8281 428.53C16.3267 428.677 15.9139 428.867 15.5897 429.1L13.8272 428.887L14.7692 421.229H22.8527V422.901H16.3494L15.8024 427.49H15.8936C16.2127 427.236 16.6128 427.026 17.094 426.859C17.5751 426.692 18.0765 426.608 18.5982 426.608C19.5504 426.608 20.3988 426.836 21.1433 427.292C21.8929 427.743 22.4804 428.361 22.9058 429.146C23.3363 429.931 23.5516 430.827 23.5516 431.835C23.5516 432.828 23.3287 433.714 22.883 434.494C22.4424 435.269 21.8346 435.882 21.0597 436.333C20.2848 436.778 19.4035 437.001 18.4159 437.001ZM31.6445 437.001C30.4999 437.001 29.5249 436.69 28.7196 436.067C27.9143 435.439 27.2989 434.53 26.8735 433.339C26.448 432.144 26.2353 430.701 26.2353 429.009C26.2353 427.328 26.448 425.892 26.8735 424.701C27.304 423.506 27.9219 422.594 28.7272 421.966C29.5376 421.333 30.51 421.017 31.6445 421.017C32.779 421.017 33.749 421.333 34.5543 421.966C35.3646 422.594 35.9825 423.506 36.408 424.701C36.8385 425.892 37.0537 427.328 37.0537 429.009C37.0537 430.701 36.841 432.144 36.4156 433.339C35.9901 434.53 35.3748 435.439 34.5695 436.067C33.7642 436.69 32.7892 437.001 31.6445 437.001ZM31.6445 435.33C32.779 435.33 33.6603 434.783 34.2884 433.689C34.9164 432.595 35.2304 431.035 35.2304 429.009C35.2304 427.662 35.0861 426.515 34.7974 425.567C34.5137 424.62 34.1035 423.899 33.5666 423.402C33.0348 422.906 32.3941 422.658 31.6445 422.658C30.5201 422.658 29.6414 423.212 29.0083 424.322C28.3752 425.426 28.0586 426.988 28.0586 429.009C28.0586 430.356 28.2005 431.501 28.4841 432.443C28.7677 433.385 29.1754 434.102 29.7072 434.593C30.2441 435.084 30.8899 435.33 31.6445 435.33Z" fill="#3671E5"/>
<path d="M52.1013 499.938H1777.86" stroke="url(#paint5_linear_52_2790)" stroke-width="1.42625"/>
<path d="M52.1013 571.25H1777.86" stroke="#3671E5" stroke-width="1.42625"/>
<path d="M19.0059 579.626C18.1144 579.626 17.3117 579.449 16.5975 579.094C15.8834 578.74 15.3111 578.254 14.8806 577.636C14.4501 577.018 14.2145 576.314 14.174 575.524H15.9974C16.0683 576.228 16.3873 576.81 16.9546 577.271C17.5269 577.727 18.2107 577.955 19.0059 577.955C19.644 577.955 20.2113 577.805 20.7076 577.507C21.209 577.208 21.6016 576.798 21.8852 576.276C22.1739 575.749 22.3182 575.154 22.3182 574.491C22.3182 573.812 22.1688 573.207 21.87 572.675C21.5762 572.138 21.1711 571.715 20.6544 571.406C20.1378 571.097 19.5478 570.94 18.8843 570.935C18.4082 570.93 17.9195 571.003 17.418 571.155C16.9166 571.302 16.5038 571.492 16.1797 571.725L14.4171 571.512L15.3592 563.854H23.4426V565.526H16.9394L16.3924 570.115H16.4836C16.8027 569.861 17.2028 569.651 17.6839 569.484C18.1651 569.317 18.6665 569.233 19.1882 569.233C20.1404 569.233 20.9887 569.461 21.7333 569.917C22.4828 570.368 23.0704 570.986 23.4958 571.771C23.9263 572.556 24.1416 573.452 24.1416 574.46C24.1416 575.453 23.9187 576.339 23.473 577.119C23.0324 577.894 22.4246 578.507 21.6497 578.958C20.8748 579.403 19.9935 579.626 19.0059 579.626ZM32.2345 579.626C31.0899 579.626 30.1149 579.315 29.3096 578.692C28.5043 578.064 27.8889 577.155 27.4634 575.964C27.038 574.769 26.8253 573.326 26.8253 571.634C26.8253 569.953 27.038 568.517 27.4634 567.326C27.894 566.131 28.5119 565.219 29.3172 564.591C30.1275 563.958 31.1 563.642 32.2345 563.642C33.369 563.642 34.3389 563.958 35.1442 564.591C35.9546 565.219 36.5725 566.131 36.9979 567.326C37.4285 568.517 37.6437 569.953 37.6437 571.634C37.6437 573.326 37.431 574.769 37.0055 575.964C36.5801 577.155 35.9647 578.064 35.1594 578.692C34.3541 579.315 33.3791 579.626 32.2345 579.626ZM32.2345 577.955C33.369 577.955 34.2503 577.408 34.8783 576.314C35.5064 575.22 35.8204 573.66 35.8204 571.634C35.8204 570.287 35.676 569.14 35.3873 568.192C35.1037 567.245 34.6935 566.524 34.1566 566.027C33.6248 565.531 32.9841 565.283 32.2345 565.283C31.1101 565.283 30.2314 565.837 29.5983 566.947C28.9652 568.051 28.6486 569.613 28.6486 571.634C28.6486 572.981 28.7904 574.126 29.0741 575.068C29.3577 576.01 29.7654 576.727 30.2972 577.218C30.8341 577.709 31.4798 577.955 32.2345 577.955Z" fill="#3671E5"/>
<path d="M52.1013 642.562H1777.86" stroke="#3671E5" stroke-width="1.42625"/>
<path d="M52.1793 713.16H1777.94" stroke="#3671E5" stroke-width="1.42625"/>
<path d="M52.1793 713.16H1777.94" stroke="url(#paint6_linear_52_2790)" stroke-width="1.42625"/>
<path d="M32.317 722.251C31.1724 722.251 30.1974 721.94 29.3921 721.317C28.5868 720.689 27.9714 719.78 27.546 718.589C27.1205 717.394 26.9078 715.951 26.9078 714.259C26.9078 712.578 27.1205 711.142 27.546 709.951C27.9765 708.756 28.5944 707.844 29.3997 707.216C30.2101 706.583 31.1825 706.267 32.317 706.267C33.4515 706.267 34.4214 706.583 35.2267 707.216C36.0371 707.844 36.655 708.756 37.0805 709.951C37.511 711.142 37.7262 712.578 37.7262 714.259C37.7262 715.951 37.5135 717.394 37.0881 718.589C36.6626 719.78 36.0472 720.689 35.2419 721.317C34.4366 721.94 33.4617 722.251 32.317 722.251ZM32.317 720.58C33.4515 720.58 34.3328 720.033 34.9608 718.939C35.5889 717.845 35.9029 716.285 35.9029 714.259C35.9029 712.912 35.7586 711.765 35.4699 710.817C35.1862 709.87 34.776 709.149 34.2391 708.652C33.7073 708.156 33.0666 707.908 32.317 707.908C31.1926 707.908 30.3139 708.462 29.6808 709.572C29.0477 710.676 28.7311 712.238 28.7311 714.259C28.7311 715.606 28.8729 716.751 29.1566 717.693C29.4402 718.635 29.8479 719.352 30.3797 719.843C30.9166 720.334 31.5624 720.58 32.317 720.58Z" fill="#3671E5"/>
</g>
<defs>
<linearGradient id="paint0_linear_52_2790" x1="914.983" y1="143.375" x2="52.1013" y2="143.375" gradientUnits="userSpaceOnUse">
<stop stop-color="#3671E5" stop-opacity="0"/>
<stop offset="1" stop-color="#3671E5"/>
</linearGradient>
<linearGradient id="paint1_linear_52_2790" x1="914.983" y1="214.688" x2="52.1013" y2="214.688" gradientUnits="userSpaceOnUse">
<stop stop-color="#3671E5" stop-opacity="0"/>
<stop offset="1" stop-color="#3671E5"/>
</linearGradient>
<linearGradient id="paint2_linear_52_2790" x1="914.983" y1="286" x2="52.1013" y2="286" gradientUnits="userSpaceOnUse">
<stop stop-color="#3671E5" stop-opacity="0"/>
<stop offset="1" stop-color="#3671E5"/>
</linearGradient>
<linearGradient id="paint3_linear_52_2790" x1="914.983" y1="357.312" x2="52.1013" y2="357.312" gradientUnits="userSpaceOnUse">
<stop stop-color="#3671E5" stop-opacity="0"/>
<stop offset="1" stop-color="#3671E5"/>
</linearGradient>
<linearGradient id="paint4_linear_52_2790" x1="914.983" y1="428.625" x2="52.1013" y2="428.625" gradientUnits="userSpaceOnUse">
<stop stop-color="#3671E5" stop-opacity="0"/>
<stop offset="1" stop-color="#3671E5"/>
</linearGradient>
<linearGradient id="paint5_linear_52_2790" x1="914.983" y1="499.938" x2="52.1013" y2="499.938" gradientUnits="userSpaceOnUse">
<stop stop-color="#3671E5" stop-opacity="0"/>
<stop offset="1" stop-color="#3671E5"/>
</linearGradient>
<linearGradient id="paint6_linear_52_2790" x1="915.061" y1="713.16" x2="52.1793" y2="713.16" gradientUnits="userSpaceOnUse">
<stop stop-color="#3671E5" stop-opacity="0"/>
<stop offset="1" stop-color="#3671E5"/>
</linearGradient>
</defs>
</svg>
