<svg width="233" height="234" viewBox="0 0 233 234" fill="none" xmlns="http://www.w3.org/2000/svg">
<path opacity="0.29" d="M116.5 0.666382C52.1585 0.666382 0 52.8249 0 117.166C0 181.508 52.1585 233.666 116.5 233.666C180.842 233.666 233 181.508 233 117.166C233 52.8249 180.842 0.666382 116.5 0.666382ZM116.5 225.862C56.4733 225.862 7.80474 177.193 7.80474 117.166C7.80474 57.1397 56.4733 8.47112 116.5 8.47112C176.527 8.47112 225.195 57.1397 225.195 117.166C225.195 177.193 176.527 225.862 116.5 225.862Z" fill="#8EAFF0"/>
<path opacity="0.82" d="M116.5 217.435C171.877 217.435 216.769 172.543 216.769 117.166C216.769 61.7895 171.877 16.8977 116.5 16.8977C61.1231 16.8977 16.2313 61.7895 16.2313 117.166C16.2313 172.543 61.1231 217.435 116.5 217.435Z" fill="#8EAFF0"/>
<path d="M118.81 57.8377C115.865 55.7183 111.893 55.7183 108.949 57.8377L48.3513 101.443L48.4909 183.132L179.281 183.386L179.319 101.341L118.81 57.8377Z" fill="#3671E5"/>
<path d="M160.626 75.668H67.0321C62.6919 75.668 59.1639 79.1833 59.1639 83.5362V160.035C59.1639 164.376 62.6792 167.904 67.0321 167.904H160.626C164.966 167.904 168.494 164.388 168.494 160.035V83.5362C168.494 79.196 164.966 75.668 160.626 75.668Z" fill="white"/>
<g opacity="0.83">
<path d="M85.3701 108.118C87.2737 108.118 89.1646 108.118 91.0682 108.118C95.5861 108.118 100.104 108.118 104.634 108.118C110.117 108.118 115.599 108.118 121.082 108.118C125.815 108.118 130.561 108.118 135.295 108.118C137.592 108.118 139.902 108.156 142.199 108.118C142.237 108.118 142.262 108.118 142.3 108.118C144.356 108.118 146.323 106.303 146.222 104.184C146.12 102.052 144.496 100.25 142.3 100.25C140.397 100.25 138.506 100.25 136.602 100.25C132.084 100.25 127.566 100.25 123.036 100.25C117.554 100.25 112.071 100.25 106.589 100.25C101.855 100.25 97.1089 100.25 92.3753 100.25C90.0783 100.25 87.7686 100.212 85.4716 100.25C85.4336 100.25 85.4082 100.25 85.3701 100.25C83.3142 100.25 81.3472 102.065 81.4487 104.184C81.5375 106.316 83.1746 108.118 85.3701 108.118Z" fill="#ECECEC"/>
<path d="M85.37 123.804C87.2736 123.804 89.1645 123.804 91.0681 123.804C95.5859 123.804 100.104 123.804 104.634 123.804C110.117 123.804 115.599 123.804 121.081 123.804C125.815 123.804 130.561 123.804 135.295 123.804C137.592 123.804 139.902 123.842 142.199 123.804C142.237 123.804 142.262 123.804 142.3 123.804C144.356 123.804 146.323 121.989 146.222 119.87C146.12 117.738 144.496 115.935 142.3 115.935C140.397 115.935 138.506 115.935 136.602 115.935C132.084 115.935 127.566 115.935 123.036 115.935C117.553 115.935 112.071 115.935 106.589 115.935C101.855 115.935 97.1088 115.935 92.3752 115.935C90.0782 115.935 87.7685 115.897 85.4715 115.935C85.4334 115.935 85.4081 115.935 85.37 115.935C83.3141 115.935 81.3471 117.75 81.4486 119.87C81.5374 122.002 83.1745 123.804 85.37 123.804Z" fill="#ECECEC"/>
<path d="M85.37 139.502C87.2736 139.502 89.1645 139.502 91.0681 139.502C95.5859 139.502 100.104 139.502 104.634 139.502C110.117 139.502 115.599 139.502 121.081 139.502C125.815 139.502 130.561 139.502 135.295 139.502C137.592 139.502 139.902 139.54 142.199 139.502C142.237 139.502 142.262 139.502 142.3 139.502C144.356 139.502 146.323 137.687 146.222 135.568C146.12 133.436 144.496 131.634 142.3 131.634C140.397 131.634 138.506 131.634 136.602 131.634C132.084 131.634 127.566 131.634 123.036 131.634C117.553 131.634 112.071 131.634 106.589 131.634C101.855 131.634 97.1088 131.634 92.3752 131.634C90.0782 131.634 87.7685 131.596 85.4715 131.634C85.4334 131.634 85.4081 131.634 85.37 131.634C83.3141 131.634 81.3471 133.449 81.4486 135.568C81.5374 137.7 83.1745 139.502 85.37 139.502Z" fill="#ECECEC"/>
</g>
<path d="M179.319 101.341L179.281 183.386H48.3516V101.443L113.823 154.058L179.319 101.341Z" fill="#1B58D0"/>
<path d="M108.315 140.111L48.6434 183.386H179.281L118.785 140.111C115.65 137.852 111.437 137.852 108.315 140.111Z" fill="#3671E5"/>
<path d="M149.102 115.479C147.364 114.971 146.031 114.413 145.168 113.816C146.222 114.654 147.554 115.263 149.102 115.479Z" fill="#FDD729"/>
<path d="M203.063 115.453C204.446 115.237 205.652 114.73 206.642 114.007C205.791 114.527 204.586 115.009 203.063 115.453Z" fill="#FDCB35"/>
<path d="M178.583 59.9952C178.342 59.8809 178.1 59.7794 177.847 59.7033C177.276 59.5129 176.679 59.4241 176.045 59.4241C172.796 59.4241 170.156 62.0764 170.156 65.3379C170.156 67.9649 171.869 70.1857 174.23 70.9599C174.776 71.1375 175.347 71.2391 175.943 71.2517C175.981 71.2517 176.019 71.2517 176.057 71.2517C179.306 71.2517 181.958 68.5994 181.958 65.3379C181.946 62.9901 180.562 60.9469 178.583 59.9952ZM176.451 68.1172C176.324 68.1425 176.184 68.1425 176.045 68.1425C175.816 68.1425 175.588 68.1172 175.372 68.0537C174.154 67.7491 173.253 66.645 173.253 65.3252C173.253 63.777 174.509 62.5206 176.057 62.5206C176.514 62.5206 176.958 62.6348 177.339 62.8379C177.377 62.8505 177.402 62.8759 177.441 62.8886C178.608 63.1805 179.496 64.2084 179.56 65.4775C179.636 66.9115 178.621 68.1425 177.25 68.3837C176.958 68.3329 176.692 68.2441 176.451 68.1172Z" fill="#FDD729"/>
<path d="M171.844 65.9217C171.679 62.7236 174.09 59.9951 177.25 59.7286C176.984 59.7033 176.73 59.7033 176.463 59.7159C173.214 59.8809 170.714 62.6602 170.879 65.9217C170.994 68.1679 172.352 70.0588 174.242 70.9599C175.093 71.366 176.057 71.569 177.06 71.5182C177.123 71.5182 177.187 71.5055 177.25 71.5055C176.806 71.4675 176.362 71.3786 175.943 71.239C173.659 70.5157 171.971 68.4344 171.844 65.9217Z" fill="#FBE17A"/>
<path d="M177.428 62.8886C178.595 63.1805 179.484 64.2084 179.547 65.4775C179.623 66.9115 178.608 68.1425 177.237 68.3837C177.44 68.4217 177.656 68.4344 177.872 68.4217C179.42 68.3456 180.6 67.0258 180.524 65.4775C180.448 63.9292 179.128 62.7363 177.593 62.8125C177.504 62.8125 177.415 62.8252 177.326 62.8379C177.301 62.8379 177.275 62.8505 177.25 62.8505C177.301 62.8632 177.364 62.8759 177.428 62.8886Z" fill="#FDD729"/>
<path d="M181.946 65.3379C181.946 62.9901 180.575 60.9469 178.583 59.9951C178.583 59.9951 178.583 59.9951 178.57 59.9951C178.341 59.8809 178.1 59.7921 177.847 59.7032C177.707 59.7032 177.567 59.7032 177.428 59.7032C177.364 59.7032 177.301 59.7159 177.237 59.7159C174.077 59.9697 171.679 62.7109 171.831 65.909C171.958 68.4344 173.659 70.5157 175.918 71.239C175.956 71.239 175.994 71.239 176.032 71.239C179.293 71.2517 181.946 68.5994 181.946 65.3379ZM173.951 65.7567C173.874 64.2084 175.067 62.8886 176.603 62.8125C176.819 62.7998 177.034 62.8125 177.237 62.8505C177.263 62.8378 177.288 62.8378 177.314 62.8378C177.402 62.8251 177.491 62.8125 177.58 62.8125C179.116 62.7363 180.435 63.9292 180.512 65.4775C180.588 67.0257 179.395 68.3456 177.859 68.4217C177.644 68.4344 177.428 68.4217 177.225 68.3836C176.946 68.3329 176.679 68.244 176.438 68.1171C176.311 68.1425 176.171 68.1425 176.032 68.1425C175.803 68.1425 175.575 68.1171 175.359 68.0537C174.56 67.6095 174.001 66.7592 173.951 65.7567Z" fill="#FDD729"/>
<path d="M147.884 109.425C147.643 107.42 148.227 105.288 149.851 103.638L153.011 100.415C154.115 99.298 154.75 97.7751 154.813 96.1634L155.181 85.351C155.181 73.2061 164.522 63.3582 176.045 63.3582C162.377 63.3582 151.298 73.2061 151.298 85.351L150.866 96.1634C150.803 97.7751 150.041 99.298 148.734 100.415L144.991 103.638C141.793 106.379 142.008 110.44 144.381 113.042C144.204 112.788 144.102 112.522 144.102 112.255C144.09 111.24 145.473 110.275 147.884 109.425Z" fill="#FDD729"/>
<path d="M196.908 85.351L197.276 96.1634C197.327 97.7752 197.974 99.298 199.078 100.415L202.238 103.638C203.862 105.288 204.434 107.407 204.205 109.412C206.654 110.263 208.038 111.227 208.038 112.255C208.038 112.458 207.987 112.661 207.873 112.864C210.094 110.263 210.233 106.329 207.111 103.651L203.367 100.427C202.06 99.3107 201.299 97.7878 201.235 96.1761L200.804 85.3637C200.804 73.2188 189.725 63.3708 176.057 63.3708C187.568 63.3708 196.908 73.2061 196.908 85.351Z" fill="#FDCB35"/>
<path d="M155.181 85.351L154.813 96.1634C154.762 97.7751 154.115 99.298 153.011 100.415L149.851 103.638C148.227 105.288 147.643 107.42 147.884 109.425C149.712 108.791 152.135 108.22 155.016 107.75C155.143 106.278 155.613 104.831 156.488 103.638L158.849 100.415C159.674 99.298 160.156 97.7751 160.194 96.1634L160.473 85.351C160.473 73.2061 167.453 63.3582 176.045 63.3582C164.522 63.3708 155.181 73.2061 155.181 85.351Z" fill="#FBE17A"/>
<path d="M191.629 85.351L191.908 96.1635C191.946 97.7752 192.428 99.298 193.253 100.415L195.614 103.638C196.489 104.831 196.959 106.278 197.086 107.737C199.966 108.207 202.39 108.765 204.23 109.4C204.459 107.407 203.875 105.275 202.263 103.626L199.103 100.402C197.999 99.2854 197.365 97.7625 197.301 96.1508L196.933 85.3384C196.933 73.1934 187.593 63.3455 176.07 63.3455C184.649 63.3709 191.629 73.2061 191.629 85.351Z" fill="#FDD729"/>
<path d="M207.885 112.864C207.987 112.661 208.05 112.458 208.05 112.255C208.05 111.227 206.667 110.263 204.218 109.412C202.39 108.778 199.954 108.22 197.073 107.75C191.451 106.836 184.116 106.278 176.07 106.278C168.011 106.278 160.651 106.836 155.029 107.75C152.148 108.22 149.724 108.791 147.897 109.425C145.473 110.263 144.102 111.227 144.102 112.255C144.102 112.522 144.191 112.788 144.381 113.042C144.559 113.308 144.838 113.562 145.194 113.803C146.044 114.4 147.389 114.958 149.128 115.466C154.813 117.128 164.763 118.232 176.083 118.232C187.441 118.232 197.416 117.128 203.088 115.453C204.611 115.009 205.817 114.514 206.667 114.006C207.251 113.638 207.67 113.258 207.885 112.864Z" fill="#F6BD28"/>
<path d="M204.662 112.864C204.763 112.661 204.802 112.458 204.802 112.255C204.802 111.227 203.558 110.263 201.35 109.412C199.7 108.778 197.517 108.22 194.928 107.75C189.877 106.836 183.278 106.278 176.057 106.278C168.811 106.278 162.199 106.836 157.136 107.75C154.547 108.22 152.364 108.791 150.727 109.425C148.557 110.263 147.326 111.227 147.326 112.255C147.326 112.522 147.415 112.788 147.567 113.042C147.732 113.308 147.973 113.562 148.303 113.803C149.077 114.4 150.27 114.958 151.831 115.466C156.932 117.128 165.879 118.232 176.057 118.232C186.261 118.232 195.233 117.128 200.334 115.453C201.705 115.009 202.784 114.514 203.545 114.006C204.091 113.638 204.472 113.258 204.662 112.864Z" fill="#E8B229"/>
<path d="M176.045 120.91C181.308 120.91 185.575 116.626 185.575 111.341C185.575 106.057 181.308 101.773 176.045 101.773C170.781 101.773 166.514 106.057 166.514 111.341C166.514 116.626 170.781 120.91 176.045 120.91Z" fill="#FDCB35"/>
<path d="M160.473 85.351L160.194 96.1634C160.156 97.7752 159.674 99.298 158.849 100.415L156.488 103.638C155.613 104.831 155.143 106.278 155.016 107.75C160.638 106.824 167.999 106.278 176.057 106.278C184.09 106.278 191.438 106.836 197.06 107.75C196.933 106.291 196.464 104.844 195.588 103.651L193.228 100.427C192.403 99.3107 191.921 97.7878 191.883 96.1761L191.603 85.3637C191.603 73.2188 184.623 63.3708 176.032 63.3708C167.44 63.3708 160.473 73.2061 160.473 85.351Z" fill="#FDD729"/>
</svg>
